<svg width="257" height="257" viewBox="0 0 257 257" fill="none" xmlns="http://www.w3.org/2000/svg">
<g id="Frame 144">
<rect x="0.5" y="0.5" width="256" height="256" rx="76.4179" fill="black"/>
<g id="Vector">
<path d="M36.7985 131.671C36.7985 128.977 38.9824 126.793 41.6763 126.793H76.796C79.4899 126.793 81.6737 124.609 81.6737 121.915V86.3075C81.6737 83.6136 83.8576 81.4298 86.5515 81.4298H125.573C128.267 81.4298 130.451 83.6136 130.451 86.3075V125.329C130.451 128.023 128.267 130.207 125.573 130.207H90.4537C87.7598 130.207 85.5759 132.391 85.5759 135.085V170.692C85.5759 173.386 83.3921 175.57 80.6982 175.57H41.6763C38.9824 175.57 36.7985 173.386 36.7985 170.692V131.671Z" fill="white"/>
<path d="M175.326 131.671C175.326 128.977 173.142 126.793 170.449 126.793H135.329C132.635 126.793 130.451 124.609 130.451 121.915V86.3075C130.451 83.6136 128.267 81.4298 125.573 81.4298H86.5515C83.8576 81.4298 81.6737 83.6136 81.6737 86.3075V125.329C81.6737 128.023 83.8576 130.207 86.5515 130.207H121.671C124.365 130.207 126.549 132.391 126.549 135.085V170.692C126.549 173.386 128.733 175.57 131.427 175.57H170.449C173.142 175.57 175.326 173.386 175.326 170.692V131.671Z" fill="white"/>
<path d="M126.549 131.671C126.549 128.977 128.733 126.793 131.427 126.793H166.546C169.24 126.793 171.424 124.609 171.424 121.915V86.3075C171.424 83.6136 173.608 81.4298 176.302 81.4298H215.324C218.018 81.4298 220.202 83.6136 220.202 86.3075V125.329C220.202 128.023 218.018 130.207 215.324 130.207H180.204C177.51 130.207 175.326 132.391 175.326 135.085V170.692C175.326 173.386 173.142 175.57 170.449 175.57H131.427C128.733 175.57 126.549 173.386 126.549 170.692V131.671Z" fill="white"/>
</g>
</g>
</svg>
