<svg width="1520" height="353" viewBox="0 0 1520 353" fill="none" xmlns="http://www.w3.org/2000/svg">
<path fill-rule="evenodd" clip-rule="evenodd" d="M107.25 83.7258C107.25 100.294 93.8185 113.726 77.25 113.726H-0.999997C-2.10457 113.726 -3 114.621 -3 115.726V115.726C-3 116.83 -2.10457 117.726 -1 117.726H189.5C206.069 117.726 219.5 131.157 219.5 147.726V178.976C219.5 195.544 206.069 208.976 189.5 208.976H-1.00001C-2.10458 208.976 -3 209.871 -3 210.976V210.976C-3 212.08 -2.10457 212.976 -1 212.976H77.25C93.8185 212.976 107.25 226.407 107.25 242.976V350.726C107.25 351.83 108.145 352.726 109.25 352.726V352.726C110.355 352.726 111.25 351.83 111.25 350.726V242.976C111.25 226.407 124.681 212.976 141.25 212.976H189.5C206.069 212.976 219.5 226.407 219.5 242.976V350.726C219.5 351.83 220.395 352.726 221.5 352.726V352.726C222.605 352.726 223.5 351.83 223.5 350.726V330.476C223.5 318.187 233.462 308.226 245.75 308.226H1279.75C1292.04 308.226 1302 318.187 1302 330.476V350.726C1302 351.83 1302.9 352.726 1304 352.726V352.726C1305.1 352.726 1306 351.83 1306 350.726V242.976C1306 226.407 1319.43 212.976 1336 212.976H1381.25C1397.82 212.976 1411.25 226.407 1411.25 242.976V350.726C1411.25 351.83 1412.15 352.726 1413.25 352.726V352.726C1414.35 352.726 1415.25 351.83 1415.25 350.726V242.976C1415.25 226.407 1428.68 212.976 1445.25 212.976H1520.5C1521.6 212.976 1522.5 212.08 1522.5 210.976V210.976C1522.5 209.871 1521.6 208.976 1520.5 208.976H1336C1319.43 208.976 1306 195.544 1306 178.976V147.726C1306 131.157 1319.43 117.726 1336 117.726H1520.5C1521.6 117.726 1522.5 116.83 1522.5 115.726V115.726C1522.5 114.621 1521.6 113.726 1520.5 113.726H1445.25C1428.68 113.726 1415.25 100.294 1415.25 83.7258V-0.774169C1415.25 -1.87874 1414.35 -2.77417 1413.25 -2.77417V-2.77417C1412.15 -2.77417 1411.25 -1.87874 1411.25 -0.77417V83.7258C1411.25 100.294 1397.82 113.726 1381.25 113.726H1336C1319.43 113.726 1306 100.294 1306 83.7258V-0.774169C1306 -1.87874 1305.1 -2.77417 1304 -2.77417V-2.77417C1302.9 -2.77417 1302 -1.87874 1302 -0.77417V25.9758C1302 41.854 1289.13 54.7258 1273.25 54.7258H252.25C236.372 54.7258 223.5 41.854 223.5 25.9758V-0.774171C223.5 -1.87874 222.605 -2.77417 221.5 -2.77417V-2.77417C220.395 -2.77417 219.5 -1.87874 219.5 -0.77417V83.7258C219.5 100.294 206.069 113.726 189.5 113.726H141.25C124.681 113.726 111.25 100.294 111.25 83.7258V-5.27417C111.25 -6.37874 110.355 -7.27417 109.25 -7.27417V-7.27417C108.145 -7.27417 107.25 -6.37874 107.25 -5.27417V83.7258ZM253.5 58.7258C236.931 58.7258 223.5 72.1573 223.5 88.7258V274.226C223.5 290.794 236.931 304.226 253.5 304.226H1272C1288.57 304.226 1302 290.794 1302 274.226V88.7258C1302 72.1573 1288.57 58.7258 1272 58.7258H253.5Z" fill="#D5ED9F"/>
</svg>
