<svg width="270" height="143" viewBox="0 0 270 143" fill="none" xmlns="http://www.w3.org/2000/svg">
<path fill-rule="evenodd" clip-rule="evenodd" d="M156.466 43.2601L145.051 33.3877L130.229 36.23L113.742 26.2832L104.282 31.4187L83.7579 22.0225L80.2532 29.1284L56.9827 20.8732L59.6539 29.5032L35.0987 22.9077L43.778 32.5193L19.4811 27.998L33.6232 37.9874L11.1111 35.8243L29.8274 45.5639L10.5148 45.8949L32.6291 54.7726L17.7294 57.5769L41.8524 65.035L32.3018 70.1364L56.9177 75.7062L53.3163 82.7843L76.8783 86.1158L79.4524 94.7257L100.48 95.6096L109.068 105.21L126.24 103.591L140.302 113.58L152.54 109.559L171.192 119.307L177.726 113.138L199.798 122.034L200.218 114.103L224.321 121.588L218.6 112.394L243.22 117.997L231.719 108.119L255.309 111.487L238.75 101.544L259.828 102.468L239.251 93.0852L256.493 91.5051L233.19 83.2722L245.513 79.2879L220.95 72.7222L227.578 66.5841L203.297 62.098L203.815 54.1917L181.343 52.0673L175.718 42.8895L156.466 43.2601ZM175.164 43.9004L156.102 44.2673L144.764 34.4611L130.041 37.2843L113.716 27.4353L104.32 32.5359L84.225 23.3361L80.7567 30.3681L58.5275 22.4823L61.1451 30.9392L38.1119 24.7524L46.5015 34.0433L23.7893 29.8168L37.2755 39.343L16.1357 37.3117L30.289 44.6768L29.8445 46.5637L15.4784 46.8099L36.1822 55.1214L21.8797 57.8133L44.4379 64.7876L35.141 69.7536L58.3917 75.0145L54.8423 81.9901L77.6529 85.2154L80.2064 93.7565L100.944 94.6282L109.477 104.167L126.516 102.561L140.47 112.472L152.629 108.477L171.024 118.091L177.506 111.971L198.873 120.583L199.287 112.767L222.053 119.837L216.485 110.887L239.508 116.127L228.467 106.644L250.553 109.798L238.235 102.402L238.794 100.545L254.733 101.244L235.41 92.433L251.852 90.9261L230.07 83.2303L241.981 79.379L218.94 73.2202L225.435 67.2052L202.241 62.9199L202.754 55.0958L180.752 53.0158L175.164 43.9004Z" fill="white"/>
<path d="M203.953 97.8284L206.598 87.9566L208.414 88.4432L208.269 89.8331C208.707 89.3844 209.223 89.1085 209.816 89.0053C210.41 88.9021 211.035 88.9385 211.692 89.1145C212.761 89.4009 213.53 89.9313 213.999 90.7057C214.484 91.4707 214.573 92.4263 214.266 93.5725L212.511 100.122L210.251 99.5159L211.85 93.5465C212.071 92.7222 212.059 92.0703 211.815 91.5908C211.584 91.1147 211.159 90.7938 210.541 90.6281C210.116 90.5143 209.713 90.5237 209.332 90.6563C208.968 90.7796 208.646 91.0038 208.365 91.329C208.098 91.6576 207.899 92.0666 207.767 92.556L206.194 98.4288L203.953 97.8284Z" fill="white"/>
<path d="M196.548 96.0514C195.569 95.7891 194.783 95.3506 194.188 94.7358C193.607 94.1244 193.229 93.3952 193.056 92.5482C192.886 91.6882 192.929 90.7817 193.184 89.8287L193.272 89.5003C193.534 88.5215 193.952 87.7086 194.526 87.0617C195.1 86.4148 195.789 85.9784 196.595 85.7527C197.418 85.5175 198.312 85.5293 199.278 85.7881C200.269 86.0538 201.056 86.4923 201.637 87.1037C202.232 87.7185 202.616 88.4494 202.789 89.2965C202.963 90.1436 202.92 91.0501 202.661 92.016L202.573 92.3444C202.311 93.3232 201.893 94.1361 201.319 94.783C200.745 95.4299 200.048 95.8709 199.225 96.1061C198.419 96.3319 197.527 96.3137 196.548 96.0514ZM196.957 94.5252C197.64 94.7081 198.267 94.6071 198.84 94.2222C199.412 93.8372 199.816 93.2068 200.05 92.3311L200.47 90.7663C200.704 89.8905 200.67 89.1428 200.367 88.5232C200.063 87.9036 199.571 87.5023 198.888 87.3194C198.218 87.14 197.591 87.241 197.005 87.6225C196.433 88.0074 196.029 88.6378 195.795 89.5136L195.375 91.0784C195.141 91.9542 195.175 92.7018 195.478 93.3215C195.794 93.9445 196.287 94.3458 196.957 94.5252Z" fill="white"/>
<path d="M184.965 92.9476C183.986 92.6854 183.199 92.2468 182.605 91.632C182.023 91.0207 181.646 90.2915 181.472 89.4444C181.302 88.5845 181.345 87.678 181.601 86.7249L181.689 86.3965C181.951 85.4177 182.369 84.6048 182.942 83.9579C183.516 83.311 184.206 82.8747 185.012 82.6489C185.834 82.4137 186.728 82.4255 187.694 82.6843C188.686 82.95 189.472 83.3886 190.054 83.9999C190.648 84.6148 191.032 85.3457 191.206 86.1927C191.379 87.0398 191.336 87.9463 191.077 88.9122L190.989 89.2406C190.727 90.2194 190.309 91.0323 189.736 91.6792C189.162 92.3261 188.464 92.7672 187.642 93.0024C186.836 93.2282 185.943 93.2099 184.965 92.9476ZM185.374 91.4215C186.056 91.6044 186.684 91.5033 187.256 91.1184C187.829 90.7334 188.232 90.1031 188.467 89.2273L188.886 87.6625C189.121 86.7867 189.087 86.039 188.783 85.4194C188.48 84.7998 187.987 84.3986 187.304 84.2157C186.635 84.0362 186.007 84.1372 185.422 84.5187C184.849 84.9037 184.446 85.5341 184.211 86.4098L183.792 87.9746C183.557 88.8504 183.591 89.5981 183.895 90.2177C184.211 90.8408 184.704 91.242 185.374 91.4215Z" fill="white"/>
<path d="M173.381 89.8439C172.402 89.5816 171.616 89.1431 171.021 88.5283C170.44 87.9169 170.062 87.1877 169.889 86.3406C169.719 85.4807 169.762 84.5742 170.017 83.6212L170.105 83.2927C170.367 82.3139 170.785 81.5011 171.359 80.8542C171.933 80.2073 172.622 79.7709 173.428 79.5451C174.25 79.3099 175.145 79.3217 176.11 79.5806C177.102 79.8463 177.889 80.2848 178.47 80.8962C179.065 81.511 179.449 82.2419 179.622 83.089C179.795 83.936 179.753 84.8425 179.494 85.8085L179.406 86.1369C179.144 87.1157 178.726 87.9285 178.152 88.5754C177.578 89.2223 176.88 89.6634 176.058 89.8986C175.252 90.1244 174.36 90.1061 173.381 89.8439ZM173.79 88.3177C174.473 88.5006 175.1 88.3996 175.673 88.0146C176.245 87.6297 176.649 86.9993 176.883 86.1235L177.303 84.5587C177.537 83.683 177.503 82.9353 177.2 82.3157C176.896 81.6961 176.403 81.2948 175.721 81.1119C175.051 80.9325 174.424 81.0335 173.838 81.415C173.266 81.7999 172.862 82.4303 172.628 83.3061L172.208 84.8709C171.974 85.7466 172.008 86.4943 172.311 87.1139C172.627 87.737 173.12 88.1383 173.79 88.3177Z" fill="white"/>
<path d="M161.798 86.7399C160.819 86.4776 160.032 86.0391 159.438 85.4243C158.856 84.8129 158.479 84.0837 158.305 83.2366C158.135 82.3767 158.178 81.4702 158.433 80.5171L158.521 80.1887C158.784 79.2099 159.202 78.3971 159.775 77.7502C160.349 77.1033 161.039 76.6669 161.845 76.4411C162.667 76.2059 163.561 76.2177 164.527 76.4766C165.519 76.7423 166.305 77.1808 166.887 77.7922C167.481 78.407 167.865 79.1379 168.038 79.985C168.212 80.832 168.169 81.7385 167.91 82.7045L167.822 83.0329C167.56 84.0117 167.142 84.8245 166.568 85.4714C165.995 86.1183 165.297 86.5594 164.475 86.7946C163.669 87.0204 162.776 87.0021 161.798 86.7399ZM162.206 85.2137C162.889 85.3966 163.517 85.2956 164.089 84.9106C164.662 84.5257 165.065 83.8953 165.3 83.0195L165.719 81.4547C165.954 80.579 165.919 79.8313 165.616 79.2117C165.313 78.5921 164.82 78.1908 164.137 78.0079C163.468 77.8285 162.84 77.9295 162.255 78.311C161.682 78.6959 161.279 79.3263 161.044 80.2021L160.625 81.7669C160.39 82.6426 160.424 83.3903 160.728 84.0099C161.044 84.633 161.537 85.0343 162.206 85.2137Z" fill="white"/>
<path d="M150.214 83.6361C149.235 83.3738 148.449 82.9353 147.854 82.3205C147.272 81.7091 146.895 80.9799 146.722 80.1329C146.552 79.2729 146.595 78.3664 146.85 77.4134L146.938 77.085C147.2 76.1062 147.618 75.2933 148.192 74.6464C148.765 73.9995 149.455 73.5632 150.261 73.3374C151.083 73.1022 151.977 73.114 152.943 73.3728C153.935 73.6385 154.722 74.0771 155.303 74.6884C155.898 75.3032 156.282 76.0342 156.455 76.8812C156.628 77.7283 156.586 78.6348 156.327 79.6007L156.239 79.9291C155.976 80.9079 155.558 81.7208 154.985 82.3677C154.411 83.0146 153.713 83.4556 152.891 83.6908C152.085 83.9166 151.193 83.8984 150.214 83.6361ZM150.623 82.1099C151.305 82.2928 151.933 82.1918 152.505 81.8069C153.078 81.4219 153.482 80.7916 153.716 79.9158L154.135 78.351C154.37 77.4752 154.336 76.7275 154.033 76.1079C153.729 75.4883 153.236 75.087 152.554 74.9041C151.884 74.7247 151.256 74.8257 150.671 75.2072C150.099 75.5922 149.695 76.2225 149.46 77.0983L149.041 78.6631C148.806 79.5389 148.841 80.2866 149.144 80.9062C149.46 81.5292 149.953 81.9305 150.623 82.1099Z" fill="white"/>
<path d="M138.457 80.4858C137.632 80.2649 136.928 79.9587 136.342 79.5672C135.773 79.1663 135.365 78.705 135.119 78.1834C134.875 77.6489 134.837 77.0725 135.002 76.4543C135.013 76.4157 135.026 76.3642 135.044 76.2998C135.064 76.2225 135.093 76.1405 135.13 76.0538L137.043 76.5663L136.996 76.7402C136.862 77.2424 136.975 77.6939 137.337 78.0946C137.699 78.4953 138.292 78.806 139.117 79.0269C139.876 79.2305 140.476 79.26 140.915 79.1154C141.358 78.9579 141.634 78.673 141.744 78.2609C141.817 77.9904 141.798 77.7508 141.689 77.542C141.582 77.3202 141.334 77.088 140.943 76.8454C140.553 76.6027 139.963 76.3065 139.173 75.9569C138.361 75.5875 137.722 75.2161 137.256 74.8428C136.79 74.4695 136.485 74.0633 136.34 73.6242C136.209 73.1886 136.219 72.6875 136.37 72.1208C136.55 71.4511 136.879 70.9456 137.357 70.6044C137.835 70.2631 138.425 70.0693 139.127 70.0229C139.83 69.9765 140.606 70.0672 141.456 70.2949C142.203 70.4951 142.844 70.784 143.377 71.1617C143.924 71.5428 144.324 71.9813 144.578 72.4772C144.835 72.9602 144.889 73.4786 144.741 74.0324C144.731 74.071 144.717 74.1225 144.7 74.1869C144.686 74.2384 144.654 74.3058 144.604 74.3891L142.672 73.8714C142.783 73.4593 142.77 73.1179 142.636 72.8472C142.501 72.5765 142.277 72.3576 141.963 72.1906C141.665 72.0142 141.31 71.8708 140.898 71.7603C139.507 71.3876 138.699 71.6199 138.475 72.457C138.413 72.6888 138.432 72.901 138.532 73.0935C138.649 73.2766 138.891 73.4796 139.26 73.7025C139.628 73.9253 140.173 74.2094 140.895 74.5547C141.781 74.9577 142.468 75.3558 142.956 75.7489C143.448 76.1291 143.764 76.5451 143.905 76.9971C144.046 77.449 144.034 77.9841 143.868 78.6023C143.675 79.3235 143.33 79.8659 142.832 80.2295C142.351 80.5836 141.739 80.7787 140.998 80.8147C140.257 80.8508 139.41 80.7411 138.457 80.4858Z" fill="white"/>
<path d="M112.262 77.1527C111.399 76.9215 110.803 76.5201 110.473 75.9486C110.143 75.377 110.066 74.7628 110.242 74.106C110.373 73.6166 110.626 73.2149 111 72.901C111.374 72.5871 111.797 72.397 112.271 72.3306C112.036 72.0743 111.874 71.7757 111.786 71.4346C111.711 71.097 111.718 70.7607 111.808 70.4259C111.932 69.9622 112.191 69.5898 112.583 69.3085C112.989 69.0308 113.462 68.9158 114.001 68.9637C113.61 68.569 113.349 68.1264 113.218 67.6358C113.1 67.1487 113.115 66.6282 113.264 66.0744C113.519 65.1214 114.069 64.4611 114.913 64.0937C115.76 63.7133 116.885 63.7112 118.289 64.0874C119.062 64.2945 119.661 64.5584 120.085 64.8793C120.651 64.8791 121.102 64.7444 121.436 64.4751C121.771 64.2058 122.016 63.8574 122.172 63.4299L123.949 63.9061C123.77 64.5758 123.434 65.0795 122.944 65.4174C122.469 65.7457 121.91 65.8997 121.267 65.8791L121.257 65.9178C121.5 66.2453 121.654 66.6247 121.718 67.0559C121.785 67.4743 121.762 67.8959 121.648 68.321C121.393 69.274 120.865 69.954 120.066 70.361C119.27 70.7552 118.248 70.7849 116.998 70.4501L115.414 70.0257C115.054 69.929 114.741 69.9351 114.478 70.0439C114.23 70.1432 114.067 70.341 113.987 70.6372C113.908 70.9334 113.949 71.1928 114.11 71.4155C114.275 71.6252 114.537 71.7784 114.898 71.8751L118.317 72.7913C119.27 73.0467 119.945 73.4898 120.342 74.1207C120.756 74.7421 120.855 75.4521 120.641 76.2506C120.41 77.1135 119.952 77.7429 119.266 78.1389C118.589 78.5512 117.762 78.6263 116.783 78.364L112.262 77.1527ZM113.273 75.9326L116.808 76.8799C117.246 76.9972 117.613 76.9646 117.911 76.782C118.205 76.6123 118.398 76.3536 118.491 76.0058C118.581 75.671 118.541 75.3566 118.371 75.0626C118.215 74.7722 117.911 74.5665 117.46 74.4457L113.925 73.4985C113.487 73.3811 113.121 73.4073 112.827 73.577C112.542 73.7631 112.355 74.0235 112.266 74.3584C112.179 74.6803 112.213 74.993 112.366 75.2964C112.533 75.6032 112.835 75.8153 113.273 75.9326ZM117.018 68.9853C117.662 69.1579 118.211 69.1461 118.663 68.9499C119.12 68.7409 119.424 68.3531 119.576 67.7864C119.728 67.2197 119.656 66.7382 119.362 66.3419C119.068 65.9456 118.599 65.6612 117.955 65.4887C117.311 65.3161 116.763 65.3279 116.31 65.5241C115.857 65.7202 115.555 66.1016 115.403 66.6683C115.251 67.235 115.32 67.7229 115.611 68.1321C115.905 68.5284 116.374 68.8128 117.018 68.9853Z" fill="white"/>
<path d="M99.7007 69.894L102.346 60.0223L104.162 60.5089L104.017 61.8988C104.455 61.4501 104.97 61.1742 105.564 61.071C106.158 60.9677 106.783 61.0041 107.44 61.1801C108.509 61.4666 109.278 61.997 109.747 62.7714C110.232 63.5364 110.321 64.492 110.014 65.6382L108.259 72.1872L105.999 71.5815L107.598 65.6121C107.819 64.7879 107.807 64.136 107.563 63.6564C107.332 63.1803 106.907 62.8595 106.289 62.6938C105.864 62.5799 105.461 62.5893 105.08 62.722C104.716 62.8452 104.394 63.0695 104.113 63.3946C103.846 63.7233 103.646 64.1323 103.515 64.6217L101.942 70.4945L99.7007 69.894Z" fill="white"/>
<path d="M91.7877 67.7738L93.9721 59.6214L90.5141 58.6948L90.9748 56.9755L96.6737 58.5025L94.0286 68.3743L91.7877 67.7738ZM88.3297 66.8473L88.78 65.1665L97.7245 67.5632L97.2741 69.2439L88.3297 66.8473ZM94.9325 55.8826L95.4657 53.8928L97.4748 54.4311L96.9416 56.4209L94.9325 55.8826Z" fill="white"/>
<path d="M75.9154 63.5208L78.5605 53.649L79.8356 53.9906L79.7582 55.1294C80.0747 54.7725 80.4361 54.5312 80.8425 54.4054C81.2618 54.2831 81.6775 54.2771 82.0896 54.3876C82.5404 54.5083 82.9022 54.7295 83.1749 55.0511C83.4476 55.3726 83.6108 55.7683 83.6643 56.2382C84.0264 55.8659 84.4041 55.6151 84.7976 55.4859C85.2075 55.3472 85.6571 55.3435 86.1465 55.4746C86.8678 55.6679 87.3466 56.0446 87.5829 56.6049C87.8356 57.1557 87.8533 57.8368 87.6359 58.6482L85.6326 66.1245L83.7587 65.6224L85.6481 58.5711C85.8759 57.7211 85.6678 57.2098 85.0238 57.0373C84.7147 56.9544 84.4244 57.0078 84.1527 57.1973C83.8845 57.3739 83.7004 57.6489 83.6003 58.0224L81.711 65.0737L79.8564 64.5767L81.7458 57.5255C81.9735 56.6755 81.7526 56.1607 81.0828 55.9813C80.7737 55.8985 80.4834 55.9518 80.2118 56.1413C79.9565 56.3213 79.7788 56.5981 79.6787 56.9716L77.7893 64.0229L75.9154 63.5208Z" fill="white"/>
<path d="M69.129 61.9095C68.1502 61.6473 67.3636 61.2087 66.7691 60.5939C66.1875 59.9826 65.8101 59.2534 65.6367 58.4063C65.4669 57.5464 65.5096 56.6399 65.765 55.6868L65.853 55.3584C66.1152 54.3796 66.5332 53.5668 67.1068 52.9198C67.6805 52.2729 68.3702 51.8366 69.1761 51.6108C69.9984 51.3756 70.8924 51.3874 71.8584 51.6462C72.8501 51.912 73.6367 52.3505 74.2183 52.9619C74.8127 53.5767 75.1966 54.3076 75.37 55.1547C75.5433 56.0017 75.5006 56.9082 75.2418 57.8741L75.1538 58.2025C74.8915 59.1814 74.4735 59.9942 73.8999 60.6411C73.3262 61.288 72.6283 61.7291 71.8061 61.9643C71.0002 62.1901 70.1078 62.1718 69.129 61.9095ZM69.538 60.3834C70.2206 60.5663 70.8481 60.4653 71.4206 60.0803C71.993 59.6954 72.3966 59.065 72.6313 58.1892L73.0505 56.6244C73.2852 55.7487 73.2509 55.001 72.9476 54.3813C72.6443 53.7617 72.1513 53.3605 71.4688 53.1776C70.799 52.9981 70.1715 53.0992 69.5862 53.4807C69.0137 53.8656 68.6101 54.496 68.3755 55.3717L67.9562 56.9365C67.7215 57.8123 67.7558 58.56 68.0591 59.1796C68.3753 59.8027 68.8683 60.2039 69.538 60.3834Z" fill="white"/>
<path d="M57.3909 58.7643C56.6697 58.5711 56.0276 58.2886 55.4646 57.9169C54.918 57.5357 54.4749 57.0512 54.1355 56.4634C53.809 55.8789 53.6153 55.1852 53.5544 54.382C53.5098 53.5695 53.6291 52.6352 53.912 51.5791L54.4349 49.6279C54.7178 48.5718 55.0882 47.7048 55.5459 47.0269C56.0036 46.3489 56.52 45.8385 57.095 45.4956C57.6829 45.1562 58.3071 44.9646 58.9676 44.9207C59.6316 44.8639 60.3178 44.9305 61.0261 45.1203L61.3738 45.2134C62.3655 45.4792 63.1621 45.9066 63.7634 46.4956C64.3811 47.0752 64.7779 47.8096 64.9538 48.6988C65.1296 49.5879 65.0588 50.6249 64.7413 51.8098L62.4811 51.2041C62.695 50.4056 62.7856 49.7328 62.7527 49.1857C62.7233 48.6257 62.5418 48.1698 62.2081 47.8181C61.8744 47.4665 61.3599 47.1974 60.6644 47.0111C60.278 46.9076 59.9019 46.8689 59.536 46.8951C59.1829 46.9247 58.8478 47.042 58.5307 47.2469C58.217 47.4389 57.9289 47.7413 57.6664 48.1541C57.404 48.5669 57.1813 49.1146 56.9984 49.7972L56.2271 52.6756C56.0442 53.3582 55.9615 53.9503 55.9789 54.4519C55.9998 54.9407 56.0964 55.353 56.2686 55.6891C56.4443 56.0122 56.6776 56.2749 56.9685 56.4771C57.2723 56.6827 57.6174 56.8373 58.0037 56.9408C59.0469 57.2203 59.8471 57.1448 60.4041 56.7144C60.9775 56.2744 61.4247 55.4556 61.7456 54.2579L63.9286 54.8428C63.625 55.9761 63.1747 56.8839 62.5778 57.566C61.9809 58.2481 61.2731 58.7003 60.4543 58.9226C59.6356 59.1449 58.7303 59.1232 57.7386 58.8575L57.3909 58.7643Z" fill="white"/>
</svg>
