<svg width="201" height="198" viewBox="0 0 272 260" fill="none" xmlns="http://www.w3.org/2000/svg">
<g filter="url(#filter0_d_13_53)">
<ellipse cx="132.187" cy="88.089" rx="25.2731" ry="50.5463" transform="rotate(-30 132.187 88.089)" fill="#780C28"/>
<path d="M150.502 77.5149C157.23 89.1685 160.85 100.91 161.417 110.354C162 120.073 159.36 126.004 155.398 128.291C151.436 130.578 144.979 129.9 136.854 124.535C128.959 119.322 120.601 110.317 113.872 98.663C107.144 87.0094 103.524 75.2677 102.957 65.8241C102.374 56.1051 105.015 50.1744 108.977 47.887C112.938 45.5995 119.395 46.2781 127.52 51.6428C135.415 56.8555 143.774 65.8613 150.502 77.5149Z" stroke="#D5ED9F" stroke-opacity="0.3" stroke-width="8.25"/>
<ellipse cx="160.094" cy="84.9179" rx="25.2731" ry="50.5463" transform="rotate(15 160.094 84.9179)" fill="#780C28"/>
<path d="M180.521 90.3914C177.039 103.389 171.296 114.252 165.019 121.33C158.559 128.615 152.498 130.941 148.079 129.757C143.66 128.573 139.575 123.528 137.623 113.989C135.726 104.721 136.184 92.4422 139.666 79.4443C143.149 66.4464 148.892 55.5841 155.169 48.5056C161.629 41.2208 167.69 38.8943 172.109 40.0783C176.528 41.2624 180.613 46.3076 182.565 55.8464C184.462 65.1149 184.004 77.3935 180.521 90.3914Z" stroke="#D5ED9F" stroke-opacity="0.3" stroke-width="8.25"/>
<ellipse cx="25.2731" cy="50.5463" rx="25.2731" ry="50.5463" transform="matrix(0.866025 -0.5 -0.5 -0.866025 173.93 210.042)" fill="#780C28"/>
<path d="M188.859 143.057C182.131 131.404 173.772 122.398 165.877 117.185C157.752 111.82 151.295 111.142 147.333 113.429C143.372 115.717 140.731 121.647 141.314 131.366C141.881 140.81 145.501 152.552 152.229 164.205C158.957 175.859 167.316 184.865 175.211 190.077C183.336 195.442 189.793 196.121 193.755 193.833C197.717 191.546 200.357 185.615 199.774 175.896C199.207 166.453 195.587 154.711 188.859 143.057Z" stroke="#D5ED9F" stroke-opacity="0.3" stroke-width="8.25"/>
<ellipse cx="25.2731" cy="50.5463" rx="25.2731" ry="50.5463" transform="matrix(0.258819 -0.965926 -0.965926 -0.258819 229.166 168.813)" fill="#780C28"/>
<path d="M192.357 110.891C179.359 107.408 167.081 106.951 157.812 108.848C148.273 110.799 143.228 114.885 142.044 119.304C140.86 123.723 143.186 129.784 150.471 136.244C157.55 142.52 168.412 148.263 181.41 151.746C194.408 155.229 206.686 155.687 215.955 153.79C225.494 151.838 230.539 147.752 231.723 143.333C232.907 138.915 230.581 132.854 223.296 126.394C216.217 120.117 205.355 114.374 192.357 110.891Z" stroke="#D5ED9F" stroke-opacity="0.3" stroke-width="8.25"/>
<ellipse cx="25.2731" cy="50.5463" rx="25.2731" ry="50.5463" transform="matrix(-0.866025 0.5 0.5 0.866025 97.2598 49.9504)" fill="#780C28"/>
<path d="M82.3309 116.935C89.0591 128.589 97.4178 137.595 105.313 142.807C113.438 148.172 119.894 148.851 123.856 146.563C127.818 144.276 130.459 138.345 129.876 128.626C129.309 119.183 125.689 107.441 118.961 95.7872C112.232 84.1336 103.874 75.1278 95.9787 69.9151C87.8535 64.5504 81.397 63.8719 77.4351 66.1593C73.4732 68.4467 70.8326 74.3774 71.4159 84.0964C71.9828 93.54 75.6027 105.282 82.3309 116.935Z" stroke="#D5ED9F" stroke-opacity="0.3" stroke-width="8.25"/>
<ellipse cx="25.2731" cy="50.5463" rx="25.2731" ry="50.5463" transform="matrix(-0.258819 0.965926 0.965926 0.258819 42.0237 91.1795)" fill="#780C28"/>
<path d="M78.8329 149.101C91.8308 152.584 104.109 153.042 113.378 151.145C122.917 149.193 127.962 145.107 129.146 140.689C130.33 136.27 128.004 130.209 120.719 123.749C113.64 117.472 102.778 111.729 89.78 108.246C76.7821 104.764 64.5036 104.306 55.235 106.203C45.6962 108.155 40.651 112.24 39.467 116.659C38.2829 121.078 40.6094 127.139 47.8942 133.599C54.9727 139.876 65.835 145.619 78.8329 149.101Z" stroke="#D5ED9F" stroke-opacity="0.3" stroke-width="8.25"/>
<ellipse cx="138.589" cy="172.081" rx="25.2731" ry="50.5463" transform="rotate(150 138.589 172.081)" fill="#780C28"/>
<path d="M120.274 182.655C113.546 171.001 109.926 159.259 109.359 149.816C108.776 140.097 111.416 134.166 115.378 131.879C119.34 129.591 125.797 130.27 133.922 135.634C141.817 140.847 150.175 149.853 156.904 161.507C163.632 173.16 167.252 184.902 167.819 194.346C168.402 204.065 165.761 209.995 161.799 212.283C157.838 214.57 151.381 213.892 143.256 208.527C135.361 203.314 127.002 194.308 120.274 182.655Z" stroke="#D5ED9F" stroke-opacity="0.3" stroke-width="8.25"/>
<ellipse cx="111.096" cy="175.075" rx="25.2731" ry="50.5463" transform="rotate(-165 111.096 175.075)" fill="#780C28"/>
<path d="M90.6685 169.601C94.1513 156.603 99.8943 145.741 106.171 138.662C112.631 131.378 118.692 129.051 123.111 130.235C127.53 131.419 131.615 136.464 133.567 146.003C135.464 155.272 135.006 167.55 131.524 180.548C128.041 193.546 122.298 204.408 116.021 211.487C109.561 218.772 103.5 221.098 99.0813 219.914C94.6624 218.73 90.5768 213.685 88.6248 204.146C86.7281 194.878 87.1857 182.599 90.6685 169.601Z" stroke="#D5ED9F" stroke-opacity="0.3" stroke-width="8.25"/>
<circle cx="135.524" cy="130.251" r="25.2731" transform="rotate(-30 135.524 130.251)" fill="#F4C542"/>
<circle cx="135.524" cy="130.251" r="21.1481" transform="rotate(-30 135.524 130.251)" stroke="#D5ED9F" stroke-opacity="0.3" stroke-width="8.25"/>
</g>
<defs>
<filter id="filter0_d_13_53" x="0.0405273" y="0.651917" width="271.109" height="258.689" filterUnits="userSpaceOnUse" color-interpolation-filters="sRGB">
<feFlood flood-opacity="0" result="BackgroundImageFix"/>
<feColorMatrix in="SourceAlpha" type="matrix" values="0 0 0 0 0 0 0 0 0 0 0 0 0 0 0 0 0 0 127 0" result="hardAlpha"/>
<feMorphology radius="5" operator="dilate" in="SourceAlpha" result="effect1_dropShadow_13_53"/>
<feOffset/>
<feGaussianBlur stdDeviation="15"/>
<feComposite in2="hardAlpha" operator="out"/>
<feColorMatrix type="matrix" values="0 0 0 0 0 0 0 0 0 0 0 0 0 0 0 0 0 0 0.25 0"/>
<feBlend mode="normal" in2="BackgroundImageFix" result="effect1_dropShadow_13_53"/>
<feBlend mode="normal" in="SourceGraphic" in2="effect1_dropShadow_13_53" result="shape"/>
</filter>
</defs>
</svg>
