<svg width="272" height="260" viewBox="0 0 272 260" fill="none" xmlns="http://www.w3.org/2000/svg">
<g filter="url(#filter0_dd_21_307)">
<ellipse cx="132.378" cy="87.815" rx="25.2731" ry="50.5463" transform="rotate(-30 132.378 87.815)" fill="#DF42F4"/>
<path d="M150.693 77.241C157.421 88.8946 161.041 100.636 161.608 110.08C162.191 119.799 159.551 125.73 155.589 128.017C151.627 130.304 145.17 129.626 137.045 124.261C129.15 119.049 120.791 110.043 114.063 98.3891C107.335 86.7355 103.715 74.9938 103.148 65.5501C102.565 55.8312 105.206 49.9004 109.167 47.613C113.129 45.3256 119.586 46.0041 127.711 51.3688C135.606 56.5816 143.965 65.5873 150.693 77.241Z" stroke="white" stroke-opacity="0.3" stroke-width="8.25"/>
<ellipse cx="160.285" cy="84.6439" rx="25.2731" ry="50.5463" transform="rotate(15 160.285 84.6439)" fill="#DF42F4"/>
<path d="M180.712 90.1175C177.23 103.115 171.487 113.978 165.21 121.056C158.75 128.341 152.689 130.667 148.27 129.483C143.851 128.299 139.766 123.254 137.814 113.715C135.917 104.447 136.375 92.1683 139.857 79.1704C143.34 66.1725 149.083 55.3102 155.36 48.2317C161.82 40.9468 167.881 38.6204 172.3 39.8044C176.718 40.9885 180.804 46.0337 182.756 55.5725C184.653 64.841 184.195 77.1195 180.712 90.1175Z" stroke="white" stroke-opacity="0.3" stroke-width="8.25"/>
<ellipse cx="25.2731" cy="50.5463" rx="25.2731" ry="50.5463" transform="matrix(0.866025 -0.5 -0.5 -0.866025 174.121 209.769)" fill="#DF42F4"/>
<path d="M189.05 142.784C182.322 131.13 173.963 122.124 166.068 116.911C157.943 111.547 151.486 110.868 147.524 113.156C143.562 115.443 140.922 121.374 141.505 131.093C142.072 140.536 145.692 152.278 152.42 163.932C159.148 175.585 167.507 184.591 175.402 189.804C183.527 195.169 189.984 195.847 193.946 193.56C197.908 191.272 200.548 185.342 199.965 175.623C199.398 166.179 195.778 154.437 189.05 142.784Z" stroke="white" stroke-opacity="0.3" stroke-width="8.25"/>
<ellipse cx="25.2731" cy="50.5463" rx="25.2731" ry="50.5463" transform="matrix(0.258819 -0.965926 -0.965926 -0.258819 229.357 168.539)" fill="#DF42F4"/>
<path d="M192.548 110.617C179.55 107.134 167.271 106.677 158.003 108.574C148.464 110.525 143.419 114.611 142.235 119.03C141.051 123.449 143.377 129.51 150.662 135.97C157.741 142.247 168.603 147.989 181.601 151.472C194.599 154.955 206.877 155.413 216.146 153.516C225.685 151.564 230.73 147.478 231.914 143.059C233.098 138.641 230.771 132.58 223.487 126.12C216.408 119.843 205.546 114.1 192.548 110.617Z" stroke="white" stroke-opacity="0.3" stroke-width="8.25"/>
<ellipse cx="25.2731" cy="50.5463" rx="25.2731" ry="50.5463" transform="matrix(-0.866025 0.5 0.5 0.866025 97.4507 49.6768)" fill="#DF42F4"/>
<path d="M82.5218 116.662C89.25 128.315 97.6087 137.321 105.504 142.534C113.629 147.899 120.085 148.577 124.047 146.29C128.009 144.002 130.65 138.072 130.066 128.353C129.5 118.909 125.88 107.167 119.151 95.5136C112.423 83.86 104.065 74.8542 96.1696 69.6415C88.0444 64.2768 81.5879 63.5983 77.626 65.8857C73.6641 68.1731 71.0235 74.1038 71.6069 83.8228C72.1737 93.2664 75.7936 105.008 82.5218 116.662Z" stroke="white" stroke-opacity="0.3" stroke-width="8.25"/>
<ellipse cx="25.2731" cy="50.5463" rx="25.2731" ry="50.5463" transform="matrix(-0.258819 0.965926 0.965926 0.258819 42.2146 90.9058)" fill="#DF42F4"/>
<path d="M79.0238 148.828C92.0218 152.31 104.3 152.768 113.569 150.871C123.108 148.919 128.153 144.834 129.337 140.415C130.521 135.996 128.194 129.935 120.91 123.475C113.831 117.198 102.969 111.455 89.9709 107.973C76.973 104.49 64.6945 104.032 55.4259 105.929C45.8871 107.881 40.8419 111.966 39.6579 116.385C38.4738 120.804 40.8003 126.865 48.0851 133.325C55.1636 139.602 66.0259 145.345 79.0238 148.828Z" stroke="white" stroke-opacity="0.3" stroke-width="8.25"/>
<ellipse cx="138.78" cy="171.807" rx="25.2731" ry="50.5463" transform="rotate(150 138.78 171.807)" fill="#DF42F4"/>
<path d="M120.465 182.381C113.737 170.727 110.117 158.986 109.55 149.542C108.967 139.823 111.607 133.892 115.569 131.605C119.531 129.318 125.987 129.996 134.113 135.361C142.008 140.574 150.366 149.579 157.095 161.233C163.823 172.887 167.443 184.628 168.01 194.072C168.593 203.791 165.952 209.722 161.99 212.009C158.028 214.296 151.572 213.618 143.447 208.253C135.552 203.041 127.193 194.035 120.465 182.381Z" stroke="white" stroke-opacity="0.3" stroke-width="8.25"/>
<ellipse cx="111.287" cy="174.801" rx="25.2731" ry="50.5463" transform="rotate(-165 111.287 174.801)" fill="#DF42F4"/>
<path d="M90.8594 169.327C94.3422 156.329 100.085 145.467 106.362 138.389C112.822 131.104 118.883 128.777 123.302 129.961C127.721 131.145 131.806 136.191 133.758 145.729C135.655 154.998 135.197 167.277 131.714 180.274C128.232 193.272 122.489 204.135 116.212 211.213C109.752 218.498 103.691 220.824 99.2722 219.64C94.8533 218.456 90.7677 213.411 88.8157 203.872C86.919 194.604 87.3766 182.325 90.8594 169.327Z" stroke="white" stroke-opacity="0.3" stroke-width="8.25"/>
<circle cx="135.715" cy="129.977" r="25.2731" transform="rotate(-30 135.715 129.977)" fill="#F4C542"/>
<circle cx="135.715" cy="129.977" r="21.1481" transform="rotate(-30 135.715 129.977)" stroke="white" stroke-opacity="0.3" stroke-width="8.25"/>
</g>
<defs>
<filter id="filter0_dd_21_307" x="0.231445" y="0.37793" width="271.109" height="258.689" filterUnits="userSpaceOnUse" color-interpolation-filters="sRGB">
<feFlood flood-opacity="0" result="BackgroundImageFix"/>
<feColorMatrix in="SourceAlpha" type="matrix" values="0 0 0 0 0 0 0 0 0 0 0 0 0 0 0 0 0 0 127 0" result="hardAlpha"/>
<feMorphology radius="5" operator="dilate" in="SourceAlpha" result="effect1_dropShadow_21_307"/>
<feOffset/>
<feGaussianBlur stdDeviation="15"/>
<feComposite in2="hardAlpha" operator="out"/>
<feColorMatrix type="matrix" values="0 0 0 0 0 0 0 0 0 0 0 0 0 0 0 0 0 0 0.25 0"/>
<feBlend mode="normal" in2="BackgroundImageFix" result="effect1_dropShadow_21_307"/>
<feColorMatrix in="SourceAlpha" type="matrix" values="0 0 0 0 0 0 0 0 0 0 0 0 0 0 0 0 0 0 127 0" result="hardAlpha"/>
<feMorphology radius="5" operator="dilate" in="SourceAlpha" result="effect2_dropShadow_21_307"/>
<feOffset/>
<feGaussianBlur stdDeviation="15"/>
<feComposite in2="hardAlpha" operator="out"/>
<feColorMatrix type="matrix" values="0 0 0 0 0 0 0 0 0 0 0 0 0 0 0 0 0 0 0.25 0"/>
<feBlend mode="normal" in2="effect1_dropShadow_21_307" result="effect2_dropShadow_21_307"/>
<feBlend mode="normal" in="SourceGraphic" in2="effect2_dropShadow_21_307" result="shape"/>
</filter>
</defs>
</svg>
