<svg width="272" height="259" viewBox="0 0 272 259" fill="none" xmlns="http://www.w3.org/2000/svg">
<g filter="url(#filter0_d_12_37)">
<ellipse cx="132.187" cy="87.4573" rx="25.2731" ry="50.5463" transform="rotate(-30 132.187 87.4573)" fill="#F442B9"/>
<path d="M150.502 76.8832C157.23 88.5368 160.85 100.279 161.417 109.722C162 119.441 159.36 125.372 155.398 127.659C151.436 129.947 144.979 129.268 136.854 123.903C128.959 118.691 120.601 109.685 113.872 98.0313C107.144 86.3777 103.524 74.636 102.957 65.1924C102.374 55.4734 105.015 49.5427 108.977 47.2553C112.938 44.9679 119.395 45.6464 127.52 51.0111C135.415 56.2238 143.774 65.2296 150.502 76.8832Z" stroke="#D5ED9F" stroke-opacity="0.3" stroke-width="8.25"/>
<ellipse cx="160.094" cy="84.2862" rx="25.2731" ry="50.5463" transform="rotate(15 160.094 84.2862)" fill="#F442B9"/>
<path d="M180.521 89.7597C177.039 102.758 171.296 113.62 165.019 120.698C158.559 127.983 152.498 130.31 148.079 129.126C143.66 127.942 139.575 122.896 137.623 113.358C135.726 104.089 136.184 91.8106 139.666 78.8127C143.149 65.8147 148.892 54.9524 155.169 47.874C161.629 40.5891 167.69 38.2626 172.109 39.4467C176.528 40.6307 180.613 45.6759 182.565 55.2147C184.462 64.4833 184.004 76.7618 180.521 89.7597Z" stroke="#D5ED9F" stroke-opacity="0.3" stroke-width="8.25"/>
<ellipse cx="25.2731" cy="50.5463" rx="25.2731" ry="50.5463" transform="matrix(0.866025 -0.5 -0.5 -0.866025 173.93 209.411)" fill="#F442B9"/>
<path d="M188.859 142.426C182.131 130.772 173.772 121.766 165.877 116.553C157.752 111.189 151.295 110.51 147.333 112.798C143.372 115.085 140.731 121.016 141.314 130.735C141.881 140.178 145.501 151.92 152.229 163.574C158.957 175.227 167.316 184.233 175.211 189.446C183.336 194.81 189.793 195.489 193.755 193.202C197.717 190.914 200.357 184.983 199.774 175.264C199.207 165.821 195.587 154.079 188.859 142.426Z" stroke="#D5ED9F" stroke-opacity="0.3" stroke-width="8.25"/>
<ellipse cx="25.2731" cy="50.5463" rx="25.2731" ry="50.5463" transform="matrix(0.258819 -0.965926 -0.965926 -0.258819 229.166 168.181)" fill="#F442B9"/>
<path d="M192.357 110.26C179.359 106.777 167.081 106.319 157.812 108.216C148.273 110.168 143.228 114.253 142.044 118.672C140.86 123.091 143.186 129.152 150.471 135.612C157.55 141.889 168.412 147.632 181.41 151.115C194.408 154.597 206.686 155.055 215.955 153.158C225.494 151.206 230.539 147.121 231.723 142.702C232.907 138.283 230.581 132.222 223.296 125.762C216.217 119.485 205.355 113.742 192.357 110.26Z" stroke="#D5ED9F" stroke-opacity="0.3" stroke-width="8.25"/>
<ellipse cx="25.2731" cy="50.5463" rx="25.2731" ry="50.5463" transform="matrix(-0.866025 0.5 0.5 0.866025 97.2598 49.3187)" fill="#F442B9"/>
<path d="M82.331 116.304C89.0592 127.957 97.4178 136.963 105.313 142.176C113.438 147.541 119.895 148.219 123.856 145.932C127.818 143.644 130.459 137.714 129.876 127.995C129.309 118.551 125.689 106.809 118.961 95.1556C112.232 83.502 103.874 74.4962 95.9787 69.2835C87.8535 63.9187 81.3971 63.2402 77.4351 65.5276C73.4732 67.815 70.8326 73.7458 71.416 83.4647C71.9828 92.9084 75.6027 104.65 82.331 116.304Z" stroke="#D5ED9F" stroke-opacity="0.3" stroke-width="8.25"/>
<ellipse cx="25.2731" cy="50.5463" rx="25.2731" ry="50.5463" transform="matrix(-0.258819 0.965926 0.965926 0.258819 42.0237 90.5478)" fill="#F442B9"/>
<path d="M78.8329 148.47C91.8308 151.952 104.109 152.41 113.378 150.513C122.917 148.561 127.962 144.476 129.146 140.057C130.33 135.638 128.004 129.577 120.719 123.117C113.64 116.84 102.778 111.097 89.78 107.615C76.7821 104.132 64.5036 103.674 55.235 105.571C45.6962 107.523 40.651 111.609 39.467 116.027C38.2829 120.446 40.6094 126.507 47.8942 132.967C54.9727 139.244 65.835 144.987 78.8329 148.47Z" stroke="#D5ED9F" stroke-opacity="0.3" stroke-width="8.25"/>
<ellipse cx="138.589" cy="171.449" rx="25.2731" ry="50.5463" transform="rotate(150 138.589 171.449)" fill="#F442B9"/>
<path d="M120.274 182.023C113.546 170.369 109.926 158.628 109.359 149.184C108.776 139.465 111.416 133.534 115.378 131.247C119.34 128.96 125.797 129.638 133.922 135.003C141.817 140.216 150.175 149.221 156.904 160.875C163.632 172.529 167.252 184.27 167.819 193.714C168.402 203.433 165.761 209.364 161.799 211.651C157.838 213.938 151.381 213.26 143.256 207.895C135.361 202.682 127.002 193.677 120.274 182.023Z" stroke="#D5ED9F" stroke-opacity="0.3" stroke-width="8.25"/>
<ellipse cx="111.096" cy="174.443" rx="25.2731" ry="50.5463" transform="rotate(-165 111.096 174.443)" fill="#F442B9"/>
<path d="M90.6685 168.969C94.1513 155.972 99.8943 145.109 106.171 138.031C112.631 130.746 118.692 128.419 123.111 129.603C127.53 130.788 131.615 135.833 133.567 145.372C135.464 154.64 135.006 166.919 131.524 179.917C128.041 192.914 122.298 203.777 116.021 210.855C109.561 218.14 103.5 220.467 99.0813 219.282C94.6624 218.098 90.5768 213.053 88.6248 203.514C86.7281 194.246 87.1857 181.967 90.6685 168.969Z" stroke="#D5ED9F" stroke-opacity="0.3" stroke-width="8.25"/>
<circle cx="135.419" cy="127.677" r="25.2731" transform="rotate(-30 135.419 127.677)" fill="#F4C542"/>
<circle cx="135.419" cy="127.677" r="21.1481" transform="rotate(-30 135.419 127.677)" stroke="#D5ED9F" stroke-opacity="0.3" stroke-width="8.25"/>
</g>
<defs>
<filter id="filter0_d_12_37" x="0.0405579" y="0.0202942" width="271.109" height="258.689" filterUnits="userSpaceOnUse" color-interpolation-filters="sRGB">
<feFlood flood-opacity="0" result="BackgroundImageFix"/>
<feColorMatrix in="SourceAlpha" type="matrix" values="0 0 0 0 0 0 0 0 0 0 0 0 0 0 0 0 0 0 127 0" result="hardAlpha"/>
<feMorphology radius="5" operator="dilate" in="SourceAlpha" result="effect1_dropShadow_12_37"/>
<feOffset/>
<feGaussianBlur stdDeviation="15"/>
<feComposite in2="hardAlpha" operator="out"/>
<feColorMatrix type="matrix" values="0 0 0 0 0 0 0 0 0 0 0 0 0 0 0 0 0 0 0.25 0"/>
<feBlend mode="normal" in2="BackgroundImageFix" result="effect1_dropShadow_12_37"/>
<feBlend mode="normal" in="SourceGraphic" in2="effect1_dropShadow_12_37" result="shape"/>
</filter>
</defs>
</svg>
