<svg width="197" height="192" viewBox="0 0 197 192" fill="none" xmlns="http://www.w3.org/2000/svg">
<g filter="url(#filter0_d_21_346)">
<ellipse cx="117.187" cy="75.0429" rx="16.8488" ry="33.6975" transform="rotate(15 117.187 75.0429)" fill="#A94A4A"/>
<path d="M130.806 78.6919C128.484 87.3572 124.655 94.5987 120.471 99.3177C116.164 104.174 112.123 105.725 109.177 104.936C106.231 104.147 103.508 100.783 102.206 94.4239C100.942 88.2448 101.247 80.0591 103.569 71.3939C105.891 62.7286 109.719 55.487 113.904 50.7681C118.211 45.9115 122.251 44.3605 125.197 45.1499C128.143 45.9393 130.867 49.3027 132.168 55.6619C133.433 61.841 133.127 70.0266 130.806 78.6919Z" stroke="white" stroke-opacity="0.3" stroke-width="5.5"/>
<ellipse cx="131.559" cy="86.5916" rx="16.8488" ry="33.6975" transform="rotate(60 131.559 86.5916)" fill="#A94A4A"/>
<path d="M138.608 98.8015C130.839 103.287 123.011 105.7 116.716 106.078C110.236 106.467 106.282 104.707 104.758 102.065C103.233 99.4241 103.685 95.1198 107.261 89.703C110.737 84.4396 116.74 78.8672 124.509 74.3817C132.279 69.8962 140.106 67.4829 146.402 67.1051C152.881 66.7161 156.835 68.4765 158.36 71.1178C159.885 73.7591 159.433 78.0634 155.856 83.4802C152.381 88.7435 146.377 94.316 138.608 98.8015Z" stroke="white" stroke-opacity="0.3" stroke-width="5.5"/>
<ellipse cx="16.8488" cy="33.6975" rx="16.8488" ry="33.6975" transform="matrix(0.965926 0.258819 0.258819 -0.965926 79.0972 152.098)" fill="#A94A4A"/>
<path d="M117.712 127.559C120.034 118.893 120.339 110.708 119.074 104.529C117.773 98.1694 115.049 94.806 112.103 94.0166C109.157 93.2272 105.117 94.7782 100.81 99.6348C96.6255 104.354 92.7969 111.595 90.475 120.261C88.1532 128.926 87.8481 137.112 89.1126 143.291C90.4139 149.65 93.1376 153.013 96.0836 153.803C99.0295 154.592 103.07 153.041 107.377 148.184C111.561 143.465 115.39 136.224 117.712 127.559Z" stroke="white" stroke-opacity="0.3" stroke-width="5.5"/>
<ellipse cx="16.8488" cy="33.6975" rx="16.8488" ry="33.6975" transform="matrix(0.866025 -0.5 -0.5 -0.866025 124.571 158.701)" fill="#A94A4A"/>
<path d="M134.524 114.045C130.038 106.275 124.466 100.272 119.203 96.7964C113.786 93.22 109.481 92.7676 106.84 94.2926C104.199 95.8175 102.439 99.7713 102.827 106.251C103.205 112.546 105.619 120.374 110.104 128.143C114.59 135.912 120.162 141.916 125.425 145.391C130.842 148.968 135.146 149.42 137.788 147.895C140.429 146.37 142.189 142.416 141.801 135.937C141.423 129.641 139.009 121.814 134.524 114.045Z" stroke="white" stroke-opacity="0.3" stroke-width="5.5"/>
<ellipse cx="16.8488" cy="33.6975" rx="16.8488" ry="33.6975" transform="matrix(-0.965926 -0.258819 -0.258819 0.965926 118.422 40.4873)" fill="#A94A4A"/>
<path d="M79.8077 65.0268C77.4858 73.6921 77.1808 81.8778 78.4452 88.0568C79.7465 94.416 82.4703 97.7795 85.4162 98.5688C88.3622 99.3582 92.4027 97.8072 96.7093 92.9507C100.894 88.2317 104.723 80.9901 107.044 72.3249C109.366 63.6596 109.671 55.4739 108.407 49.2949C107.106 42.9356 104.382 39.5722 101.436 38.7828C98.4899 37.9935 94.4493 39.5444 90.1427 44.401C85.9582 49.12 82.1295 56.3615 79.8077 65.0268Z" stroke="white" stroke-opacity="0.3" stroke-width="5.5"/>
<ellipse cx="16.8488" cy="33.6975" rx="16.8488" ry="33.6975" transform="matrix(-0.866025 0.5 0.5 0.866025 72.9481 33.8848)" fill="#A94A4A"/>
<path d="M62.9955 78.5414C67.481 86.3105 73.0535 92.3144 78.3168 95.7895C83.7336 99.366 88.0379 99.8183 90.6792 98.2934C93.3205 96.7684 95.0809 92.8146 94.692 86.3353C94.3141 80.0396 91.9008 72.2117 87.4153 64.4427C82.9298 56.6736 77.3574 50.6697 72.094 47.1946C66.6772 43.6181 62.3729 43.1658 59.7317 44.6907C57.0904 46.2157 55.33 50.1695 55.7189 56.6488C56.0968 62.9445 58.5101 70.7723 62.9955 78.5414Z" stroke="white" stroke-opacity="0.3" stroke-width="5.5"/>
<ellipse cx="80.3322" cy="117.543" rx="16.8488" ry="33.6975" transform="rotate(-165 80.3322 117.543)" fill="#A94A4A"/>
<path d="M66.7138 113.894C69.0357 105.229 72.8643 97.9872 77.0489 93.2682C81.3555 88.4116 85.396 86.8607 88.342 87.65C91.2879 88.4394 94.0117 91.8029 95.313 98.1621C96.5774 104.341 96.2724 112.527 93.9505 121.192C91.6287 129.857 87.8 137.099 83.6154 141.818C79.3089 146.674 75.2683 148.225 72.3224 147.436C69.3764 146.647 66.6527 143.283 65.3513 136.924C64.0869 130.745 64.392 122.559 66.7138 113.894Z" stroke="white" stroke-opacity="0.3" stroke-width="5.5"/>
<ellipse cx="65.9606" cy="105.994" rx="16.8488" ry="33.6975" transform="rotate(-120 65.9606 105.994)" fill="#A94A4A"/>
<path d="M58.9112 93.7845C66.6803 89.299 74.5081 86.8857 80.8038 86.5078C87.2831 86.1189 91.2369 87.8793 92.7619 90.5206C94.2868 93.1619 93.8345 97.4662 90.258 102.883C86.7829 108.146 80.779 113.719 73.0099 118.204C65.2409 122.69 57.413 125.103 51.1173 125.481C44.638 125.87 40.6842 124.109 39.1592 121.468C37.6343 118.827 38.0866 114.523 41.6631 109.106C45.1382 103.842 51.1421 98.27 58.9112 93.7845Z" stroke="white" stroke-opacity="0.3" stroke-width="5.5"/>
<circle cx="99.4723" cy="95.4137" r="16.8488" transform="rotate(15 99.4723 95.4137)" fill="#F4C542"/>
<circle cx="99.4723" cy="95.4137" r="14.0988" transform="rotate(15 99.4723 95.4137)" stroke="white" stroke-opacity="0.3" stroke-width="5.5"/>
</g>
<defs>
<filter id="filter0_d_21_346" x="0.578186" y="0.832031" width="196.363" height="190.921" filterUnits="userSpaceOnUse" color-interpolation-filters="sRGB">
<feFlood flood-opacity="0" result="BackgroundImageFix"/>
<feColorMatrix in="SourceAlpha" type="matrix" values="0 0 0 0 0 0 0 0 0 0 0 0 0 0 0 0 0 0 127 0" result="hardAlpha"/>
<feMorphology radius="5" operator="dilate" in="SourceAlpha" result="effect1_dropShadow_21_346"/>
<feOffset/>
<feGaussianBlur stdDeviation="15"/>
<feComposite in2="hardAlpha" operator="out"/>
<feColorMatrix type="matrix" values="0 0 0 0 0 0 0 0 0 0 0 0 0 0 0 0 0 0 0.25 0"/>
<feBlend mode="normal" in2="BackgroundImageFix" result="effect1_dropShadow_21_346"/>
<feBlend mode="normal" in="SourceGraphic" in2="effect1_dropShadow_21_346" result="shape"/>
</filter>
</defs>
</svg>
