<svg width="171" height="166" viewBox="0 0 171 166" fill="none" xmlns="http://www.w3.org/2000/svg">
<g filter="url(#filter0_d_21_398)">
<ellipse cx="83.8844" cy="62.1255" rx="12.6366" ry="25.2731" transform="rotate(-30 83.8844 62.1255)" fill="#98D8EF"/>
<path d="M93.0418 56.8385C96.4059 62.6653 98.2158 68.5362 98.4993 73.258C98.7909 78.1175 97.4706 81.0828 95.4897 82.2265C93.5087 83.3702 90.2805 83.031 86.2179 80.3486C82.2704 77.7423 78.0911 73.2394 74.7269 67.4126C71.3628 61.5858 69.5529 55.7149 69.2695 50.9931C68.9778 46.1336 70.2981 43.1682 72.279 42.0245C74.26 40.8808 77.4882 41.2201 81.5508 43.9024C85.4983 46.5088 89.6777 51.0117 93.0418 56.8385Z" stroke="white" stroke-opacity="0.3" stroke-width="4.125"/>
<ellipse cx="97.8378" cy="60.54" rx="12.6366" ry="25.2731" transform="rotate(15 97.8378 60.54)" fill="#98D8EF"/>
<path d="M108.052 63.2768C106.31 69.7757 103.439 75.2069 100.3 78.7461C97.0703 82.3885 94.0399 83.5518 91.8304 82.9597C89.621 82.3677 87.5782 79.8451 86.6022 75.0757C85.6538 70.4414 85.8826 64.3022 87.624 57.8032C89.3654 51.3043 92.2369 45.8731 95.3753 42.3339C98.6053 38.6914 101.636 37.5282 103.845 38.1202C106.055 38.7123 108.097 41.2348 109.073 46.0043C110.022 50.6385 109.793 56.7778 108.052 63.2768Z" stroke="white" stroke-opacity="0.3" stroke-width="4.125"/>
<ellipse cx="12.6366" cy="25.2731" rx="12.6366" ry="25.2731" transform="matrix(0.866025 -0.5 -0.5 -0.866025 104.756 123.102)" fill="#98D8EF"/>
<path d="M112.22 89.6096C108.856 83.7827 104.677 79.2798 100.729 76.6735C96.6667 73.9911 93.4385 73.6519 91.4576 74.7956C89.4766 75.9393 88.1563 78.9046 88.448 83.7641C88.7314 88.486 90.5414 94.3568 93.9055 100.184C97.2696 106.01 101.449 110.513 105.396 113.12C109.459 115.802 112.687 116.141 114.668 114.998C116.649 113.854 117.969 110.889 117.678 106.029C117.394 101.307 115.584 95.4364 112.22 89.6096Z" stroke="white" stroke-opacity="0.3" stroke-width="4.125"/>
<ellipse cx="12.6366" cy="25.2731" rx="12.6366" ry="25.2731" transform="matrix(0.258819 -0.965926 -0.965926 -0.258819 132.374 102.488)" fill="#98D8EF"/>
<path d="M113.969 73.5269C107.47 71.7855 101.331 71.5567 96.6968 72.505C91.9274 73.481 89.4048 75.5238 88.8128 77.7333C88.2207 79.9427 89.384 82.9732 93.0264 86.2031C96.5656 89.3415 101.997 92.213 108.496 93.9544C114.995 95.6958 121.134 95.9246 125.768 94.9763C130.538 94.0003 133.06 91.9575 133.652 89.748C134.244 87.5385 133.081 84.5081 129.439 81.2782C125.899 78.1398 120.468 75.2683 113.969 73.5269Z" stroke="white" stroke-opacity="0.3" stroke-width="4.125"/>
<ellipse cx="12.6366" cy="25.2731" rx="12.6366" ry="25.2731" transform="matrix(-0.866025 0.5 0.5 0.866025 66.4207 43.0562)" fill="#98D8EF"/>
<path d="M58.9562 76.5487C62.3203 82.3755 66.4997 86.8784 70.4472 89.4847C74.5098 92.1671 77.738 92.5063 79.719 91.3626C81.6999 90.2189 83.0202 87.2536 82.7285 82.3941C82.4451 77.6722 80.6352 71.8014 77.271 65.9746C73.9069 60.1478 69.7276 55.6449 65.7801 53.0385C61.7175 50.3562 58.4893 50.0169 56.5083 51.1606C54.5274 52.3043 53.2071 55.2697 53.4987 60.1292C53.7822 64.851 55.5921 70.7218 58.9562 76.5487Z" stroke="white" stroke-opacity="0.3" stroke-width="4.125"/>
<ellipse cx="12.6366" cy="25.2731" rx="12.6366" ry="25.2731" transform="matrix(-0.258819 0.965926 0.965926 0.258819 38.8026 63.6704)" fill="#98D8EF"/>
<path d="M57.2072 92.6313C63.7062 94.3727 69.8454 94.6015 74.4797 93.6532C79.2491 92.6772 81.7717 90.6344 82.3637 88.4249C82.9558 86.2155 81.7925 83.185 78.1501 79.9551C74.6109 76.8167 69.1797 73.9452 62.6808 72.2038C56.1818 70.4624 50.0425 70.2336 45.4083 71.182C40.6389 72.1579 38.1163 74.2007 37.5242 76.4102C36.9322 78.6197 38.0954 81.6501 41.7379 84.88C45.2771 88.0185 50.7083 90.8899 57.2072 92.6313Z" stroke="white" stroke-opacity="0.3" stroke-width="4.125"/>
<ellipse cx="87.0852" cy="104.121" rx="12.6366" ry="25.2731" transform="rotate(150 87.0852 104.121)" fill="#98D8EF"/>
<path d="M77.9278 109.408C74.5637 103.581 72.7538 97.7104 72.4704 92.9886C72.1787 88.1291 73.499 85.1637 75.4799 84.02C77.4609 82.8763 80.6891 83.2156 84.7517 85.898C88.6992 88.5043 92.8785 93.0072 96.2427 98.834C99.6068 104.661 101.417 110.532 101.7 115.253C101.992 120.113 100.672 123.078 98.6906 124.222C96.7096 125.366 93.4814 125.026 89.4188 122.344C85.4713 119.738 81.2919 115.235 77.9278 109.408Z" stroke="white" stroke-opacity="0.3" stroke-width="4.125"/>
<ellipse cx="73.3387" cy="105.618" rx="12.6366" ry="25.2731" transform="rotate(-165 73.3387 105.618)" fill="#98D8EF"/>
<path d="M63.125 102.881C64.8663 96.3825 67.7378 90.9513 70.8763 87.4121C74.1062 83.7697 77.1366 82.6064 79.3461 83.1985C81.5555 83.7905 83.5984 86.3131 84.5743 91.0825C85.5227 95.7168 85.2939 101.856 83.5525 108.355C81.8111 114.854 78.9396 120.285 75.8012 123.824C72.5713 127.467 69.5408 128.63 67.3314 128.038C65.1219 127.446 63.0791 124.923 62.1031 120.154C61.1548 115.52 61.3836 109.38 63.125 102.881Z" stroke="white" stroke-opacity="0.3" stroke-width="4.125"/>
<circle cx="85.5002" cy="82.2352" r="12.6366" transform="rotate(-30 85.5002 82.2352)" fill="#F4C542"/>
<circle cx="85.5002" cy="82.2352" r="10.5741" transform="rotate(-30 85.5002 82.2352)" stroke="white" stroke-opacity="0.3" stroke-width="4.125"/>
</g>
<defs>
<filter id="filter0_d_21_398" x="0.311035" y="0.907227" width="170.554" height="164.344" filterUnits="userSpaceOnUse" color-interpolation-filters="sRGB">
<feFlood flood-opacity="0" result="BackgroundImageFix"/>
<feColorMatrix in="SourceAlpha" type="matrix" values="0 0 0 0 0 0 0 0 0 0 0 0 0 0 0 0 0 0 127 0" result="hardAlpha"/>
<feMorphology radius="5" operator="dilate" in="SourceAlpha" result="effect1_dropShadow_21_398"/>
<feOffset/>
<feGaussianBlur stdDeviation="15"/>
<feComposite in2="hardAlpha" operator="out"/>
<feColorMatrix type="matrix" values="0 0 0 0 0 0 0 0 0 0 0 0 0 0 0 0 0 0 0.25 0"/>
<feBlend mode="normal" in2="BackgroundImageFix" result="effect1_dropShadow_21_398"/>
<feBlend mode="normal" in="SourceGraphic" in2="effect1_dropShadow_21_398" result="shape"/>
</filter>
</defs>
</svg>
