<svg width="171" height="165" viewBox="0 0 171 165" fill="none" xmlns="http://www.w3.org/2000/svg">
<g filter="url(#filter0_d_21_320)">
<ellipse cx="83.5936" cy="61.4546" rx="12.6366" ry="25.2731" transform="rotate(-30 83.5936 61.4546)" fill="#8ABFA3"/>
<path d="M92.751 56.1676C96.1151 61.9944 97.9251 67.8653 98.2085 72.5871C98.5002 77.4466 97.1799 80.4119 95.1989 81.5556C93.218 82.6993 89.9897 82.3601 85.9271 79.6777C81.9796 77.0714 77.8003 72.5685 74.4362 66.7417C71.0721 60.9149 69.2621 55.044 68.9787 50.3222C68.687 45.4627 70.0073 42.4973 71.9883 41.3536C73.9692 40.2099 77.1974 40.5492 81.2601 43.2315C85.2076 45.8379 89.3869 50.3408 92.751 56.1676Z" stroke="white" stroke-opacity="0.3" stroke-width="4.125"/>
<ellipse cx="97.547" cy="59.8691" rx="12.6366" ry="25.2731" transform="rotate(15 97.547 59.8691)" fill="#8ABFA3"/>
<path d="M107.761 62.6059C106.019 69.1048 103.148 74.536 100.009 78.0752C96.7796 81.7176 93.7491 82.8809 91.5397 82.2888C89.3302 81.6968 87.2874 79.1742 86.3114 74.4048C85.3631 69.7705 85.5919 63.6313 87.3333 57.1323C89.0746 50.6334 91.9461 45.2022 95.0846 41.663C98.3145 38.0205 101.345 36.8573 103.554 37.4493C105.764 38.0414 107.807 40.564 108.783 45.3334C109.731 49.9676 109.502 56.1069 107.761 62.6059Z" stroke="white" stroke-opacity="0.3" stroke-width="4.125"/>
<ellipse cx="12.6366" cy="25.2731" rx="12.6366" ry="25.2731" transform="matrix(0.866025 -0.5 -0.5 -0.866025 104.465 122.431)" fill="#8ABFA3"/>
<path d="M111.93 88.9387C108.565 83.1118 104.386 78.6089 100.439 76.0026C96.376 73.3202 93.1477 72.981 91.1668 74.1247C89.1858 75.2684 87.8655 78.2338 88.1572 83.0932C88.4406 87.8151 90.2506 93.6859 93.6147 99.5127C96.9788 105.34 101.158 109.842 105.106 112.449C109.168 115.131 112.396 115.47 114.377 114.327C116.358 113.183 117.679 110.218 117.387 105.358C117.104 100.636 115.294 94.7655 111.93 88.9387Z" stroke="white" stroke-opacity="0.3" stroke-width="4.125"/>
<ellipse cx="12.6366" cy="25.2731" rx="12.6366" ry="25.2731" transform="matrix(0.258819 -0.965926 -0.965926 -0.258819 132.083 101.817)" fill="#8ABFA3"/>
<path d="M113.679 72.856C107.18 71.1146 101.04 70.8858 96.406 71.8341C91.6366 72.8101 89.114 74.8529 88.522 77.0624C87.93 79.2718 89.0932 82.3023 92.7356 85.5322C96.2749 88.6706 101.706 91.5421 108.205 93.2835C114.704 95.0249 120.843 95.2537 125.477 94.3054C130.247 93.3294 132.769 91.2866 133.361 89.0771C133.954 86.8676 132.79 83.8372 129.148 80.6073C125.609 77.4689 120.177 74.5974 113.679 72.856Z" stroke="white" stroke-opacity="0.3" stroke-width="4.125"/>
<ellipse cx="12.6366" cy="25.2731" rx="12.6366" ry="25.2731" transform="matrix(-0.866025 0.5 0.5 0.866025 66.1299 42.3853)" fill="#8ABFA3"/>
<path d="M58.6655 75.8778C62.0296 81.7046 66.2089 86.2075 70.1564 88.8138C74.219 91.4962 77.4472 91.8354 79.4282 90.6917C81.4091 89.548 82.7294 86.5827 82.4378 81.7232C82.1543 77.0013 80.3444 71.1305 76.9803 65.3037C73.6162 59.4769 69.4368 54.974 65.4893 52.3676C61.4267 49.6853 58.1985 49.346 56.2175 50.4897C54.2366 51.6334 52.9163 54.5988 53.208 59.4583C53.4914 64.1801 55.3013 70.0509 58.6655 75.8778Z" stroke="white" stroke-opacity="0.3" stroke-width="4.125"/>
<ellipse cx="12.6366" cy="25.2731" rx="12.6366" ry="25.2731" transform="matrix(-0.258819 0.965926 0.965926 0.258819 38.5118 62.9995)" fill="#8ABFA3"/>
<path d="M56.9165 91.9604C63.4154 93.7018 69.5547 93.9306 74.189 92.9823C78.9584 92.0063 81.481 89.9635 82.073 87.754C82.665 85.5446 81.5018 82.5141 77.8594 79.2842C74.3201 76.1458 68.889 73.2743 62.39 71.5329C55.891 69.7915 49.7518 69.5627 45.1175 70.5111C40.3481 71.487 37.8255 73.5298 37.2335 75.7393C36.6415 77.9488 37.8047 80.9792 41.4471 84.2091C44.9863 87.3476 50.4175 90.219 56.9165 91.9604Z" stroke="white" stroke-opacity="0.3" stroke-width="4.125"/>
<ellipse cx="86.7945" cy="103.45" rx="12.6366" ry="25.2731" transform="rotate(150 86.7945 103.45)" fill="#8ABFA3"/>
<path d="M77.6371 108.737C74.273 102.91 72.463 97.0395 72.1796 92.3177C71.8879 87.4582 73.2082 84.4929 75.1892 83.3491C77.1701 82.2054 80.3983 82.5447 84.4609 85.2271C88.4084 87.8334 92.5878 92.3363 95.9519 98.1631C99.316 103.99 101.126 109.861 101.409 114.583C101.701 119.442 100.381 122.407 98.3998 123.551C96.4188 124.695 93.1906 124.356 89.128 121.673C85.1805 119.067 81.0012 114.564 77.6371 108.737Z" stroke="white" stroke-opacity="0.3" stroke-width="4.125"/>
<ellipse cx="73.048" cy="104.947" rx="12.6366" ry="25.2731" transform="rotate(-165 73.048 104.947)" fill="#8ABFA3"/>
<path d="M62.8342 102.211C64.5756 95.7116 67.4471 90.2804 70.5855 86.7412C73.8154 83.0988 76.8458 81.9355 79.0553 82.5276C81.2648 83.1196 83.3076 85.6422 84.2836 90.4116C85.2319 95.0459 85.0031 101.185 83.2617 107.684C81.5203 114.183 78.6488 119.614 75.5104 123.153C72.2805 126.796 69.2501 127.959 67.0406 127.367C64.8311 126.775 62.7883 124.252 61.8123 119.483C60.864 114.849 61.0928 108.71 62.8342 102.211Z" stroke="white" stroke-opacity="0.3" stroke-width="4.125"/>
<circle cx="85.2619" cy="82.5355" r="12.6366" transform="rotate(-30 85.2619 82.5355)" fill="#F4C542"/>
<circle cx="85.2619" cy="82.5355" r="10.5741" transform="rotate(-30 85.2619 82.5355)" stroke="white" stroke-opacity="0.3" stroke-width="4.125"/>
</g>
<defs>
<filter id="filter0_d_21_320" x="0.0202637" y="0.236328" width="170.554" height="164.344" filterUnits="userSpaceOnUse" color-interpolation-filters="sRGB">
<feFlood flood-opacity="0" result="BackgroundImageFix"/>
<feColorMatrix in="SourceAlpha" type="matrix" values="0 0 0 0 0 0 0 0 0 0 0 0 0 0 0 0 0 0 127 0" result="hardAlpha"/>
<feMorphology radius="5" operator="dilate" in="SourceAlpha" result="effect1_dropShadow_21_320"/>
<feOffset/>
<feGaussianBlur stdDeviation="15"/>
<feComposite in2="hardAlpha" operator="out"/>
<feColorMatrix type="matrix" values="0 0 0 0 0 0 0 0 0 0 0 0 0 0 0 0 0 0 0.25 0"/>
<feBlend mode="normal" in2="BackgroundImageFix" result="effect1_dropShadow_21_320"/>
<feBlend mode="normal" in="SourceGraphic" in2="effect1_dropShadow_21_320" result="shape"/>
</filter>
</defs>
</svg>
