<svg width="295" height="307" viewBox="0 0 295 307" fill="none" xmlns="http://www.w3.org/2000/svg">
<g filter="url(#filter0_d_12_24)">
<ellipse cx="171.445" cy="102.671" rx="33.6975" ry="67.395" fill="#F44242"/>
<path d="M199.643 102.671C199.643 120.613 195.995 136.584 190.354 147.867C184.548 159.478 177.545 164.566 171.445 164.566C165.346 164.566 158.343 159.478 152.537 147.867C146.896 136.584 143.248 120.613 143.248 102.671C143.248 84.729 146.896 68.7576 152.537 57.4751C158.343 45.8637 165.346 40.7759 171.445 40.7759C177.545 40.7759 184.548 45.8637 190.354 57.4751C195.995 68.7576 199.643 84.729 199.643 102.671Z" stroke="#D5ED9F" stroke-opacity="0.3" stroke-width="11"/>
<ellipse cx="205.783" cy="117.614" rx="33.6975" ry="67.395" transform="rotate(45 205.783 117.614)" fill="#F44242"/>
<path d="M225.722 137.552C213.035 150.239 199.162 158.953 187.195 162.942C174.879 167.048 166.33 165.693 162.017 161.38C157.704 157.067 156.349 148.518 160.455 136.202C164.444 124.235 173.158 110.362 185.845 97.6752C198.531 84.9883 212.404 76.2742 224.371 72.2853C236.687 68.18 245.236 69.5342 249.55 73.8474C253.863 78.1606 255.217 86.71 251.112 99.0258C247.123 110.993 238.409 124.866 225.722 137.552Z" stroke="#D5ED9F" stroke-opacity="0.3" stroke-width="11"/>
<ellipse cx="33.6975" cy="67.395" rx="33.6975" ry="67.395" transform="matrix(1 0 0 -1 138.344 271.319)" fill="#F44242"/>
<path d="M200.239 203.924C200.239 185.982 196.591 170.011 190.95 158.728C185.144 147.117 178.141 142.029 172.041 142.029C165.941 142.029 158.939 147.117 153.133 158.728C147.492 170.011 143.844 185.982 143.844 203.924C143.844 221.866 147.492 237.837 153.133 249.12C158.939 260.731 165.941 265.819 172.041 265.819C178.141 265.819 185.144 260.731 190.95 249.12C196.591 237.837 200.239 221.866 200.239 203.924Z" stroke="#D5ED9F" stroke-opacity="0.3" stroke-width="11"/>
<ellipse cx="33.6975" cy="67.395" rx="33.6975" ry="67.395" transform="matrix(0.707107 -0.707107 -0.707107 -0.707107 229.611 260.536)" fill="#F44242"/>
<path d="M225.722 169.114C213.035 156.427 199.162 147.713 187.195 143.724C174.879 139.619 166.33 140.973 162.017 145.286C157.704 149.599 156.349 158.149 160.455 170.465C164.444 182.431 173.158 196.304 185.845 208.991C198.531 221.678 212.404 230.392 224.371 234.381C236.687 238.486 245.236 237.132 249.55 232.819C253.863 228.506 255.217 219.956 251.112 207.641C247.123 195.674 238.409 181.801 225.722 169.114Z" stroke="#D5ED9F" stroke-opacity="0.3" stroke-width="11"/>
<ellipse cx="33.6975" cy="67.395" rx="33.6975" ry="67.395" transform="matrix(-1 0 0 1 156.54 35.3474)" fill="#F44242"/>
<path d="M94.6453 102.742C94.6453 120.684 98.2932 136.656 103.934 147.938C109.74 159.55 116.743 164.637 122.843 164.637C128.943 164.637 135.946 159.55 141.751 147.938C147.392 136.656 151.04 120.684 151.04 102.742C151.04 84.8005 147.392 68.8291 141.751 57.5466C135.946 45.9352 128.943 40.8474 122.843 40.8474C116.743 40.8474 109.74 45.9352 103.934 57.5466C98.2932 68.8291 94.6453 84.8005 94.6453 102.742Z" stroke="#D5ED9F" stroke-opacity="0.3" stroke-width="11"/>
<ellipse cx="33.6975" cy="67.395" rx="33.6975" ry="67.395" transform="matrix(-0.707107 0.707107 0.707107 0.707107 65.2731 46.1306)" fill="#F44242"/>
<path d="M69.1622 137.552C81.8491 150.239 95.722 158.953 107.689 162.942C120.005 167.048 128.554 165.693 132.867 161.38C137.18 157.067 138.535 148.518 134.429 136.202C130.44 124.235 121.726 110.362 109.04 97.6752C96.3527 84.9883 82.4797 76.2742 70.5128 72.2853C58.1971 68.18 49.6476 69.5342 45.3345 73.8474C41.0213 78.1606 39.6671 86.71 43.7723 99.0258C47.7613 110.993 56.4754 124.866 69.1622 137.552Z" stroke="#D5ED9F" stroke-opacity="0.3" stroke-width="11"/>
<ellipse cx="122.843" cy="203.924" rx="33.6975" ry="67.395" transform="rotate(-180 122.843 203.924)" fill="#F44242"/>
<path d="M94.6453 203.924C94.6453 185.982 98.2932 170.011 103.934 158.728C109.74 147.117 116.743 142.029 122.843 142.029C128.943 142.029 135.946 147.117 141.751 158.728C147.392 170.011 151.04 185.982 151.04 203.924C151.04 221.866 147.392 237.837 141.751 249.12C135.946 260.731 128.943 265.819 122.843 265.819C116.743 265.819 109.74 260.731 103.934 249.12C98.2932 237.837 94.6453 221.866 94.6453 203.924Z" stroke="#D5ED9F" stroke-opacity="0.3" stroke-width="11"/>
<ellipse cx="89.1009" cy="189.053" rx="33.6975" ry="67.395" transform="rotate(-135 89.1009 189.053)" fill="#F44242"/>
<path d="M69.1622 169.114C81.8491 156.427 95.722 147.713 107.689 143.724C120.005 139.619 128.554 140.973 132.867 145.286C137.18 149.599 138.535 158.149 134.429 170.465C130.44 182.431 121.726 196.304 109.04 208.991C96.3527 221.678 82.4797 230.392 70.5128 234.381C58.1971 238.486 49.6476 237.132 45.3345 232.819C41.0213 228.506 39.6671 219.956 43.7723 207.641C47.7613 195.674 56.4754 181.801 69.1622 169.114Z" stroke="#D5ED9F" stroke-opacity="0.3" stroke-width="11"/>
<circle cx="148.364" cy="151.267" r="33.6975" fill="#F4C542"/>
<circle cx="148.364" cy="151.267" r="28.1975" stroke="#D5ED9F" stroke-opacity="0.3" stroke-width="11"/>
</g>
<defs>
<filter id="filter0_d_12_24" x="0.808731" y="0.275879" width="293.267" height="306.043" filterUnits="userSpaceOnUse" color-interpolation-filters="sRGB">
<feFlood flood-opacity="0" result="BackgroundImageFix"/>
<feColorMatrix in="SourceAlpha" type="matrix" values="0 0 0 0 0 0 0 0 0 0 0 0 0 0 0 0 0 0 127 0" result="hardAlpha"/>
<feMorphology radius="5" operator="dilate" in="SourceAlpha" result="effect1_dropShadow_12_24"/>
<feOffset/>
<feGaussianBlur stdDeviation="15"/>
<feComposite in2="hardAlpha" operator="out"/>
<feColorMatrix type="matrix" values="0 0 0 0 0 0 0 0 0 0 0 0 0 0 0 0 0 0 0.25 0"/>
<feBlend mode="normal" in2="BackgroundImageFix" result="effect1_dropShadow_12_24"/>
<feBlend mode="normal" in="SourceGraphic" in2="effect1_dropShadow_12_24" result="shape"/>
</filter>
</defs>
</svg>
