<svg width="324" height="313" viewBox="0 0 324 313" fill="none" xmlns="http://www.w3.org/2000/svg">
<g filter="url(#filter0_d_12_23)">
<ellipse cx="198.719" cy="114.066" rx="33.6975" ry="67.395" transform="rotate(15 198.719 114.066)" fill="#4285F4"/>
<path d="M225.955 121.364C221.312 138.695 213.654 153.178 205.285 162.616C196.672 172.329 188.591 175.431 182.699 173.852C176.807 172.274 171.36 165.547 168.757 152.828C166.228 140.47 166.838 124.099 171.482 106.768C176.126 89.4378 183.783 74.9547 192.152 65.5168C200.765 55.8036 208.846 52.7017 214.738 54.2804C220.63 55.8591 226.078 62.5861 228.68 75.3045C231.209 87.6625 230.599 104.034 225.955 121.364Z" stroke="#D5ED9F" stroke-opacity="0.3" stroke-width="11"/>
<ellipse cx="227.462" cy="137.164" rx="33.6975" ry="67.395" transform="rotate(60 227.462 137.164)" fill="#4285F4"/>
<path d="M241.561 161.584C226.023 170.555 210.367 175.381 197.775 176.137C184.817 176.915 176.909 173.394 173.859 168.112C170.809 162.829 171.714 154.221 178.867 143.387C185.817 132.86 197.825 121.715 213.363 112.744C228.901 103.773 244.557 98.9469 257.148 98.1911C270.107 97.4133 278.015 100.934 281.065 106.217C284.115 111.499 283.21 120.108 276.057 130.941C269.107 141.468 257.099 152.613 241.561 161.584Z" stroke="#D5ED9F" stroke-opacity="0.3" stroke-width="11"/>
<ellipse cx="33.6975" cy="67.395" rx="33.6975" ry="67.395" transform="matrix(0.965926 0.258819 0.258819 -0.965926 122.538 268.177)" fill="#4285F4"/>
<path d="M199.768 219.098C204.411 201.768 205.021 185.396 202.493 173.038C199.89 160.32 194.442 153.593 188.55 152.014C182.659 150.436 174.577 153.538 165.964 163.251C157.595 172.689 149.938 187.172 145.294 204.502C140.65 221.833 140.04 238.204 142.569 250.562C145.172 263.281 150.619 270.008 156.511 271.586C162.403 273.165 170.484 270.063 179.097 260.35C187.467 250.912 195.124 236.429 199.768 219.098Z" stroke="#D5ED9F" stroke-opacity="0.3" stroke-width="11"/>
<ellipse cx="33.6975" cy="67.395" rx="33.6975" ry="67.395" transform="matrix(0.866025 -0.5 -0.5 -0.866025 213.487 281.383)" fill="#4285F4"/>
<path d="M233.392 192.07C224.421 176.532 213.276 164.524 202.749 157.574C191.916 150.421 183.307 149.516 178.025 152.566C172.742 155.616 169.221 163.524 169.999 176.482C170.755 189.074 175.581 204.729 184.552 220.267C193.523 235.806 204.668 247.813 215.195 254.764C226.029 261.917 234.637 262.821 239.92 259.771C245.202 256.722 248.723 248.814 247.945 235.855C247.189 223.264 242.363 207.608 233.392 192.07Z" stroke="#D5ED9F" stroke-opacity="0.3" stroke-width="11"/>
<ellipse cx="33.6975" cy="67.395" rx="33.6975" ry="67.395" transform="matrix(-0.965926 -0.258819 -0.258819 0.965926 201.189 44.9559)" fill="#4285F4"/>
<path d="M123.96 94.0349C119.316 111.365 118.706 127.737 121.235 140.095C123.838 152.813 129.285 159.54 135.177 161.119C141.069 162.698 149.15 159.596 157.763 149.883C166.132 140.445 173.79 125.962 178.433 108.631C183.077 91.3004 183.687 74.929 181.158 62.571C178.556 49.8526 173.108 43.1257 167.216 41.5469C161.324 39.9682 153.243 43.0701 144.63 52.7833C136.261 62.2212 128.604 76.7043 123.96 94.0349Z" stroke="#D5ED9F" stroke-opacity="0.3" stroke-width="11"/>
<ellipse cx="33.6975" cy="67.395" rx="33.6975" ry="67.395" transform="matrix(-0.866025 0.5 0.5 0.866025 110.241 31.75)" fill="#4285F4"/>
<path d="M90.3356 121.063C99.3065 136.601 110.451 148.609 120.978 155.559C131.812 162.712 140.42 163.617 145.703 160.567C150.985 157.517 154.506 149.61 153.728 136.651C152.973 124.06 148.146 108.404 139.175 92.8658C130.204 77.3276 119.059 65.3199 108.533 58.3696C97.699 51.2167 89.0904 50.312 83.8078 53.3619C78.5253 56.4117 75.0045 64.3194 75.7823 77.278C76.5381 89.8695 81.3646 105.525 90.3356 121.063Z" stroke="#D5ED9F" stroke-opacity="0.3" stroke-width="11"/>
<ellipse cx="125.009" cy="199.067" rx="33.6975" ry="67.395" transform="rotate(-165 125.009 199.067)" fill="#4285F4"/>
<path d="M97.7722 191.769C102.416 174.438 110.073 159.955 118.442 150.517C127.056 140.804 135.137 137.702 141.029 139.281C146.92 140.86 152.368 147.586 154.971 160.305C157.499 172.663 156.889 189.034 152.246 206.365C147.602 223.695 139.945 238.179 131.575 247.616C122.962 257.33 114.881 260.432 108.989 258.853C103.097 257.274 97.6499 250.547 95.0473 237.829C92.5184 225.471 93.1285 209.099 97.7722 191.769Z" stroke="#D5ED9F" stroke-opacity="0.3" stroke-width="11"/>
<ellipse cx="96.2656" cy="175.969" rx="33.6975" ry="67.395" transform="rotate(-120 96.2656 175.969)" fill="#4285F4"/>
<path d="M82.1668 151.549C97.705 142.578 113.361 137.752 125.952 136.996C138.911 136.218 146.818 139.739 149.868 145.022C152.918 150.304 152.013 158.913 144.861 169.746C137.91 180.273 125.903 191.418 110.364 200.389C94.8262 209.36 79.1706 214.186 66.5791 214.942C53.6204 215.72 45.7128 212.199 42.6629 206.917C39.613 201.634 40.5177 193.025 47.6707 182.192C54.6209 171.665 66.6287 160.52 82.1668 151.549Z" stroke="#D5ED9F" stroke-opacity="0.3" stroke-width="11"/>
<circle cx="163.289" cy="154.809" r="33.6975" transform="rotate(15 163.289 154.809)" fill="#F4C542"/>
<circle cx="163.289" cy="154.809" r="28.1975" transform="rotate(15 163.289 154.809)" stroke="#D5ED9F" stroke-opacity="0.3" stroke-width="11"/>
</g>
<defs>
<filter id="filter0_d_12_23" x="0.500854" y="0.64505" width="322.726" height="311.843" filterUnits="userSpaceOnUse" color-interpolation-filters="sRGB">
<feFlood flood-opacity="0" result="BackgroundImageFix"/>
<feColorMatrix in="SourceAlpha" type="matrix" values="0 0 0 0 0 0 0 0 0 0 0 0 0 0 0 0 0 0 127 0" result="hardAlpha"/>
<feMorphology radius="5" operator="dilate" in="SourceAlpha" result="effect1_dropShadow_12_23"/>
<feOffset/>
<feGaussianBlur stdDeviation="15"/>
<feComposite in2="hardAlpha" operator="out"/>
<feColorMatrix type="matrix" values="0 0 0 0 0 0 0 0 0 0 0 0 0 0 0 0 0 0 0.25 0"/>
<feBlend mode="normal" in2="BackgroundImageFix" result="effect1_dropShadow_12_23"/>
<feBlend mode="normal" in="SourceGraphic" in2="effect1_dropShadow_12_23" result="shape"/>
</filter>
</defs>
</svg>
