<svg width="357" height="150" viewBox="0 0 357 150" fill="none" xmlns="http://www.w3.org/2000/svg">
<rect width="357" height="150" rx="40" fill="#194341"/>
<path d="M288.857 92.452C285.92 92.452 283.494 91.957 281.58 90.967C279.699 89.944 278.297 88.492 277.373 86.611C276.482 84.73 276.036 82.519 276.036 79.978V78.6415C276.036 76.0015 276.564 73.7575 277.62 71.9095C278.709 70.0285 280.227 68.6095 282.174 67.6525C284.154 66.6625 286.481 66.1675 289.154 66.1675C291.629 66.1675 293.757 66.6295 295.539 67.5535C297.354 68.4445 298.74 69.715 299.697 71.365C300.687 72.982 301.182 74.929 301.182 77.206V78.77C301.182 79.8746 300.287 80.77 299.182 80.77H285.639C284.901 80.77 284.303 81.3684 284.303 82.1065C284.303 83.9215 284.748 85.2745 285.639 86.1655C286.53 87.0565 287.702 87.502 289.154 87.502C290.771 87.502 291.975 87.1225 292.767 86.3635C293.193 85.9375 293.505 85.392 293.702 84.7272C294.015 83.6681 294.851 82.75 295.955 82.75H299.182C300.287 82.75 301.209 83.6539 301.004 84.7392C300.774 85.9542 300.322 87.0401 299.648 87.997C298.658 89.449 297.239 90.5545 295.391 91.3135C293.576 92.0725 291.398 92.452 288.857 92.452ZM284.303 76.0675C284.303 76.2862 284.48 76.4635 284.699 76.4635H292.916C293.271 76.4635 293.559 76.1754 293.559 75.82C293.559 74.896 293.361 74.0875 292.965 73.3945C292.569 72.6685 292.025 72.1075 291.332 71.7115C290.672 71.3155 289.896 71.1175 289.005 71.1175C288.048 71.1175 287.223 71.3485 286.53 71.8105C285.837 72.2395 285.293 72.8335 284.897 73.5925C284.501 74.3515 284.303 75.1765 284.303 76.0675Z" fill="#D74C36"/>
<path d="M255.991 91.9571C255.142 91.9571 254.385 91.4202 254.104 90.6183L246.644 69.3238C246.189 68.0234 247.154 66.6626 248.532 66.6626H252.562C253.435 66.6626 254.207 67.2287 254.469 68.0612L259.181 83.0043C259.208 83.0887 259.286 83.1461 259.374 83.1461C259.463 83.1461 259.541 83.089 259.568 83.0048L264.326 68.056C264.59 67.2261 265.361 66.6626 266.232 66.6626H269.557C270.94 66.6626 271.905 68.0314 271.441 69.3336L263.857 90.6281C263.573 91.425 262.819 91.9571 261.973 91.9571H255.991Z" fill="#D74C36"/>
<path d="M224.12 91.957C223.015 91.957 222.12 91.0616 222.12 89.957V74.355C222.12 73.2505 221.225 72.355 220.12 72.355H218.873C217.768 72.355 216.873 71.4596 216.873 70.355V68.6625C216.873 67.558 217.768 66.6625 218.873 66.6625H227.781C228.165 66.6625 228.487 66.9519 228.528 67.3337C228.609 68.0797 229.822 68.3803 230.402 67.9045C230.684 67.6733 230.992 67.4573 231.327 67.2565C232.482 66.5305 233.917 66.1675 235.633 66.1675C237.91 66.1675 239.676 66.8275 240.93 68.1475C242.217 69.4675 242.86 71.2165 242.86 73.3945C242.86 73.9225 242.844 74.4505 242.811 74.9785C242.811 75.8999 241.991 76.5625 241.07 76.5625H237.564C236.826 76.5625 236.227 75.9642 236.227 75.226C236.227 74.632 236.095 74.0875 235.831 73.5925C235.6 73.0645 235.237 72.652 234.742 72.355C234.28 72.058 233.703 71.9095 233.01 71.9095C232.317 71.9095 231.723 72.091 231.228 72.454C230.733 72.817 230.353 73.2955 230.089 73.8895C229.825 74.4505 229.693 75.0775 229.693 75.7705V89.957C229.693 91.0616 228.798 91.957 227.693 91.957H224.12ZM218.774 91.957C217.669 91.957 216.774 91.0616 216.774 89.957V88.3635C216.774 87.259 217.669 86.3635 218.774 86.3635H237.247C238.352 86.3635 239.247 87.259 239.247 88.3635V89.957C239.247 91.0616 238.352 91.957 237.247 91.957H218.774Z" fill="#D74C36"/>
<path d="M187.739 91.957C186.418 91.957 185.46 90.6992 185.811 89.4258L194.064 59.4688C194.303 58.6011 195.092 58 195.992 58H203.295C204.193 58 204.981 58.5985 205.222 59.4636L213.563 89.4206C213.917 90.6952 212.959 91.957 211.636 91.957H207.625C206.702 91.957 205.899 91.3251 205.681 90.4279L199.497 64.9011C199.48 64.8309 199.417 64.7815 199.345 64.7815C199.272 64.7815 199.209 64.8318 199.193 64.9027L193.293 90.4078C193.083 91.3147 192.275 91.957 191.344 91.957H187.739ZM193.449 85.225C192.345 85.225 191.449 84.3296 191.449 83.225V81.384C191.449 80.2794 192.345 79.384 193.449 79.384H205.586C206.691 79.384 207.586 80.2794 207.586 81.384V83.225C207.586 84.3296 206.691 85.225 205.586 85.225H193.449Z" fill="#D74C36"/>
<g filter="url(#filter0_i_153_272)">
<path d="M84.2698 25C74.2015 25 64.5082 28.6371 56.9465 35.1837C55.6938 36.2682 55.7005 38.177 56.872 39.3485L69.2524 51.7289C70.424 52.9005 72.312 52.8763 73.6596 51.9124C76.7345 49.713 80.44 48.5085 84.2698 48.5085C93.3359 48.5085 101.025 55.1679 102.321 64.141L106.931 96.0814C109.286 112.405 123.275 124.519 139.767 124.519C148.567 124.519 157.005 121.024 163.227 114.802L164.235 113.794C165.406 112.623 165.406 110.723 164.235 109.552L151.854 97.1714C150.683 95.9998 148.783 95.9998 147.612 97.1714L146.604 98.1788C144.791 99.9921 142.332 101.011 139.767 101.011C134.961 101.011 130.884 97.4803 130.198 92.7233L125.588 60.7828C122.624 40.2435 105.022 25 84.2698 25Z" fill="#D74C36"/>
<path fill-rule="evenodd" clip-rule="evenodd" d="M62.1742 118.897C60.5738 118.468 59.6241 116.823 60.0529 115.223L73.4169 65.3475C75.0971 59.077 81.5424 55.3558 87.8129 57.036C94.0833 58.7162 97.8045 65.1615 96.1244 71.432L82.7604 121.307C82.3315 122.907 80.6865 123.857 79.0861 123.428L62.1742 118.897Z" fill="#D74C36"/>
</g>
<path d="M57.2737 35.5617C64.7449 29.0935 74.3221 25.5 84.2698 25.5C104.773 25.5 122.164 40.5609 125.093 60.8543L129.703 92.7947C130.425 97.7977 134.713 101.511 139.767 101.511C142.464 101.511 145.051 100.439 146.958 98.5324L147.965 97.525C148.941 96.5486 150.524 96.5486 151.501 97.525L163.881 109.905C164.857 110.882 164.857 112.465 163.881 113.441L162.874 114.448C156.745 120.576 148.434 124.019 139.767 124.019C123.524 124.019 109.746 112.087 107.425 96.01L102.815 64.0696C101.485 54.8505 93.5844 48.0085 84.2698 48.0085C80.335 48.0085 76.5279 49.2461 73.3687 51.5057C72.1782 52.3572 70.5706 52.34 69.606 51.3753L57.2256 38.995C56.242 38.0113 56.2587 36.4405 57.2737 35.5617ZM62.3036 118.414C60.97 118.057 60.1785 116.686 60.5359 115.352L73.8999 65.4769C75.5086 59.4732 81.6797 55.9103 87.6834 57.519C93.6872 59.1277 97.2501 65.2988 95.6414 71.3026L82.2774 121.178C81.92 122.511 80.5492 123.303 79.2155 122.945L62.3036 118.414Z" stroke="white" stroke-opacity="0.1"/>
<defs>
<filter id="filter0_i_153_272" x="56" y="25" width="109.113" height="99.5192" filterUnits="userSpaceOnUse" color-interpolation-filters="sRGB">
<feFlood flood-opacity="0" result="BackgroundImageFix"/>
<feBlend mode="normal" in="SourceGraphic" in2="BackgroundImageFix" result="shape"/>
<feColorMatrix in="SourceAlpha" type="matrix" values="0 0 0 0 0 0 0 0 0 0 0 0 0 0 0 0 0 0 127 0" result="hardAlpha"/>
<feOffset/>
<feGaussianBlur stdDeviation="5"/>
<feComposite in2="hardAlpha" operator="arithmetic" k2="-1" k3="1"/>
<feColorMatrix type="matrix" values="0 0 0 0 1 0 0 0 0 1 0 0 0 0 1 0 0 0 0.3 0"/>
<feBlend mode="normal" in2="shape" result="effect1_innerShadow_153_272"/>
</filter>
</defs>
</svg>
