<svg width="150" height="145" viewBox="0 0 120 115" fill="none" xmlns="http://www.w3.org/2000/svg">
<g filter="url(#filter0_d_81_18)">
<path fill-rule="evenodd" clip-rule="evenodd" d="M40.2689 39.4329C39.1676 40.0034 39.0531 41.4685 39.936 42.3397L41.1622 43.5497C41.8117 44.1906 42.8063 44.2923 43.6471 43.9375C44.9956 43.3685 46.4592 43.0669 47.9543 43.0669C53.3999 43.0669 58.0188 47.014 58.7967 52.3324L60.9091 66.775C61.8043 72.895 67.1192 77.437 73.3855 77.437C75.8205 77.437 78.1828 76.7418 80.1999 75.4629C81.1716 74.8468 81.1966 73.501 80.3777 72.6929L79.231 71.5614C78.4967 70.8369 77.34 70.8213 76.4063 71.2598C75.4714 71.699 74.4407 71.9331 73.3855 71.9331C69.8919 71.9331 66.9287 69.4008 66.4296 65.9888L64.3172 51.5462C63.1432 43.5199 56.1726 37.563 47.9543 37.563C45.2522 37.563 42.6182 38.2158 40.2689 39.4329ZM82.7607 73.3382L82.7592 73.3397C82.7597 73.3392 82.7602 73.3387 82.7607 73.3382ZM40.2102 73.3513C39.9193 74.4223 40.5561 75.5253 41.629 75.809L43.1495 76.211C44.2123 76.492 45.3027 75.8625 45.5908 74.8015L50.8777 55.332C51.2763 53.8639 50.3934 52.3549 48.9056 51.9615C47.4179 51.5682 45.8887 52.4394 45.49 53.9075L40.2102 73.3513ZM35.4337 39.6048C38.8988 36.6446 43.3406 35 47.9543 35C57.4638 35 65.5295 41.8927 66.8879 51.1801L69.0004 65.6227C69.315 67.7737 71.1831 69.3701 73.3855 69.3701C74.5606 69.3701 75.6875 68.9095 76.5184 68.0896L76.98 67.634C77.5169 67.1043 78.3873 67.1043 78.9242 67.634L84.5974 73.2321C85.1342 73.7619 85.1342 74.6208 84.5974 75.1505L84.1357 75.6061C81.2846 78.4195 77.4176 80 73.3855 80C65.828 80 59.418 74.5221 58.3384 67.1412L56.2259 52.6985C55.6324 48.6412 52.1088 45.6299 47.9543 45.6299C46.1994 45.6299 44.5014 46.1746 43.0923 47.1691C42.4748 47.6049 41.6096 47.6159 41.0728 47.0861L35.3996 41.488C34.8627 40.9583 34.8597 40.0952 35.4337 39.6048ZM36.8572 75.7963C36.6607 76.52 37.0959 77.2638 37.8293 77.4577L45.579 79.5068C46.3123 79.7007 47.0661 79.2712 47.2626 78.5476L53.3866 55.9953C54.1565 53.16 52.4513 50.2456 49.5779 49.4859C46.7045 48.7261 43.751 50.4087 42.9811 53.2441L36.8572 75.7963Z" fill="#00712D"/>
</g>
<defs>
<filter id="filter0_d_81_18" x="0" y="0" width="150" height="145" filterUnits="userSpaceOnUse" color-interpolation-filters="sRGB">
<feFlood flood-opacity="0" result="BackgroundImageFix"/>
<feColorMatrix in="SourceAlpha" type="matrix" values="0 0 0 0 0 0 0 0 0 0 0 0 0 0 0 0 0 0 127 0" result="hardAlpha"/>
<feMorphology radius="5" operator="dilate" in="SourceAlpha" result="effect1_dropShadow_81_18"/>
<feOffset/>
<feGaussianBlur stdDeviation="15"/>
<feComposite in2="hardAlpha" operator="out"/>
<feColorMatrix type="matrix" values="0 0 0 0 0 0 0 0 0 0 0 0 0 0 0 0 0 0 0.1 0"/>
<feBlend mode="normal" in2="BackgroundImageFix" result="effect1_dropShadow_81_18"/>
<feBlend mode="normal" in="SourceGraphic" in2="effect1_dropShadow_81_18" result="shape"/>
</filter>
</defs>
</svg>
