<svg width="156" height="135" viewBox="0 0 156 135" fill="none" xmlns="http://www.w3.org/2000/svg">
<g filter="url(#filter0_d_6_8907)">
<path fill-rule="evenodd" clip-rule="evenodd" d="M51.3687 35.6675L52.6401 36.9389C55.0502 35.8874 57.6732 35.3295 60.3539 35.3295C69.9436 35.3295 78.0774 42.3736 79.4473 51.865L82.5419 73.3062C83.6229 80.7959 90.0413 86.3544 97.6086 86.3544C100.255 86.3544 102.831 85.6652 105.096 84.386L103.854 83.1442C101.942 84.1379 99.8029 84.6705 97.6086 84.6705C90.8784 84.6705 85.17 79.7269 84.2085 73.0657L81.114 51.6245C79.6245 41.3046 70.7807 33.6456 60.3539 33.6456C57.2162 33.6456 54.1509 34.3486 51.3687 35.6675ZM37.838 28.6119C44.0694 23.217 52.057 20.2199 60.3539 20.2199C77.4546 20.2199 91.9591 32.7812 94.402 49.7066L97.4966 71.1478C97.4997 71.1693 97.5044 71.1791 97.5078 71.1853C97.5127 71.1941 97.5213 71.2057 97.5345 71.2171C97.5477 71.2286 97.5604 71.2354 97.5699 71.239C97.5765 71.2415 97.5869 71.2448 97.6086 71.2448C97.6387 71.2448 97.6675 71.2328 97.6887 71.2116L98.3648 70.5356C98.3646 70.5358 98.3649 70.5355 98.3648 70.5356C101.642 67.2589 106.955 67.2585 110.232 70.5354C110.232 70.5353 110.232 70.5355 110.232 70.5354L118.543 78.8468C121.819 82.1237 121.819 87.4353 118.543 90.712L117.866 91.3895C112.493 96.7617 105.207 99.7801 97.6086 99.7801C84.1103 99.7801 72.5544 90.3822 69.6532 77.3994L65.5005 92.8972C64.301 97.373 59.7002 100.03 55.2236 98.8306M37.838 28.6119C33.9846 31.948 34.2524 37.5379 37.4526 40.7383L45.7633 49.0489C45.7632 49.0488 45.7634 49.049 45.7633 49.0489C46.2985 49.5841 46.8692 50.0229 47.4619 50.3738C47.2467 50.9079 47.0614 51.4609 46.9086 52.0312L37.9375 85.5117C36.7382 89.9877 39.3942 94.5892 43.8709 95.7887C43.8708 95.7886 43.871 95.7887 43.8709 95.7887L55.2236 98.8306M60.9079 54.9107C60.4589 54.7904 59.9972 55.0569 59.8768 55.5061L52.2088 84.1235L53.8353 84.5593L61.5033 55.942C61.6237 55.4928 61.3571 55.0311 60.9079 54.9107ZM47.3455 82.8203C47.3454 82.8203 47.3455 82.8204 47.3455 82.8203V82.8203Z" fill="white"/>
<path d="M60.3539 26.5971C53.5952 26.5971 47.0882 29.0386 42.0121 33.4332C41.1712 34.1613 41.1757 35.4426 41.9621 36.229L50.2729 44.5398C51.0594 45.3263 52.3268 45.31 53.2314 44.663C55.2955 43.1866 57.783 42.378 60.3539 42.378C66.4398 42.378 71.6017 46.8484 72.4711 52.8719L75.5657 74.313C77.1472 85.2706 86.5375 93.4029 97.6086 93.4029C103.515 93.4029 109.18 91.0565 113.357 86.8798L114.033 86.2035C114.819 85.417 114.819 84.1419 114.033 83.3555L105.722 75.0447C104.936 74.2583 103.661 74.2583 102.874 75.0447L102.198 75.721C100.981 76.9382 99.33 77.622 97.6086 77.622C94.3822 77.622 91.6457 75.2521 91.1848 72.0588L88.0901 50.6176C86.1002 36.8298 74.2845 26.5971 60.3539 26.5971Z" fill="#D74C36"/>
<path fill-rule="evenodd" clip-rule="evenodd" d="M45.5214 89.6287C44.4471 89.3408 43.8096 88.2366 44.0974 87.1623L53.0685 53.6818C54.1964 49.4725 58.523 46.9745 62.7323 48.1024C66.9415 49.2303 69.4395 53.5569 68.3117 57.7662L59.3406 91.2467C59.0527 92.321 57.9485 92.9585 56.8741 92.6707L45.5214 89.6287Z" fill="#D74C36"/>
<path fill-rule="evenodd" clip-rule="evenodd" d="M60.3539 27.2684C53.7571 27.2684 47.4059 29.6514 42.4515 33.9408C41.9287 34.3934 41.9035 35.221 42.4368 35.7544C42.4368 35.7544 42.4368 35.7544 42.4368 35.7544L50.7476 44.0651C51.2571 44.5746 52.1482 44.6124 52.8409 44.117C55.0182 42.5597 57.642 41.7067 60.3539 41.7067C66.7735 41.7067 72.2184 46.4222 73.1355 52.776L76.2301 74.2172C77.7639 84.8445 86.8712 92.7316 97.6086 92.7316C103.337 92.7316 108.831 90.4559 112.882 86.4052C112.882 86.4052 112.882 86.4052 112.882 86.4052L113.558 85.7289C114.083 85.2046 114.083 84.3545 113.558 83.8302C113.558 83.8301 113.558 83.8302 113.558 83.8302L105.248 75.5194C104.723 74.9951 103.873 74.9951 103.349 75.5194L102.673 76.1957C101.33 77.5388 99.508 78.2933 97.6086 78.2933C94.0485 78.2933 91.0289 75.6782 90.5203 72.1547L87.4258 50.7135C85.4834 37.256 73.9508 27.2684 60.3539 27.2684ZM42.0121 33.4332C47.0882 29.0386 53.5952 26.5971 60.3539 26.5971C74.2845 26.5971 86.1002 36.8298 88.0901 50.6176L91.1848 72.0588C91.6457 75.2521 94.3822 77.622 97.6086 77.622C99.33 77.622 100.981 76.9382 102.198 75.721L102.874 75.0447C103.661 74.2583 104.936 74.2583 105.722 75.0447L114.033 83.3555C114.819 84.1419 114.819 85.417 114.033 86.2035L113.357 86.8798C109.18 91.0565 103.515 93.4029 97.6086 93.4029C86.5375 93.4029 77.1472 85.2706 75.5657 74.313L72.4711 52.8719C71.6017 46.8484 66.4398 42.378 60.3539 42.378C57.783 42.378 55.2955 43.1866 53.2314 44.663C52.3257 45.3108 51.0585 45.3255 50.2729 44.5398C50.2729 44.5398 50.2729 44.5398 50.2729 44.5398L41.9621 36.229C41.1748 35.4417 41.1721 34.1605 42.0121 33.4332ZM62.5585 48.7508C58.7074 47.7189 54.7488 50.0044 53.7169 53.8555L44.7458 87.336C44.5539 88.0522 44.979 88.7884 45.6952 88.9803L57.0479 92.0223C57.7641 92.2142 58.5003 91.7891 58.6922 91.0729L67.6633 57.5925C68.6952 53.7413 66.4097 49.7828 62.5585 48.7508ZM53.0685 53.6818C54.1964 49.4725 58.523 46.9745 62.7323 48.1024C66.9415 49.2303 69.4395 53.5569 68.3117 57.7662L59.3406 91.2467C59.0527 92.321 57.9485 92.9585 56.8741 92.6707L45.5214 89.6287C44.4471 89.3408 43.8096 88.2366 44.0974 87.1623L53.0685 53.6818Z" fill="white"/>
</g>
<defs>
<filter id="filter0_d_6_8907" x="0" y="-14.7801" width="156" height="149.56" filterUnits="userSpaceOnUse" color-interpolation-filters="sRGB">
<feFlood flood-opacity="0" result="BackgroundImageFix"/>
<feColorMatrix in="SourceAlpha" type="matrix" values="0 0 0 0 0 0 0 0 0 0 0 0 0 0 0 0 0 0 127 0" result="hardAlpha"/>
<feMorphology radius="5" operator="dilate" in="SourceAlpha" result="effect1_dropShadow_6_8907"/>
<feOffset/>
<feGaussianBlur stdDeviation="15"/>
<feComposite in2="hardAlpha" operator="out"/>
<feColorMatrix type="matrix" values="0 0 0 0 0 0 0 0 0 0 0 0 0 0 0 0 0 0 0.2 0"/>
<feBlend mode="normal" in2="BackgroundImageFix" result="effect1_dropShadow_6_8907"/>
<feBlend mode="normal" in="SourceGraphic" in2="effect1_dropShadow_6_8907" result="shape"/>
</filter>
</defs>
</svg>
