<svg width="35" height="84" viewBox="0 0 35 84" fill="none" xmlns="http://www.w3.org/2000/svg">
<path fill-rule="evenodd" clip-rule="evenodd" d="M17.5 0C7.76678 0 0 8.16034 0 18.0714V30.9286C0 40.8397 7.76679 49 17.5 49C27.2332 49 35 40.8397 35 30.9286V18.0714C35 8.16034 27.2332 0 17.5 0ZM4 18.0714C4 10.2318 10.1111 4 17.5 4C24.8889 4 31 10.2318 31 18.0714V30.9286C31 38.7682 24.8889 45 17.5 45C10.1111 45 4 38.7682 4 30.9286V18.0714ZM19.5 32C19.5 30.8954 18.6046 30 17.5 30C16.3954 30 15.5 30.8954 15.5 32V39.5C15.5 40.6046 16.3954 41.5 17.5 41.5C18.6046 41.5 19.5 40.6046 19.5 39.5V32Z" fill="#FFFBE6"/>
<path d="M19.5 62C19.5 60.8954 18.6046 60 17.5 60C16.3954 60 15.5 60.8954 15.5 62L15.5 77.1716L12.5503 74.2218C11.7692 73.4408 10.5029 73.4408 9.72183 74.2218C8.94078 75.0029 8.94078 76.2692 9.72183 77.0503L16.0858 83.4142C16.8668 84.1953 18.1332 84.1953 18.9142 83.4142L25.2782 77.0503C26.0592 76.2692 26.0592 75.0029 25.2782 74.2218C24.4971 73.4408 23.2308 73.4408 22.4497 74.2218L19.5 77.1716V62Z" fill="#FFFBE6" fill-opacity="0.8"/>
</svg>
