<svg width="32" height="32" viewBox="0 0 32 32" fill="currentColor" xmlns="http://www.w3.org/2000/svg">
<path fill-rule="evenodd" clip-rule="evenodd" d="M18.5865 2.40165C17.4268 0.428157 14.5731 0.428157 13.4135 2.40165L11.9905 4.82323C11.3739 5.87254 10.1845 6.44534 8.97965 6.27318L6.19919 5.87587C3.9332 5.55208 2.15397 7.78317 2.97387 9.92029L3.97993 12.5426C4.41588 13.6789 4.12211 14.966 3.23631 15.8007L1.19209 17.7268C-0.473875 19.2965 0.161125 22.0786 2.34319 22.7701L5.02069 23.6185C6.18089 23.9862 7.00402 25.0183 7.10427 26.2313L7.33564 29.0304C7.52419 31.3116 10.0953 32.5498 11.9963 31.2749L14.3291 29.7105C15.3399 29.0327 16.6601 29.0327 17.6709 29.7105L20.0036 31.2749C21.9047 32.5498 24.4758 31.3116 24.6643 29.0304L24.8957 26.2313C24.9959 25.0183 25.8191 23.9862 26.9793 23.6185L29.6568 22.7701C31.8388 22.0786 32.4738 19.2965 30.8079 17.7268L28.7636 15.8007C27.8778 14.966 27.5841 13.6789 28.02 12.5426L29.0261 9.92029C29.846 7.78317 28.0667 5.55208 25.8008 5.87587L23.0203 6.27318C21.8155 6.44534 20.626 5.87254 20.0094 4.82323L18.5865 2.40165ZM12.9095 12.6986C12.5236 12.3035 12.5312 11.6703 12.9264 11.2845C13.3215 10.8987 13.9546 10.9062 14.3405 11.3014L18.3595 15.4175C19.2135 16.2922 19.2135 17.7078 18.3595 18.5825L14.3405 22.6986C13.9546 23.0938 13.3215 23.1013 12.9264 22.7155C12.5312 22.3297 12.5236 21.6965 12.9095 21.3014L16.9285 17.1852C16.9722 17.1404 17 17.0758 17 17C17 16.9242 16.9722 16.8596 16.9285 16.8148L12.9095 12.6986Z" fill="#D58E82"/>
</svg>
