<svg width="32" height="32" viewBox="0 0 32 32" fill="none" xmlns="http://www.w3.org/2000/svg">
<path d="M13.4135 2.40166C14.5732 0.428158 17.4268 0.428158 18.5865 2.40166L20.0095 4.82323C20.6261 5.87254 21.8155 6.44534 23.0203 6.27318L25.8008 5.87588C28.0668 5.55208 29.846 7.78317 29.0261 9.92029L28.02 12.5426C27.5841 13.6789 27.8779 14.966 28.7637 15.8007L30.8079 17.7268C32.4739 19.2965 31.8388 22.0786 29.6568 22.7701L26.9793 23.6185C25.8191 23.9862 24.996 25.0183 24.8957 26.2313L24.6643 29.0304C24.4758 31.3116 21.9047 32.5498 20.0036 31.2749L17.6709 29.7105C16.6601 29.0327 15.3399 29.0327 14.3291 29.7105L11.9964 31.2749C10.0953 32.5498 7.52422 31.3116 7.33566 29.0304L7.1043 26.2313C7.00404 25.0183 6.18092 23.9862 5.02071 23.6185L2.34322 22.7701C0.16115 22.0786 -0.47385 19.2965 1.19212 17.7268L3.23634 15.8007C4.12213 14.966 4.4159 13.6789 3.97996 12.5426L2.9739 9.92029C2.154 7.78317 3.93323 5.55208 6.19921 5.87588L8.97967 6.27318C10.1845 6.44534 11.3739 5.87254 11.9905 4.82323L13.4135 2.40166Z" fill="#F44242"/>
</svg>
