<svg width="20" height="20" viewBox="0 0 20 20" fill="none" xmlns="http://www.w3.org/2000/svg">
<path fill-rule="evenodd" clip-rule="evenodd" d="M5 10C5 9.44771 5.44772 9 6 9H9V6C9 5.44772 9.44771 5 10 5C10.5523 5 11 5.44772 11 6V9H14C14.5523 9 15 9.44771 15 10C15 10.5523 14.5523 11 14 11H11V14C11 14.5523 10.5523 15 10 15C9.44771 15 9 14.5523 9 14V11H6C5.44772 11 5 10.5523 5 10ZM7 18H13C15.3027 18 16.3944 17.5272 16.9608 16.9608C17.5272 16.3944 18 15.3027 18 13V7C18 4.69726 17.5272 3.60563 16.9608 3.03921C16.3944 2.4728 15.3027 2 13 2H7C4.69726 2 3.60563 2.4728 3.03921 3.03921C2.4728 3.60563 2 4.69726 2 7V13C2 15.3027 2.4728 16.3944 3.03921 16.9608C3.60563 17.5272 4.69726 18 7 18ZM13 20H7C2 20 0 18 0 13V7C0 2 2 0 7 0H13C18 0 20 2 20 7V13C20 18 18 20 13 20Z" fill="#B700FF" fill-opacity="0.6"/>
</svg>
