<svg width="21" height="20" viewBox="0 0 21 20" fill="none" xmlns="http://www.w3.org/2000/svg">
<path fill-rule="evenodd" clip-rule="evenodd" d="M5.5 10C5.5 9.44771 5.94772 9 6.5 9H9.5V6C9.5 5.44772 9.94771 5 10.5 5C11.0523 5 11.5 5.44772 11.5 6V9H14.5C15.0523 9 15.5 9.44771 15.5 10C15.5 10.5523 15.0523 11 14.5 11H11.5V14C11.5 14.5523 11.0523 15 10.5 15C9.94771 15 9.5 14.5523 9.5 14V11H6.5C5.94772 11 5.5 10.5523 5.5 10ZM7.5 18H13.5C15.8027 18 16.8944 17.5272 17.4608 16.9608C18.0272 16.3944 18.5 15.3027 18.5 13V7C18.5 4.69726 18.0272 3.60563 17.4608 3.03921C16.8944 2.4728 15.8027 2 13.5 2H7.5C5.19726 2 4.10563 2.4728 3.53921 3.03921C2.9728 3.60563 2.5 4.69726 2.5 7V13C2.5 15.3027 2.9728 16.3944 3.53921 16.9608C4.10563 17.5272 5.19726 18 7.5 18ZM13.5 20H7.5C2.5 20 0.5 18 0.5 13V7C0.5 2 2.5 0 7.5 0H13.5C18.5 0 20.5 2 20.5 7V13C20.5 18 18.5 20 13.5 20Z" fill="#B700FF" fill-opacity="0.6"/>
</svg>
