<svg width="8" height="19" viewBox="0 0 12 23" fill="none" xmlns="http://www.w3.org/2000/svg">
<path fill-rule="evenodd" clip-rule="evenodd" d="M0.667363 0.732643C0.911812 0.447933 1.33457 0.42078 1.61161 0.671995L10.1418 8.40692C11.9527 10.0491 11.9527 12.9509 10.1418 14.5931L1.61161 22.328C1.33457 22.5792 0.911812 22.5521 0.667363 22.2674C0.422913 21.9826 0.449335 21.5482 0.726378 21.297L9.25655 13.5621C10.4639 12.4673 10.4639 10.5327 9.25655 9.43795L0.726378 1.70302C0.449335 1.45181 0.422913 1.01735 0.667363 0.732643Z" fill="white"/>
<path fill-rule="evenodd" clip-rule="evenodd" d="M0.287997 0.406955C0.714699 -0.0900243 1.46069 -0.139769 1.94746 0.301622L10.4776 8.03655C12.5074 9.87712 12.5074 13.1229 10.4776 14.9635L1.94746 22.6984C1.46069 23.1398 0.714699 23.0901 0.287996 22.5931C-0.1319 22.104 -0.0883367 21.3608 0.390503 20.9266L8.92068 13.1917C9.90914 12.2954 9.90914 10.7047 8.92068 9.80837L0.390503 2.07344C-0.0883365 1.63924 -0.1319 0.896009 0.287997 0.406955ZM1.61161 0.671995C1.33457 0.42078 0.911812 0.447933 0.667363 0.732643C0.422913 1.01735 0.449335 1.45181 0.726378 1.70302L9.25655 9.43795C10.4639 10.5327 10.4639 12.4673 9.25655 13.5621L0.726378 21.297C0.449335 21.5482 0.422913 21.9826 0.667363 22.2674C0.911812 22.5521 1.33457 22.5792 1.61161 22.328L10.1418 14.5931C11.9527 12.9509 11.9527 10.0491 10.1418 8.40692L1.61161 0.671995Z" fill="white"/>
</svg>
