<svg width="8" height="19" viewBox="0 0 12 23" fill="none" xmlns="http://www.w3.org/2000/svg">
<path fill-rule="evenodd" clip-rule="evenodd" d="M11.3326 0.732643C11.0882 0.447933 10.6654 0.42078 10.3884 0.671995L1.85822 8.40692C0.0472574 10.0491 0.0472593 12.9509 1.85822 14.5931L10.3884 22.328C10.6654 22.5792 11.0882 22.5521 11.3326 22.2674C11.5771 21.9826 11.5507 21.5482 11.2736 21.297L2.74345 13.5621C1.53614 12.4673 1.53614 10.5327 2.74345 9.43795L11.2736 1.70302C11.5507 1.45181 11.5771 1.01735 11.3326 0.732643Z" fill="white"/>
<path fill-rule="evenodd" clip-rule="evenodd" d="M11.712 0.406955C11.2853 -0.0900243 10.5393 -0.139769 10.0525 0.301622L1.52236 8.03655C-0.507444 9.87712 -0.507442 13.1229 1.52236 14.9635L10.0525 22.6984C10.5393 23.1398 11.2853 23.0901 11.712 22.5931C12.1319 22.104 12.0883 21.3608 11.6095 20.9266L3.07932 13.1917C2.09086 12.2954 2.09086 10.7047 3.07932 9.80837L11.6095 2.07344C12.0883 1.63924 12.1319 0.896009 11.712 0.406955ZM10.3884 0.671995C10.6654 0.42078 11.0882 0.447933 11.3326 0.732643C11.5771 1.01735 11.5507 1.45181 11.2736 1.70302L2.74345 9.43795C1.53614 10.5327 1.53614 12.4673 2.74345 13.5621L11.2736 21.297C11.5507 21.5482 11.5771 21.9826 11.3326 22.2674C11.0882 22.5521 10.6654 22.5792 10.3884 22.328L1.85822 14.5931C0.0472593 12.9509 0.0472574 10.0491 1.85822 8.40692L10.3884 0.671995Z" fill="white"/>
</svg>
