<svg width="67" height="67" viewBox="0 0 67 67" fill="none" xmlns="http://www.w3.org/2000/svg">
<g clip-path="url(#clip0_21_1160)">
<path d="M25.2416 39.9237C33.8051 39.9237 40.7472 32.8586 40.7472 24.1433C40.7472 22.1549 40.3858 20.2523 39.7263 18.5C44.9181 21.0505 48.5 26.4593 48.5 32.7196C48.5 41.4349 41.5579 48.5 32.9944 48.5C26.3846 48.5 20.7409 44.291 18.5096 38.3629C20.5457 39.3631 22.8293 39.9237 25.2416 39.9237Z" fill="black"/>
<path fill-rule="evenodd" clip-rule="evenodd" d="M23.2191 18.9426C23.2191 21.5951 21.1063 23.7453 18.5 23.7453C21.0112 23.7453 23.0643 25.7416 23.2108 28.2599H23.2191C23.2191 25.6074 25.3319 23.4572 27.9382 23.4572C25.3319 23.4572 23.2191 21.3069 23.2191 18.6544H23.2108C23.2163 18.7498 23.2191 18.8459 23.2191 18.9426Z" fill="black"/>
<path opacity="0.3" fill-rule="evenodd" clip-rule="evenodd" d="M10.5 51.4291C10.5 53.3621 8.933 54.9291 7 54.9291C8.86249 54.9291 10.3852 56.3839 10.4938 58.2191H10.5C10.5 56.2861 12.067 54.7191 14 54.7191C12.067 54.7191 10.5 53.1521 10.5 51.2191H10.4938C10.4979 51.2886 10.5 51.3586 10.5 51.4291Z" fill="black"/>
<path opacity="0.3" fill-rule="evenodd" clip-rule="evenodd" d="M1.5 19.21C1.5 21.143 -0.0670034 22.71 -2 22.71C-0.13751 22.71 1.3852 24.1648 1.4938 26H1.5C1.5 24.067 3.067 22.5 5 22.5C3.067 22.5 1.5 20.933 1.5 19H1.4938C1.49792 19.0695 1.5 19.1395 1.5 19.21Z" fill="black"/>
<path opacity="0.3" fill-rule="evenodd" clip-rule="evenodd" d="M50.5 62.21C50.5 64.143 48.933 65.71 47 65.71C48.8625 65.71 50.3852 67.1648 50.4938 69H50.5C50.5 67.067 52.067 65.5 54 65.5C52.067 65.5 50.5 63.933 50.5 62H50.4938C50.4979 62.0695 50.5 62.1395 50.5 62.21Z" fill="black"/>
<path opacity="0.3" fill-rule="evenodd" clip-rule="evenodd" d="M27.5 -5.67C27.5 -2.63243 25.0376 -0.17 22 -0.17C24.9268 -0.17 27.3196 2.11607 27.4903 5H27.5C27.5 1.96243 29.9624 -0.5 33 -0.5C29.9624 -0.5 27.5 -2.96243 27.5 -6H27.4903C27.4967 -5.89083 27.5 -5.7808 27.5 -5.67Z" fill="black"/>
<path opacity="0.3" fill-rule="evenodd" clip-rule="evenodd" d="M55.5 21.15C55.5 22.5307 54.3807 23.65 53 23.65C54.3304 23.65 55.418 24.6891 55.4956 26H55.5C55.5 24.6193 56.6193 23.5 58 23.5C56.6193 23.5 55.5 22.3807 55.5 21H55.4956C55.4985 21.0496 55.5 21.0996 55.5 21.15Z" fill="black"/>
</g>
<defs>
<clipPath id="clip0_21_1160">
<rect width="67" height="67" rx="20" fill="white"/>
</clipPath>
</defs>
</svg>
