<svg width="1255" height="654" viewBox="0 0 1255 654" fill="none" xmlns="http://www.w3.org/2000/svg">
<g opacity="0.1">
<path d="M1223.79 649.046C1221.68 643.247 1219.56 637.462 1217.31 631.292C1215.24 632.464 1213.38 633.579 1211.46 634.589C1209.15 635.801 1206.9 637.208 1204.46 638.005C1198.7 639.902 1193.84 636.401 1193.75 630.327C1193.71 628.243 1194.03 626.011 1194.8 624.096C1198.3 615.529 1202.01 607.046 1205.68 598.553C1206.08 597.607 1206.64 596.721 1207.12 595.81C1207 595.513 1206.88 595.213 1206.76 594.905C1202.71 595.847 1198.5 596.346 1194.65 597.798C1177.4 604.269 1166.04 623.246 1168.64 641.581C1169.12 645.04 1171.43 648.232 1172.85 651.573C1173.16 652.296 1173.29 653.085 1173.5 653.846C1172.7 653.872 1171.83 654.116 1171.11 653.88C1162.49 651.09 1156.61 642.679 1155.89 632.254C1153.6 598.95 1178.28 574.323 1211.58 576.721C1221.87 577.466 1231.44 580.65 1240.38 585.731C1245.52 588.649 1249.7 592.604 1252.48 597.893C1254.35 601.456 1255.09 605.288 1253.65 609.077C1253.09 610.572 1251.46 612.395 1250.07 612.648C1248.52 612.929 1246.35 611.959 1245.05 610.843C1243.26 609.306 1242.19 606.974 1240.52 605.239C1235.1 599.578 1227.94 597.553 1220.56 596.172C1220.01 596.068 1218.98 596.542 1218.72 597.028C1214.52 605.081 1210.87 613.362 1208.92 622.605C1210.5 621.433 1212.16 620.361 1213.64 619.082C1218.98 614.501 1224.08 615.041 1227.07 621.431C1230.73 629.27 1233.51 637.521 1236.68 645.593C1232.38 646.746 1228.09 647.896 1223.79 649.046Z" fill="url(#paint0_linear_364_779)"/>
<path d="M715.59 296.808C710.099 302.718 703.961 306.422 696.621 308.719C696.954 309.962 697.263 311.035 697.529 312.109C699.694 321.176 698.751 329.974 692.663 337.067C680.78 350.911 665.54 358.342 647.075 356.121C631.92 354.302 620.501 346.305 615.342 331.323C614.04 327.532 614.015 323.167 614.085 319.073C614.14 315.502 615.975 312.411 619.006 310.255C624.549 306.303 631.763 308.831 633.522 315.396C634.221 318.006 634.292 320.817 635.245 323.304C636.457 326.514 637.816 329.861 639.913 332.514C644.943 338.886 651.691 341.482 659.738 339.481C666.246 337.858 672.384 335.222 677.763 331.149C686.051 324.876 686.833 315.845 679.461 308.494C676.709 305.74 673.33 303.518 669.957 301.526C666.079 299.25 662.094 299.899 658.612 302.671C656.844 304.081 655.682 303.566 654.514 302.04C651.653 298.303 652.301 293.042 656.113 289.157C661.782 283.377 671.009 282.127 678.344 286.174C683.201 288.859 686.819 292.878 689.894 297.373C691.14 299.186 692.321 299.365 694.227 298.635C706.256 294.046 714.539 278.92 711.851 266.261C710.76 261.124 703.414 254.117 698.252 253.661C696.765 253.531 694.666 253.951 693.744 254.947C689.237 259.81 685.04 264.965 680.738 270.016C680.621 270.158 680.565 270.36 680.481 270.537C679.974 271.52 679.194 273.414 678.992 273.358C677.5 272.921 675.758 272.419 674.791 271.312C672.362 268.572 671.748 265.047 672.195 261.502C673.396 251.897 677.602 243.778 685.248 237.776C691.018 233.234 697.64 232.814 704.492 235.141C717.461 239.562 727.613 253.877 726.825 267.567C726.523 272.89 724.756 278.121 723.739 283.404C723.543 284.436 723.296 285.857 723.814 286.555C729.406 294.12 730.948 302.913 731.843 311.923C732.944 322.97 733.402 334.124 735.258 345.035C738.832 366.014 753.444 377.097 774.802 375.988C794.478 374.967 811.055 362.299 817.022 343.543C818.216 339.788 818.926 335.864 819.68 331.984C822.655 316.519 816.779 304.405 805.284 294.48C800.772 290.579 795.559 288.287 789.609 287.602C779.152 286.395 768.701 292.687 765.178 302.661C762.932 309.022 763.795 315.034 768.288 320.305C768.723 320.817 769.254 321.28 769.583 321.853C769.992 322.558 770.692 323.648 770.441 324.068C770.034 324.727 768.991 325.227 768.142 325.344C758.771 326.633 750.125 321.098 747.67 311.691C744.89 301.027 746.633 290.902 753.128 281.916C768.327 260.863 797.236 258.204 815.589 276.599C831.008 292.047 837.579 310.945 833.906 332.72C832.651 340.192 830.683 347.712 827.814 354.703C819.001 376.226 802.178 386.867 779.331 388.21C768.899 388.824 758.773 386.924 749.08 382.781C736.38 377.353 728.324 368.026 724.869 354.68C721.87 343.117 720.856 331.286 719.902 319.428C719.419 313.479 718.246 307.582 717.272 301.688C716.992 300.232 716.288 298.835 715.59 296.808Z" fill="url(#paint1_linear_364_779)"/>
<path d="M561.561 300.827C556.586 304.351 555.239 308.115 556.872 313.47C558.199 317.805 560.254 321.615 563.923 324.509C564.984 325.347 565.43 326.968 566.155 328.238C564.719 328.832 563.293 329.468 561.838 329.99C561.425 330.133 560.881 329.993 560.414 329.931C550.717 328.774 541.156 318.386 540.247 308.013C539.417 298.468 546.745 287.585 555.961 284.609C561.551 282.802 566.497 283.933 570.663 287.981C572.585 289.856 574.32 291.979 575.869 294.185C577.951 297.151 580.714 298.47 584.112 297.559C588.637 296.336 593.342 295.251 597.459 293.124C624.265 279.29 640.414 242.026 637.81 219.003C635.06 194.61 624.287 174.856 603.636 161.151C587.481 150.426 564.399 151.424 549.272 163.55C544.362 167.486 539.711 172.179 536.283 177.414C527.679 190.556 528.101 204.615 534.469 218.568C535.607 221.049 537.865 223.44 540.213 224.892C551.086 231.592 562.812 230.509 575.02 228.351C574.621 226.861 574.289 225.87 574.097 224.865C572.645 217.105 571.108 209.357 569.874 201.549C569.534 199.416 569.925 197.098 570.326 194.942C571.236 190.084 574.639 187.179 578.812 187.393C582.931 187.611 585.706 190.986 586.306 195.935C587.273 203.979 588.116 212.056 589.693 219.992C590.697 225.053 592.673 229.963 594.652 234.763C596.738 239.798 600.457 242.876 606.467 242.103C606.914 245.088 605.29 246.746 603.195 248.045C598.498 250.966 591.58 250.651 587.201 246.791C584.422 244.343 582.253 241.18 579.863 238.296C579.263 237.576 578.844 236.708 578.282 235.802C570.425 241.552 561.591 243.732 552.271 244.104C533.297 244.871 518.08 234.688 512.169 216.571C505.621 196.488 508.35 177.719 522.484 161.477C540.244 141.07 562.296 131.175 589.698 135.131C610.234 138.097 625.269 149.694 636.578 166.233C649.713 185.442 655.361 207.054 653.492 230.262C652.901 237.666 651.167 245.278 648.31 252.111C644.317 261.683 639.629 271.209 633.714 279.687C621.998 296.493 605.76 307.143 585.335 310.788C577.186 312.244 570.281 309.8 564.619 303.74C563.683 302.67 562.57 301.757 561.561 300.827Z" fill="url(#paint2_linear_364_779)"/>
<path d="M142.6 499.829C135.901 499.51 129.847 499.216 123.799 498.942C109.989 498.326 96.3207 497.209 82.924 493.123C73.7569 490.327 67.2283 485.304 64.4193 476.135C62.7974 470.821 61.3533 465.349 60.7699 459.845C60.0843 453.345 60.2915 446.726 60.3269 440.164C60.3563 435.223 62.4228 431.355 67.2376 429.448C72.114 427.524 77.6873 428.531 80.968 432.684C85.8454 438.855 91.9899 443.43 98.1996 448.043C101.218 450.274 103.939 452.914 106.804 455.351C107.659 456.08 108.543 456.79 109.406 457.506C109.745 457.415 110.091 457.312 110.43 457.221C109.893 450.042 109.484 442.85 108.777 435.694C108.4 431.864 107.444 428.09 106.915 424.267C106.662 422.463 106.656 420.592 106.798 418.781C107.32 411.737 111.365 408.352 118.287 407.411C124.826 406.518 131.228 404.538 137.679 403.03C140.008 402.483 142.358 401.479 144.652 401.58C146.156 401.65 148.024 403.077 148.882 404.433C149.344 405.168 148.427 407.495 147.463 408.293C144.605 410.644 141.613 412.988 138.322 414.585C133.064 417.139 127.52 419.076 121.556 421.5C121.994 424.037 122.491 427.042 123.032 430.047C124.596 438.757 125.098 447.531 123.958 456.294C123.488 459.878 122.542 463.534 121.053 466.807C119.1 471.097 114.911 472.384 110.837 470.117C106.223 467.554 101.82 464.593 97.4051 461.669C94.8366 459.967 92.5017 457.906 89.9304 456.194C85.6848 453.368 81.3313 450.713 76.3191 447.53C76.7816 452.747 76.9826 457.439 77.6799 462.054C78.1995 465.471 79.3749 468.79 80.2444 472.158C81.1358 475.609 83.2489 478.115 86.6175 479.106C92.1473 480.73 97.7195 482.882 103.383 483.281C118.394 484.313 133.457 484.517 148.498 485.089C151.29 485.2 154.116 485.236 156.86 485.701C165.237 487.112 168.3 494.804 163.087 501.509C158.111 507.908 152.807 514.064 147.748 520.397C143.893 525.229 140.025 530.054 136.447 535.098C119.919 558.423 126.191 590.209 150.44 605.471C161.519 612.447 173.415 617.012 186.915 615.035C194.276 613.966 200.843 611.204 204.781 604.588C206.322 602.005 206.998 598.653 207.183 595.608C207.277 594.03 205.792 591.895 204.404 590.78C202.817 589.499 201.959 588.308 202.546 586.433C203.199 584.353 204.854 583.59 206.899 584.077C210.917 585.027 212.886 588.144 214.232 591.649C216.716 598.086 215.895 604.385 212.803 610.422C207.432 620.891 198.407 626.261 187.195 628.318C149.787 635.148 115.721 610.678 109.871 573.075C106.938 554.204 111.043 537.412 123.389 522.75C129.242 515.808 135.143 508.919 141.012 501.995C141.454 501.469 141.821 500.908 142.6 499.829Z" fill="url(#paint3_linear_364_779)"/>
<path d="M370.177 284.24C366.959 287.591 364.125 290.894 360.944 293.806C353.218 300.864 346.298 301.034 338.193 294.396C335.089 291.847 332.258 288.96 328.971 285.932C328.452 287.568 328.018 288.907 327.598 290.253C325.408 297.315 322.508 304.027 318.011 309.956C313.233 316.269 307.238 320.959 299.706 323.605C284.925 328.81 270.97 322.231 267.321 307.054C262.722 287.958 264.927 269.329 275.499 252.401C278.292 247.919 282.35 243.969 286.512 240.651C295.683 233.359 305.811 227.507 316.721 223.13C330.503 217.609 344.103 217.731 357.734 224.045C369.304 229.402 381.03 234.398 392.786 239.342C403.067 243.668 413.797 246.508 424.856 248.071C431.982 249.08 439.068 248.998 446.168 247.613C453.886 246.107 460.205 242.464 465.23 236.416C466.751 234.577 468.424 232.73 470.396 231.464C471.4 230.82 473.216 231.435 474.658 231.478C474.45 232.756 474.364 234.078 473.991 235.313C473.627 236.5 472.9 237.565 472.43 238.726C467.803 249.877 459.57 256.972 448.208 260.81C437.733 264.343 427.017 265.541 416.225 263.576C407.134 261.927 398.006 259.934 389.3 256.926C375.81 252.249 362.419 247.115 349.439 241.178C336.883 235.424 325.115 235.979 313.456 242.693C307.786 245.963 302.062 249.325 297.03 253.459C293.323 256.501 289.897 260.469 287.77 264.728C282.255 275.808 280.956 287.84 282.564 300.04C283.727 308.858 289.75 311.748 297.908 307.987C301.444 306.357 304.407 303.944 306.018 300.429C307.818 296.511 309.302 292.402 310.526 288.264C311.875 283.729 312.509 278.989 313.946 274.497C315.058 271.049 316.53 267.549 318.591 264.607C322.918 258.415 330.469 258.672 334.821 264.851C337.878 269.196 340.774 273.64 343.839 277.973C345.062 279.704 346.606 281.195 347.921 282.858C349.43 284.755 350.812 284.451 352.105 282.706C353.365 281.003 354.607 279.272 355.747 277.491C356.829 275.78 357.711 273.936 358.78 272.218C363.776 264.294 371.728 263.584 378.079 270.449C383.601 276.436 387.359 283.479 390.276 291.001C390.551 291.698 390.512 292.908 390.077 293.378C389.667 293.818 388.395 293.916 387.753 293.615C382.877 291.353 378.042 288.993 373.243 286.568C372.169 286.008 371.269 285.071 370.177 284.24Z" fill="url(#paint4_linear_364_779)"/>
<path d="M809 116.365C806.398 118.153 804.178 119.849 801.8 121.279C786.859 130.238 769.624 127.269 758.574 113.832C757.545 112.577 756.611 111.187 755.9 109.725C754.877 107.632 755.032 105.498 756.921 103.924C758.693 102.447 760.674 102.654 762.579 103.85C763.225 104.25 763.866 104.673 764.518 105.093C767.153 103.142 769.789 101.357 772.246 99.355C777.474 95.0909 780.017 89.3441 780.663 82.7619C781.049 78.7822 778.711 76.259 774.774 76.8406C771.597 77.3062 768.327 78.2817 765.493 79.7789C751.799 87.0271 743.645 102.878 746.307 117.207C747.999 126.313 752.641 133.493 761.31 137.634C765.133 139.462 769.537 140.826 772.442 143.659C775.968 147.086 779.598 147.369 783.969 147.585C807.601 148.719 824.544 173.516 816.964 195.941C815.766 199.478 813.653 203.172 810.915 205.601C806.355 209.653 801.179 213.165 795.838 216.149C790 219.409 783.665 218.805 777.696 215.956C773.257 213.842 768.969 211.433 764.336 209.008C763.215 210.531 762.093 212.054 760.974 213.587C756.691 219.448 751.555 224.304 744.814 227.277C732.364 232.761 720.747 226.568 719.3 213.08C718.568 206.24 719.065 199.224 719.491 192.315C719.843 186.649 720.921 181.019 721.663 175.37C722.155 171.582 724.065 169.429 727.085 169.281C729.962 169.137 732.782 171.245 733.223 174.739C733.686 178.436 733.503 182.229 733.363 185.978C733.082 193.387 732.625 200.799 732.256 208.21C732.231 208.691 732.316 209.174 732.378 209.653C733.204 216.183 736.272 217.695 741.75 213.87C744.133 212.208 746.108 209.807 747.886 207.447C749.85 204.84 751.273 201.815 753.135 199.114C757.77 192.388 763.094 191.149 770.046 195.331C774.019 197.714 777.866 200.328 781.537 203.144C785.693 206.336 789.745 206.593 794.078 203.748C795.284 202.951 796.5 202.152 797.764 201.449C810.661 194.349 808.149 177.006 799.963 169.74C790.581 161.418 780.396 158.971 768.615 162.106C766.346 162.714 764.26 164.088 762.177 165.263C760.169 166.395 758.376 167.999 756.28 168.88C754.943 169.436 752.694 169.665 751.802 168.924C750.737 168.031 749.903 165.655 750.338 164.404C751.381 161.482 753.151 158.805 754.799 156.128C755.427 155.101 756.525 154.355 757.61 153.272C756.814 152.846 756.224 152.41 755.555 152.171C733.391 144.399 724.894 116.139 731.944 97.9745C737.719 83.1023 747.328 71.5746 762.887 66.3595C767.42 64.8366 772.592 64.2216 777.346 64.6328C786.626 65.4278 792.918 73.102 792.344 82.4179C791.588 94.5026 786.365 104.249 775.98 110.908C775.49 111.216 775.016 111.541 774.544 111.877C774.481 111.927 774.454 112.033 773.891 113.01C774.62 113.145 775.389 113.181 776.077 113.448C787.244 117.713 798.066 113.954 805.54 104.232C805.981 103.662 805.896 102.606 805.892 101.77C805.878 100.034 805.599 98.2918 805.698 96.5692C805.879 93.2612 807.839 91.1722 810.784 90.8678C813.461 90.5911 815.98 92.2726 816.769 95.2988C817.43 97.8086 817.65 100.437 818.052 103.005C818.997 109.117 819.792 115.247 820.937 121.327C821.475 124.156 821.869 127.31 825.308 128.646C825.689 128.797 825.806 130.792 825.397 131.606C824.302 133.805 820.779 134.617 818.574 132.631C816.005 130.313 813.872 127.36 812.07 124.374C810.685 122.037 810.059 119.209 809 116.365Z" fill="url(#paint5_linear_364_779)"/>
<path d="M1220.35 497.274C1224.58 494.435 1226.33 490.662 1228.08 486.725C1227.34 486.272 1226.77 485.941 1226.22 485.571C1223.62 483.845 1222.49 481.404 1223.06 478.345C1223.64 475.26 1225.67 473.361 1228.71 472.877C1231.36 472.454 1234.09 472.241 1236.78 472.312C1240.44 472.411 1243.46 474.85 1244.2 478.925C1245.16 484.219 1246.09 489.663 1245.9 494.999C1245.34 510.62 1244.34 526.238 1243.25 541.827C1242.97 545.834 1241.81 549.801 1240.83 553.731C1239.91 557.423 1237.9 559.35 1235.45 559.357C1232.97 559.37 1230.64 557.474 1230.05 553.81C1229.18 548.416 1228.36 542.911 1228.52 537.472C1228.84 526.187 1229.82 514.921 1230.53 503.642C1230.6 502.589 1230.59 501.534 1230.64 499.892C1229.38 501.066 1228.47 501.958 1227.52 502.797C1222.16 507.569 1215.96 507.603 1211.56 501.977C1208.46 498.037 1205.95 493.36 1204.29 488.627C1198.52 472.038 1197.84 454.765 1198.51 437.406C1198.71 432.309 1198.99 427.212 1199.23 422.148C1198.96 422 1198.78 421.818 1198.64 421.843C1186.96 423.653 1179.26 419.064 1174.71 407.63C1172.09 401.054 1171.21 394.154 1171.3 387.181C1171.47 373.38 1172.02 359.578 1172.24 345.776C1172.33 340.477 1171.98 335.176 1171.78 329.877C1171.75 329.333 1171.45 328.799 1171.23 328.142C1170.68 328.366 1170.19 328.464 1169.82 328.738C1160.96 335.486 1153.63 343.374 1150.89 354.614C1150.75 355.179 1150.58 355.731 1150.43 356.289C1149.6 359.298 1148.04 361.633 1144.67 361.996C1141.29 362.362 1138.54 360.731 1137.45 357.753C1136.28 354.586 1135.37 350.997 1135.66 347.705C1136.02 343.455 1137.11 339.056 1138.89 335.187C1144.43 323.155 1153.38 314.017 1164.86 307.572C1174.83 301.969 1184.36 305.516 1188.8 316.044C1191.64 322.761 1192.41 329.9 1192.12 337.07C1191.7 347.292 1190.66 357.492 1190.23 367.717C1189.85 376.771 1189.74 385.852 1189.91 394.923C1189.98 398.132 1191.04 401.383 1192 404.494C1192.88 407.31 1194.22 407.765 1196.89 406.443C1199.95 404.919 1202.45 402.852 1204.14 399.656C1205.31 397.449 1207.15 395.339 1209.19 393.909C1212.55 391.567 1217.08 392.345 1219.84 395.12C1222.54 397.853 1222.82 401.843 1221.06 405.595C1219.7 408.505 1218.4 411.594 1217.88 414.74C1215.14 431.244 1212.89 447.835 1214.58 464.606C1215.51 473.817 1217.21 482.953 1218.66 492.111C1218.89 493.691 1219.64 495.186 1220.35 497.274Z" fill="url(#paint6_linear_364_779)"/>
<path d="M583.972 86.6589C577.86 88.8582 572.087 90.9667 566.3 93.0238C541.648 101.799 517.029 110.653 492.323 119.266C481.748 122.958 471.015 126.187 460.317 129.505C458.132 130.178 455.775 130.623 453.493 130.606C448.021 130.553 445.377 125.899 447.992 121.123C449.1 119.098 450.502 117.224 451.779 115.296C457.395 106.854 461.939 97.9828 463.445 87.7897C464.138 83.1108 467.278 80.4965 471.371 78.5631C489.668 69.894 508.942 63.8817 528.086 57.5077C546.323 51.443 564.456 45.0756 582.665 38.9519C587.421 37.3583 592.288 36.0982 597.159 34.8923C598.799 34.4857 600.642 34.4654 602.315 34.711C604.845 35.0792 606.495 36.7184 606.841 39.3237C607.187 41.929 605.986 43.8144 603.704 44.9876C602.94 45.3795 602.069 45.5798 601.248 45.8437C577.072 53.5992 552.76 60.9725 528.762 69.2307C510.968 75.3422 493.564 82.5825 476.023 89.3968C475.016 89.7876 473.784 90.8556 473.566 91.8061C471.805 99.8543 468.306 107.124 464.21 114.179C463.985 114.57 463.832 114.985 463.422 115.877C470.117 113.675 476.341 111.732 482.503 109.597C511.891 99.4427 541.267 89.2477 570.641 79.0424C572.374 78.446 574.052 77.6879 575.774 77.0504C579.533 75.6359 582.746 74.3233 582.736 69.0292C582.736 64.6354 586.688 61.7264 590.654 61.6217C594.654 61.519 597.928 64.2097 599.109 68.6174C599.354 69.5319 599.514 70.458 599.869 72.0698C601.91 68.8469 603.617 66.0991 605.378 63.3917C606.473 61.6887 607.506 59.9145 608.81 58.3757C613.098 53.2732 619.901 53.6528 623.47 59.2928C625.221 62.0501 626.485 65.1252 628.051 68.0095C628.772 69.3468 629.685 70.5778 630.487 71.8055C636.731 69.1964 639.712 62.5392 637.162 56.8023C635.755 53.6445 633.818 50.7277 632.135 47.688C631.11 45.8371 629.884 44.0514 629.19 42.0789C628.022 38.7468 629.474 36.7721 633.041 36.8624C634.826 36.9127 636.756 37.2985 638.327 38.1109C652.618 45.4921 659.435 63.256 647.913 77.6638C645.638 80.5088 643.065 83.2246 640.207 85.4548C633.144 90.9596 625.139 90.2413 618.799 83.8683C617.652 82.7109 616.635 81.4197 615.307 79.9144C614.7 80.7707 614.169 81.4968 613.679 82.2558C611.241 85.9704 608.91 89.7554 606.35 93.3817C605.192 95.0135 603.732 96.5059 602.149 97.7449C595.494 103.008 587.399 100.354 585.048 92.1959C584.602 90.6527 584.414 89.0071 583.972 86.6589Z" fill="url(#paint7_linear_364_779)"/>
<path d="M510.435 418.755C506.931 421.489 503.696 424.074 500.384 426.58C491.141 433.605 481.081 439.054 469.772 441.897C459.238 444.554 448.902 444.13 439.007 439.15C428.396 433.8 423.246 424.311 424.608 412.515C425.657 403.414 429.155 395.153 433.72 387.345C438.202 379.68 443.121 372.25 447.46 364.502C449.892 360.15 452.038 355.512 453.448 350.751C455.759 342.908 453.083 338.262 445.424 335.26C439.459 332.916 433.425 332.738 427.759 335.82C422.706 338.561 417.956 341.86 413.17 344.86C415.775 350.681 414.884 352.858 409.424 355.026C404.501 356.984 399.696 357.038 395.664 353.119C391.53 349.106 391.473 344.21 393.411 339.165C394.025 337.557 394.823 335.934 395.909 334.608C406.021 322.329 418.6 314.08 434.764 313.053C447.747 312.228 458.929 316.632 466.92 327.441C471.496 333.637 473.325 340.789 472.021 348.285C470.993 354.221 469.435 360.233 467.014 365.738C462.981 374.912 457.926 383.645 453.571 392.686C450.356 399.372 447.131 406.106 444.692 413.102C442.072 420.61 444.239 424.181 451.873 426.717C461.15 429.803 470.134 428.178 478.525 423.892C484.159 421.017 489.392 417.302 494.568 413.624C499.21 410.332 503.419 406.452 508.005 403.075C514.223 398.48 520.099 400.573 522.295 407.946C525.314 418.105 529.285 421.182 539.916 421.516C548.083 421.772 555.802 419.902 563.208 416.497C567.529 414.513 570.406 415.108 571.786 417.998C573.16 420.867 571.818 423.66 567.715 425.762C556.44 431.525 544.354 433.849 531.827 433.132C522.753 432.612 515.773 428.04 511.324 419.938C511.122 419.595 510.862 419.324 510.435 418.755Z" fill="url(#paint8_linear_364_779)"/>
<path d="M1130.95 281.197C1133.05 288.541 1133.78 295.075 1132.56 301.633C1131.27 308.654 1130.2 315.801 1127.95 322.536C1122.3 339.478 1110.35 349.587 1092.72 352.703C1085.54 353.965 1078.93 352.125 1072.86 348.177C1066.91 344.311 1062.03 339.296 1058.78 333.065C1051.57 319.305 1044.43 305.481 1037.86 291.418C1031.57 277.962 1028.51 263.43 1025.32 248.978C1019.92 224.449 1014.23 199.973 1011.59 174.944C1010.76 166.986 1010.4 158.965 1010.01 150.966C1009.82 147.063 1011.7 144.709 1014.68 144.407C1017.59 144.111 1020.02 146.09 1020.61 149.896C1021.9 158.196 1022.61 166.595 1024.15 174.838C1027.87 194.677 1031.65 214.498 1035.95 234.216C1039.01 248.263 1042.29 262.326 1046.66 276.01C1052.29 293.662 1060.58 310.163 1072.12 324.832C1073.67 326.796 1075.35 328.693 1077.15 330.422C1084.97 337.929 1093.63 338.848 1104.03 332.086C1110.04 328.172 1114.12 322.542 1115.65 315.372C1116.77 310.082 1117.78 304.769 1118.67 299.441C1119.69 293.454 1118.54 287.694 1116.3 282.151C1113.02 274.065 1101.73 267.158 1093.15 268.134C1091.55 268.32 1089.7 269.135 1088.61 270.266C1085.35 273.638 1082.98 277.609 1082.38 282.428C1082.04 285.208 1081.44 287.965 1081.26 290.745C1081.11 293.363 1079.82 293.707 1077.84 292.829C1073.31 290.818 1070.47 287.304 1069.28 282.515C1066.41 271.027 1073.19 257.361 1084.07 252.74C1088.87 250.704 1093.9 250.644 1098.86 251.859C1115.29 255.871 1127.1 264.919 1130.95 281.197Z" fill="url(#paint9_linear_364_779)"/>
<path d="M920.664 259.192C918.282 259.379 916.093 259.668 913.892 259.707C902.994 259.896 897.238 251.803 901.302 241.673C904.904 232.691 911.707 226.585 920.417 222.83C935.639 216.274 950.784 215.96 965.475 224.588C977.895 231.887 981.654 242.795 976.471 256.264C973.876 263.005 969.521 268.478 964.151 273.198C955.725 280.599 945.941 285.522 935.288 288.718C932.833 289.453 932.269 290.595 932.219 292.954C931.857 312.256 931.383 331.555 930.899 350.857C930.862 352.485 930.715 354.155 930.322 355.725C930.075 356.694 929.324 358.161 928.663 358.239C927.513 358.382 925.735 357.989 925.138 357.158C923.942 355.485 922.842 353.434 922.635 351.43C921.61 341.937 920.494 332.435 920.196 322.902C919.911 313.75 920.608 304.566 920.87 295.4C920.9 294.445 920.863 293.486 920.85 292.124C919.573 292.202 918.473 292.243 917.376 292.339C907.952 293.102 898.648 292.831 889.666 289.412C871.015 282.307 860.337 269.025 859.514 248.873C859.136 239.658 859.836 230.363 860.649 221.159C861.285 213.963 862.809 206.838 864.01 199.699C864.628 196.01 867.085 193.887 870.26 194.115C873.366 194.329 875.74 196.865 875.739 200.477C875.743 203.163 875.343 205.858 874.958 208.527C873.22 220.478 871.187 232.398 872.178 244.555C872.305 246.095 872.441 247.633 872.622 249.171C874.093 261.969 880.61 272.821 899.798 276.467C905.907 277.627 912.456 276.522 918.797 276.288C919.516 276.26 920.779 275.184 920.794 274.585C920.889 269.516 920.745 264.423 920.664 259.192ZM932.203 273.059C942.887 269.359 952.209 264.725 958.998 256.145C960.354 254.427 961.428 252.399 962.223 250.358C964.463 244.67 963.351 241.631 958.175 238.371C945.418 230.348 926.202 233.372 916.488 244.96C915.853 245.714 915.363 246.594 914.631 247.682C918.672 248.02 921.718 247.479 924.054 244.287C925.931 241.725 929.1 241.273 931.567 242.638C934.035 244.003 935.275 247.029 934.112 249.917C931.149 257.297 932.457 264.93 932.203 273.059Z" fill="url(#paint10_linear_364_779)"/>
<path d="M162.064 283.102C162.553 281.881 162.839 280.974 163.275 280.135C165.023 276.743 166.573 273.232 168.635 270.027C171.429 265.686 175.732 264.468 179.241 266.581C182.708 268.661 183.567 272.648 181.066 277.136C176.565 285.224 171.861 293.215 167.155 301.196C165.701 303.667 163.534 303.848 161.802 301.54C160.6 299.932 159.556 297.968 159.231 296.017C158.854 293.745 157.815 292.707 155.691 292.964C152.083 293.402 148.301 293.563 144.95 294.796C135.651 298.225 127.103 303.137 119.226 309.12C108.786 317.051 102.885 327.606 101.174 340.307C99.7319 351.091 104.23 357.102 115.116 359.06C118.29 359.634 121.677 359.729 124.896 359.363C136.008 358.133 146.472 354.735 155.779 348.499C158.845 346.448 161.521 343.681 163.92 340.871C165.932 338.509 165.266 336.843 162.541 335.394C152.98 330.319 142.954 332.348 136.109 340.74C135.984 340.892 135.818 341.012 135.74 341.173C135.146 342.454 135.095 344.69 132.948 343.874C131.121 343.187 129.111 341.979 128.131 340.418C126.379 337.663 127.182 334.492 128.628 331.7C133.622 322.121 141.373 316.495 152.553 316.218C159.462 316.049 165.938 317.798 171.868 321.214C181.797 326.923 185.116 338.114 179.143 347.912C176.415 352.375 172.671 356.625 168.489 359.816C154.522 370.462 138.377 375.737 120.873 376.76C114.133 377.153 107.61 375.805 101.484 373.014C89.142 367.39 82.4909 357.911 82.3213 344.485C82.093 326.479 88.8963 311.228 102.964 299.477C114.409 289.906 127.968 284.278 142.458 280.848C149.114 279.28 155.7 279.382 162.064 283.102Z" fill="url(#paint11_linear_364_779)"/>
<path d="M68.663 597.552C70.9639 590.945 73.0528 584.449 75.5205 578.095C76.4074 575.82 77.9854 573.701 79.6535 571.878C81.98 569.349 85.0571 568.514 88.4 569.655C91.862 570.831 93.8198 573.456 94.0377 577.02C94.1758 579.384 93.8335 581.843 93.3239 584.171C92.0163 590.215 90.2766 596.165 89.1293 602.232C88.4741 605.7 88.1471 609.367 88.4977 612.852C89.0019 617.936 91.5997 621.965 96.5871 623.987C98.8951 624.921 98.7262 626.057 97.1274 627.564C93.2449 631.225 86.0623 632.016 81.1878 628.895C73.5008 623.984 70.3393 616.374 69.2632 607.676C69.1414 606.729 69.1147 605.767 69.0394 604.829C59.1113 604.736 53.2108 600.866 50.3287 591.342C48.8285 586.359 48.834 580.918 48.2186 575.665C48.0981 574.64 48.263 573.571 48.2937 572.495C47.8437 572.417 47.5711 572.303 47.3061 572.341C27.8623 574.721 13.5806 563.021 12.6398 543.33C12.3239 536.73 12.7965 529.952 14.0165 523.458C16.0398 512.653 18.8465 501.979 21.6047 491.329C22.1127 489.365 23.7273 487.424 25.3392 486.089C27.4395 484.359 30.0738 484.622 32.4236 486.04C35.0207 487.602 36.0718 490.128 35.7437 492.969C35.3311 496.604 34.4898 500.199 33.793 503.799C31.9637 513.276 29.8399 522.72 28.388 532.249C27.6525 537.061 27.6067 542.105 28.1455 546.95C29.2035 556.401 39.3513 562.899 48.5253 560.342C49.4876 560.073 50.6383 558.906 50.8978 557.944C53.5124 547.949 58.0775 538.786 62.6528 529.62C64.792 525.325 68.5676 523.565 72.3496 524.908C76.2173 526.283 78.1694 530.242 76.862 534.931C75.3767 540.23 73.547 545.433 71.8699 550.673C68.1409 562.299 64.9679 574.029 65.0077 586.374C65.0417 590.648 66.0105 594.551 68.663 597.552Z" fill="url(#paint12_linear_364_779)"/>
<path d="M951.528 403.044C940.551 406.018 930.481 397.88 930.902 386.392C931.042 382.644 933.178 379.736 936.325 379.036C939.42 378.35 941.665 379.665 943.633 383.355C946.605 388.902 946.984 389.086 952.018 385.326C954.869 383.197 957.619 380.852 960.035 378.245C968.322 369.34 976.29 360.146 984.666 351.327C990.629 345.038 997.003 339.135 1003.31 333.173C1004.82 331.731 1006.71 330.632 1008.55 329.587C1017 324.803 1025.6 325.877 1031.76 333.368C1035.82 338.313 1039.02 344.042 1042.23 349.624C1049.2 361.763 1055.9 374.054 1062.79 386.236C1064.17 388.664 1065.85 390.935 1067.58 393.135C1071.7 398.374 1078.21 400.131 1084.44 397.845C1086.77 396.991 1087.7 397.731 1087.4 400.179C1086.67 406.025 1080.96 411.376 1074.43 412.036C1065.75 412.919 1058.56 409.547 1052.39 403.724C1046.63 398.275 1042.7 391.498 1038.83 384.684C1032.52 373.612 1026.21 362.54 1019.79 351.54C1017.84 348.187 1017.5 348.079 1014.62 350.524C1008.15 356.014 1001.79 361.639 995.523 367.37C985.911 376.178 976.51 385.195 966.866 393.967C962.418 398.022 957.418 401.333 951.528 403.044Z" fill="url(#paint13_linear_364_779)"/>
<path d="M172.762 395.281C179.999 394.366 189.207 393.374 198.368 391.999C204.46 391.082 210.526 389.82 216.498 388.33C221.117 387.17 225.616 385.524 230.098 383.893C235.533 381.919 241.255 384.835 243.326 390.921C245.212 396.483 244.661 402.147 244.031 407.844C242.89 418.204 241.802 428.561 240.896 438.935C240.503 443.544 240.605 448.197 240.49 452.82C240.318 459.693 237.63 462.473 230.757 463.103C229.155 463.246 227.61 463.968 226.021 464.361C209.983 468.24 193.939 472.099 177.893 475.947C176.868 476.188 175.795 476.289 174.744 476.394C166.869 477.227 162.867 472.683 163.26 464.825C163.765 454.636 163.508 444.397 163.371 434.193C163.244 424.932 162.787 415.672 162.607 406.415C162.472 399.877 164.566 397.301 172.762 395.281ZM178.941 459.038C180.179 458.772 181.389 458.525 182.594 458.257C192.942 455.936 203.291 453.614 213.641 451.259C216.369 450.638 219.123 450.077 221.761 449.161C222.627 448.862 223.678 447.568 223.732 446.661C224.414 436.27 225.036 425.862 225.439 415.458C225.647 410.073 225.537 404.651 225.303 399.263C225.13 395.29 224.679 395.168 220.952 396.167C211.641 398.662 202.332 401.167 192.995 403.526C188.325 404.7 183.583 405.607 178.844 406.524C176.94 406.892 176.437 407.808 176.563 409.713C177.235 419.532 177.84 429.346 178.327 439.171C178.657 445.701 178.737 452.242 178.941 459.038Z" fill="url(#paint14_linear_364_779)"/>
<path d="M1133.21 529.698C1136 537.208 1138.13 542.903 1140.22 548.609C1140.96 550.604 1141.78 552.588 1142.25 554.641C1143.49 560.013 1140.12 564.406 1134.65 563.834C1131.45 563.492 1128.1 562.155 1125.35 560.426C1119.99 557.07 1116.37 551.94 1113.61 546.335C1104.77 528.365 1101.31 509.317 1103.77 489.464C1106.38 468.326 1125.38 450.713 1146.09 449.447C1160.22 448.59 1174.84 460.398 1176.95 474.401C1177.75 479.716 1175.45 484.507 1171.11 486.968C1169.1 488.114 1168.33 487.417 1167.99 485.405C1166.95 479.406 1163.77 474.675 1159.07 471.002C1155.46 468.18 1151.52 467.869 1147.44 470.251C1136.11 476.9 1128.9 486.177 1129.86 499.881C1130.6 510.442 1132.2 520.95 1133.21 529.698Z" fill="url(#paint15_linear_364_779)"/>
<path d="M1004.72 403.634C1001.31 408.028 998.088 411.722 995.398 415.769C993.271 418.96 991.736 422.553 990.05 426.034C984.776 436.906 977.231 445.953 968.113 453.771C961.735 459.246 954.318 462.158 945.963 462.723C930.485 463.765 918.564 456.52 912.618 441.517C909.254 433.026 906.849 424.134 904.407 415.306C902.849 409.656 904.523 406.091 908.358 404.92C912.141 403.764 915.516 405.844 917.783 411.062C920.662 417.701 923.335 424.429 926.135 431.101C926.653 432.339 927.323 433.525 928.001 434.698C934.477 445.891 945.884 448.505 956.565 441.018C964.652 435.35 970.363 427.631 974.721 418.843C976.735 414.779 978.336 410.407 980.935 406.76C984.831 401.3 989.001 395.877 993.886 391.319C1001.2 384.492 1010.14 384.761 1017.14 391.949C1021.33 396.245 1024.64 401.468 1027.95 406.54C1030.63 410.644 1032.54 415.254 1035.14 419.424C1037.33 422.922 1039.94 426.166 1042.54 429.379C1043.27 430.275 1044.56 430.865 1045.71 431.207C1047.91 431.862 1047.94 432.986 1046.81 434.612C1044.47 437.925 1041.14 439.565 1037.28 438.729C1034.16 438.055 1031.01 436.753 1028.33 435.015C1022.12 430.985 1017.88 425.106 1014.39 418.652C1012.6 415.343 1010.7 412.088 1008.72 408.896C1007.78 407.353 1006.54 405.988 1004.72 403.634Z" fill="url(#paint16_linear_364_779)"/>
<path d="M873.452 56.8749C873.708 53.6017 873.959 50.3518 874.211 47.1019C874.297 45.9446 874.349 44.7853 874.516 43.6395C875.193 39.0641 878.159 36.0451 882.351 35.5935C886.384 35.1626 890.429 37.5696 891.766 41.7812C892.662 44.5915 893.194 47.6426 893.223 50.586C893.352 64.493 893.281 78.3982 893.221 92.3006C893.177 101.375 893.092 110.461 892.869 119.529C892.804 122.2 892.422 124.923 891.726 127.499C891.047 130.016 889.359 132.054 886.536 132.359C883.564 132.682 881.476 130.929 880.338 128.447C879.227 126.025 878.435 123.396 877.846 120.79C874.263 104.869 873.209 88.6989 873.144 72.4404C873.134 70.3507 872.576 69.4983 870.452 68.9221C863.388 66.9937 856.471 64.4642 849.371 62.6886C843.581 61.2446 837.584 60.6272 831.702 59.5382C829.817 59.1954 827.891 58.7424 826.16 57.9508C820.774 55.5068 819.442 49.5096 823.175 44.9195C823.905 44.0301 824.802 43.2721 825.631 42.4663C836.537 31.9568 847.432 21.4501 858.353 10.9584C859.185 10.1628 860.046 9.34866 861.039 8.78516C863.468 7.41859 865.907 7.56894 868.044 9.38587C870.184 11.2131 870.768 13.6777 869.697 16.211C869.003 17.8506 867.856 19.4023 866.623 20.7128C859.31 28.4096 851.911 36.0303 844.551 43.6737C843.887 44.3581 843.294 45.1008 842.813 45.648C852.94 49.3548 862.993 53.0369 873.452 56.8749Z" fill="url(#paint17_linear_364_779)"/>
<path d="M211.167 312.586C203.889 280.618 211.199 251.394 235.833 227.152C239.393 223.643 244.006 221.107 248.406 218.596C250.278 217.533 252.896 217.283 255.093 217.476C256.513 217.602 258.416 218.953 258.961 220.249C259.437 221.366 258.782 223.645 257.816 224.598C250.85 231.453 246.438 239.914 242.416 248.601C231.163 272.925 228.731 298.222 235.766 324.021C238.174 332.846 242.768 341.119 246.713 349.477C247.711 351.6 250.067 353.083 251.76 354.886C252.317 355.486 253.199 356.23 253.136 356.819C253.067 357.421 252.115 358.139 251.39 358.432C247.598 359.966 243.824 359.557 240.119 358.05C235.132 356.027 231.282 352.544 228.157 348.272C220.549 337.866 215.307 326.31 211.167 312.586Z" fill="url(#paint18_linear_364_779)"/>
<path d="M346.257 92.2655C344.438 85.6831 348.131 80.2448 354.285 79.598C356.65 79.3497 359.097 79.6521 361.483 79.8936C373.087 81.068 384.681 82.4876 396.302 83.4372C401.814 83.8873 406.849 85.5554 411.822 87.6476C414.983 88.9702 416.417 92.5172 415.245 95.9037C414.813 97.1648 414.108 98.3556 413.388 99.4847C403.79 114.258 395.352 129.623 389.554 146.341C388.581 149.156 387.289 151.892 385.88 154.516C383.907 158.161 380.87 160.417 376.526 160.139C372.115 159.856 369.447 157.047 368.126 153.183C366.061 147.162 364.571 140.943 362.507 134.922C358.413 122.97 354.16 111.082 349.815 99.219C348.812 96.5034 347.187 94.0535 346.257 92.2655ZM395.611 100.119C386.543 99.8282 377.334 99.5429 367.9 99.2406C371.425 109.605 374.939 119.929 378.348 129.94C384.109 119.983 389.9 109.974 395.611 100.119Z" fill="url(#paint19_linear_364_779)"/>
<path d="M242.476 126.736C244.35 125.474 246.478 124.463 248.026 122.892C251.2 119.663 254.045 116.115 257.045 112.734C259.537 109.919 261.85 106.888 264.654 104.418C270.693 99.1112 278.09 100.928 280.959 108.474C282.384 112.232 283.031 116.288 283.946 120.238C284.355 122.012 284.569 123.837 284.963 126.21C285.737 125.32 286.25 124.852 286.617 124.291C288.579 121.309 290.333 118.163 292.49 115.328C295.513 111.335 298.541 107.276 302.088 103.759C309.712 96.1993 318.27 97.7494 323.201 107.363C324.302 109.502 325.295 111.769 325.84 114.089C328.454 125.282 331.104 136.487 330.242 148.138C330.031 151.046 329.467 151.528 326.656 150.398C322.193 148.609 319.218 145.145 317.308 140.933C314.72 135.217 312.537 129.327 310.174 123.507C309.746 122.443 309.31 121.393 308.697 119.883C307.725 120.815 306.963 121.46 306.3 122.188C301.991 126.889 297.769 131.665 293.385 136.287C285.475 144.628 278.458 143.204 274.609 132.331C272.941 127.625 271.954 122.669 270.462 117.101C269.16 118.32 268.408 118.962 267.719 119.675C264.004 123.467 260.596 127.629 256.504 130.961C253.135 133.703 249.181 136.073 245.106 137.495C238.86 139.686 232.846 136.298 231.023 129.904C230.143 126.825 229.843 123.404 230.095 120.198C231.238 105.862 235.596 92.3936 241.9 79.538C243.722 75.8234 246.814 74.4664 249.915 75.6945C253.067 76.9424 254.424 80.323 253.037 84.2626C251.007 89.9931 248.495 95.5666 246.694 101.368C244.76 107.623 243.336 114.051 241.856 120.438C241.441 122.256 241.6 124.207 241.491 126.097C241.811 126.308 242.142 126.517 242.476 126.736Z" fill="url(#paint20_linear_364_779)"/>
<path d="M964.351 158.839C961.193 158.386 958.002 157.402 954.883 157.588C947.957 158.023 941.063 158.945 934.176 159.854C930.127 160.389 928.141 159.875 926.884 157.403C925.497 154.691 926.233 151.521 929.199 149.207C930.991 147.802 933.063 146.542 935.209 145.845C942.706 143.396 950.447 142.39 958.335 142.754C963.15 142.984 967.652 144.343 971.562 147.315C978.722 152.764 979.482 161.226 972.434 166.749C967.198 170.861 961.09 174.061 954.977 176.789C945.359 181.096 935.363 184.446 924.556 184.236C904.722 183.846 894.662 170.982 899.826 151.857C901.31 146.35 903.83 140.929 906.844 136.08C914.561 123.649 925.378 114.452 938.548 108.082C940.524 107.123 942.702 106.462 944.856 106.04C948.664 105.305 951.912 107.078 953.142 110.272C954.358 113.415 953.249 116.543 949.949 118.726C946.334 121.126 942.537 123.256 938.974 125.73C930.81 131.398 923.563 138.108 918.232 146.507C915.588 150.684 913.445 155.377 912.11 160.129C909.996 167.677 913.396 172.36 921.219 173.303C924.619 173.713 928.216 173.708 931.576 173.105C942.009 171.223 951.817 167.461 961.116 162.371C961.875 161.958 962.601 161.466 963.301 160.959C963.678 160.682 963.987 160.313 964.326 159.98C964.325 159.605 964.345 159.226 964.351 158.839Z" fill="url(#paint21_linear_364_779)"/>
<path d="M1043.9 121.799C1038.72 124.607 1033.81 127.617 1028.62 130.034C1015.53 136.119 1007.74 133.304 1001.07 120.435C1000.1 118.57 999.217 116.647 998.512 115.206C993.912 116.439 989.642 118.078 985.243 118.663C973.464 120.244 966.568 111.179 971.001 100.168C973.398 94.2071 977.462 89.5393 983.432 87.0585C985.698 86.11 988.52 85.9263 991.005 86.2075C994.103 86.5559 996.027 89.3439 995.774 92.1758C995.615 93.9252 995.129 95.3549 992.785 95.19C991.83 95.1156 990.688 95.5758 989.844 96.1214C986.414 98.3509 984.166 101.541 982.676 105.343C981.789 107.618 982.629 108.824 984.893 108.691C988.239 108.489 991.586 108.043 994.9 107.475C995.447 107.383 995.994 106.179 996.179 105.392C996.598 103.628 996.5 101.705 997.122 100.041C998.218 97.1482 1001.17 95.5434 1004.06 95.8358C1006.88 96.1166 1009.21 98.08 1009.86 101.121C1010.37 103.474 1010.28 105.962 1010.88 108.279C1011.87 112.089 1013.07 115.865 1014.44 119.56C1015.25 121.701 1017.04 123.038 1019.49 122.59C1026.91 121.241 1033.67 118.339 1039.69 113.698C1039.29 112.461 1038.85 111.39 1038.61 110.277C1038.02 107.495 1039.23 104.859 1041.54 103.6C1043.93 102.299 1046.78 102.592 1048.7 104.722C1049.89 106.054 1050.82 107.71 1051.51 109.376C1053.37 113.93 1055.05 118.556 1056.82 123.148C1056.85 123.207 1056.99 123.212 1057.09 123.252C1057.27 123.225 1057.51 123.25 1057.63 123.152C1064.87 116.775 1072.07 110.342 1079.36 104.039C1081.04 102.574 1081.32 101.32 1080.23 99.3544C1077.76 94.8753 1075.45 90.3083 1073.11 85.7572C1072.33 84.2171 1071.48 82.6599 1070.99 81.0195C1070.04 77.8489 1071.18 74.9119 1073.67 73.4281C1076.31 71.8619 1079.5 72.3507 1081.86 74.7806C1082.65 75.6033 1083.48 76.5158 1083.94 77.5376C1087.63 85.8201 1091.32 94.1053 1094.8 102.476C1095.48 104.091 1095.54 106.089 1095.39 107.869C1095.16 110.463 1093.59 112.172 1091.08 113.176C1088.88 114.051 1086.62 115.03 1084.75 116.447C1079.05 120.76 1073.63 125.438 1067.91 129.702C1064.85 131.977 1061.48 133.904 1058.05 135.615C1053.82 137.729 1050.61 136.618 1048.39 132.421C1046.96 129.7 1045.96 126.742 1044.77 123.9C1044.42 123.037 1044.05 122.176 1043.9 121.799Z" fill="url(#paint22_linear_364_779)"/>
<path d="M304.05 187.796C279.372 191.545 256.29 195.582 232.803 192.934C226.244 192.192 219.626 190.694 213.414 188.494C195.62 182.205 186.013 168.856 182.73 150.652C182.008 146.682 181.719 142.608 181.615 138.562C181.511 134.724 183.306 132.349 186.133 131.647C188.99 130.936 191.87 132.114 193.484 135.469C196.162 141.029 198.5 146.756 200.835 152.474C206.328 165.868 216.557 173.369 230.412 176.33C242.947 179.006 255.588 178.669 268.135 176.749C278.799 175.114 289.336 172.632 299.963 170.655C303.263 170.035 306.632 169.507 309.966 169.505C313.168 169.506 315.703 171.206 316.741 174.462C317.773 177.699 316.823 180.684 314.159 182.444C310.568 184.772 306.58 186.479 304.05 187.796Z" fill="url(#paint23_linear_364_779)"/>
<path d="M1109.76 161.559C1110.43 164.076 1111.33 166.556 1111.72 169.114C1112.3 172.879 1113.15 176.771 1112.67 180.456C1112.36 182.897 1110.05 185.167 1108.39 187.318C1107 189.124 1105.11 190.533 1103.67 192.306C1092.75 205.804 1081.89 219.362 1071 232.885C1070.27 233.784 1069.45 234.611 1068.59 235.381C1062.56 240.739 1055.09 238.678 1053.19 230.841C1051.13 222.394 1047.51 214.655 1043.51 207.049C1042.28 204.713 1042.36 202.522 1043.92 200.54C1056.37 184.685 1068.71 168.736 1081.46 153.139C1084.89 148.951 1089.49 145.657 1093.87 142.359C1097.55 139.589 1099.96 140.044 1102.11 144.106C1105.06 149.702 1107.39 155.631 1109.98 161.411C1109.91 161.463 1109.83 161.516 1109.76 161.559ZM1093.77 154.544C1092.99 155.259 1092.59 155.541 1092.3 155.907C1080.56 170.34 1068.83 184.782 1057.14 199.257C1056.75 199.736 1056.49 200.785 1056.74 201.245C1059.48 206.184 1062.32 211.049 1065.22 216.066C1065.55 215.79 1065.94 215.53 1066.26 215.202C1078.32 203.017 1089.42 189.857 1103.12 179.348C1104.44 178.335 1104.51 177.103 1103.65 175.528C1101.86 172.23 1100.28 168.812 1098.68 165.407C1097.06 161.943 1095.52 158.424 1093.77 154.544Z" fill="url(#paint24_linear_364_779)"/>
<path d="M218.195 493.097C222.531 492.442 225.949 491.812 229.39 491.43C233.162 491.013 236.342 493.19 238.162 497.228C239.928 501.149 240.52 505.373 239.323 509.405C237.764 514.635 236.199 520.087 233.392 524.682C222.699 542.226 208.141 555.531 188.65 562.825C183.538 564.734 178.201 565.305 172.707 563.98C169.388 563.173 167.39 561.385 166.751 558.098C165.713 552.827 166.359 547.599 168.181 542.695C177.311 518.169 194.966 502.294 218.195 493.097ZM178.295 550.832C178.593 551.082 178.884 551.346 179.182 551.596C181.194 551.057 183.303 550.756 185.197 549.94C202.931 542.37 215.534 529.489 223.714 512.177C224.675 510.136 225.114 507.75 225.32 505.481C225.612 502.298 224.698 501.64 221.656 502.73C202.375 509.658 188.682 522.578 180.706 541.431C179.461 544.385 179.082 547.692 178.295 550.832Z" fill="url(#paint25_linear_364_779)"/>
<path d="M705.653 116.648C706.309 120.37 707.36 125.485 708.072 130.646C708.669 134.968 707.754 138.494 703.621 141.342C694.413 147.674 685.613 154.624 676.603 161.245C670.094 166.029 663.896 163.307 662.268 155.462C660.313 146.031 657.877 136.695 655.619 127.323C655.172 125.45 654.494 123.616 654.132 121.731C652.932 115.489 656.39 111.226 662.607 109.957C670.424 108.369 678.141 106.246 685.84 104.139C687.284 103.741 688.651 102.516 689.714 101.35C693.678 97.0064 700.042 97.966 702.076 103.544C703.449 107.316 704.229 111.336 705.653 116.648ZM696.078 135.368C693.871 128.692 691.665 122.059 689.441 115.321C683.622 117.915 677.891 120.386 672.278 123.091C671.567 123.436 671.005 125.117 671.165 126.043C671.88 130.311 672.9 134.531 673.774 138.779C674.294 141.293 674.75 143.814 675.292 146.62C682.44 142.744 689.254 139.058 696.078 135.368Z" fill="url(#paint26_linear_364_779)"/>
<path d="M324.191 363.163C337.864 359.037 351.533 354.901 365.205 350.775C365.949 350.554 366.688 350.312 367.441 350.165C371.262 349.438 374.836 351.278 376.245 354.645C377.632 357.973 376.392 361.928 373.1 363.977C371.649 364.884 369.993 365.603 368.336 365.992C357.711 368.431 347.028 370.611 336.449 373.181C330.271 374.683 324.207 376.649 318.163 378.61C304.301 383.095 290.482 387.701 276.644 392.234C275.824 392.498 274.963 392.696 274.114 392.813C270.727 393.269 267.884 391.818 266.677 389.08C265.395 386.186 266.132 382.817 269.01 380.867C271.375 379.264 274.012 377.853 276.723 377.006C286.384 373.965 296.102 371.141 305.84 368.345C311.959 366.584 318.133 365.029 324.283 363.381C324.23 363.307 324.211 363.235 324.191 363.163Z" fill="url(#paint27_linear_364_779)"/>
<path d="M330.257 407.194C318.497 409.916 306.74 412.647 294.972 415.338C293.562 415.661 292.119 415.86 290.679 415.949C287.529 416.143 285.229 414.744 284.452 412.298C283.657 409.781 284.795 406.965 287.672 405.588C291.058 403.976 294.607 402.684 298.138 401.363C317.337 394.171 336.957 388.341 356.919 383.708C361.208 382.713 365.686 382.339 370.095 382.204C372.048 382.143 374.37 382.963 375.962 384.144C379.786 386.996 379.058 392.576 374.529 394.891C371.024 396.678 367.307 398.247 363.508 399.221C352.469 402.046 341.344 404.509 330.258 407.117C330.253 407.14 330.249 407.163 330.257 407.194Z" fill="url(#paint28_linear_364_779)"/>
<path d="M703.331 447.392C703.203 443.506 702.878 437.283 702.873 431.062C702.873 427.858 704.451 425.783 707.98 425.113C709.833 424.76 711.53 423.292 713.155 422.129C715.744 420.291 718.211 418.286 720.728 416.345C723.608 414.12 726.647 414.66 728.123 417.91C730.721 423.623 734.74 427.986 740.035 431.28C743.97 433.728 744.078 439.634 740.113 441.754C735.225 444.374 731.387 448.078 728.07 452.37C724.825 456.565 721.771 460.896 718.626 465.174C715.665 469.194 711.264 468.865 709.428 464.314C707.508 459.531 705.911 454.596 703.331 447.392ZM728.39 436.647C726.37 434.446 724.573 432.505 722.976 430.774C719.742 432.665 716.686 434.442 713.346 436.394C714.28 439.877 715.276 443.596 716.303 447.429C718.361 445.457 720.239 443.555 722.227 441.778C724.206 440.003 726.308 438.361 728.39 436.647Z" fill="url(#paint29_linear_364_779)"/>
<path d="M1143.01 534.493C1141.07 526.687 1141.09 519.491 1145.19 512.79C1147.79 508.536 1151.29 505.317 1156.4 504.355C1160.75 503.542 1164.84 505.453 1166.62 509.162C1167.57 511.163 1168.06 512.817 1165.65 514.64C1164.48 515.526 1163.92 518.417 1164.37 520.038C1166.2 526.607 1168.42 533.083 1170.71 539.515C1171.85 542.68 1173.42 545.693 1174.86 548.755C1175.97 551.134 1175.08 552.859 1173.2 554.276C1169.52 557.056 1165.43 556.975 1161.34 555.593C1152.85 552.746 1147.77 546.401 1144.38 538.454C1143.77 537.043 1143.37 535.532 1143.01 534.493Z" fill="url(#paint30_linear_364_779)"/>
<path d="M15.7235 359.405C19.1157 361.634 22.0351 363.495 24.8916 365.449C29.6629 368.719 34.437 371.999 39.1304 375.388C40.3573 376.271 41.4756 377.447 42.3271 378.694C43.9002 380.993 43.4519 384.042 41.5256 385.847C39.5741 387.68 36.4196 388.063 34.3922 386.04C29.1203 380.78 22.2378 378.296 16.0165 374.666C12.1051 372.388 8.15474 370.088 4.56319 367.362C-1.57261 362.696 -1.49949 356.685 4.65476 351.975C10.3255 347.637 16.2362 343.619 21.931 339.329C23.433 338.2 24.5577 336.566 25.8854 335.197C28.2244 332.797 30.3651 330.11 33.0128 328.123C36.8416 325.247 41.2059 325.806 43.6641 328.903C46.0593 331.928 45.7057 336.152 42.0914 339.213C36.2887 344.127 30.1705 348.684 24.1312 353.331C21.5561 355.342 18.8439 357.17 15.7235 359.405Z" fill="url(#paint31_linear_364_779)"/>
<path d="M1122.97 407.63C1128.89 403.289 1133.28 398.614 1137.17 393.43C1138.15 392.121 1139.01 390.711 1140.01 389.41C1141.66 387.261 1143.8 386.124 1146.56 386.651C1149.45 387.199 1151.1 389.158 1151.78 391.871C1152.21 393.541 1152.14 395.333 1152.5 397.019C1153.4 401.238 1154.26 405.468 1155.46 409.607C1156.06 411.713 1155.56 412.464 1153.54 412.676C1149.5 413.097 1146.4 411.505 1144 408.348C1143.37 407.504 1142.83 406.592 1142.05 405.423C1141.18 406.341 1140.48 407.212 1139.63 407.933C1135.26 411.682 1131.13 415.838 1126.35 418.98C1121.36 422.257 1115.52 420.208 1113.06 414.722C1111.75 411.792 1110.77 408.465 1110.67 405.277C1110.43 398.248 1110.81 391.209 1111.04 384.166C1111.08 382.945 1111.45 381.667 1111.91 380.529C1112.9 378.163 1114.74 376.842 1117.35 376.992C1119.98 377.144 1121.59 378.74 1122.18 381.246C1122.47 382.446 1122.53 383.73 1122.53 384.974C1122.56 390.383 1122.49 395.787 1122.53 401.194C1122.56 403.093 1122.79 404.98 1122.97 407.63Z" fill="url(#paint32_linear_364_779)"/>
<path d="M804.085 13.6725C807.419 26.28 796.099 41.5256 783.585 41.2668C776.758 41.125 771.658 36.9192 770.291 30.2157C770.026 28.8991 769.686 27.5038 769.878 26.208C770.677 20.6089 771.194 14.8983 772.703 9.48344C774.367 3.49837 779.041 0.450936 785.225 0.0384403C793.852 -0.533407 801.873 5.33438 804.085 13.6725ZM782.246 30.7676C784.17 33.0602 786.385 33.2375 788.845 32.1929C792.124 30.7967 794.315 27.5997 794.257 24.3446C794.21 21.5821 793.026 19.5429 790.472 18.3883C788.668 17.572 787.423 17.8508 786.653 19.907C785.299 23.5184 783.768 27.045 782.246 30.7676Z" fill="url(#paint33_linear_364_779)"/>
<path d="M465.191 175.166C465.389 178.614 466.042 182.118 465.674 185.509C464.972 192.128 460.782 196.697 455.061 199.409C448.889 202.329 442.338 204.448 435.949 206.93C434.236 207.599 432.568 208.398 430.824 208.909C427.938 209.76 426.297 211.234 426.897 214.542C426.974 214.951 425.681 216.08 425.039 216.065C420.048 215.959 416.208 210.128 417.358 204.567C418.14 200.789 420.47 198.029 423.813 196.461C429.057 194.021 434.503 192.044 439.821 189.76C442.832 188.469 445.785 187.05 448.691 185.533C450.989 184.334 451.963 182.344 451.436 179.721C451.076 177.924 450.725 176.124 450.344 174.332C449.381 169.832 450.903 166.396 454.392 165.252C458.167 164.02 461.604 166.007 463.333 170.488C463.929 172.013 464.366 173.603 464.882 175.16C464.98 175.156 465.091 175.16 465.191 175.166Z" fill="url(#paint34_linear_364_779)"/>
<path d="M136.762 232.962C134.753 232.939 132.719 233.109 130.745 232.845C116.064 230.909 102.287 226.1 89.0371 219.607C88.7822 219.477 88.5348 219.334 88.2745 219.184C83.4319 216.429 81.592 212.847 82.9839 208.884C84.3343 205.054 88.2582 203.066 93.5446 204.028C97.4188 204.73 101.322 205.622 104.989 207.029C114.988 210.836 124.881 214.903 134.758 218.996C136.503 219.718 138.183 220.853 139.543 222.152C143.729 226.151 142.342 231.158 136.762 232.962Z" fill="url(#paint35_linear_364_779)"/>
<path d="M216.953 217.675C216.062 219.235 215.417 221.016 214.232 222.302C212.222 224.492 209.73 226.239 207.73 228.427C206.47 229.8 205.522 231.562 204.812 233.305C203.815 235.742 202.335 237.449 199.697 237.87C197.079 238.285 195.252 236.968 193.335 235.235C189.962 232.175 186.356 229.309 182.579 226.753C180.63 225.436 178.894 224.294 178.679 221.807C178.46 219.267 179.944 217.658 181.926 216.433C187.853 212.764 193.291 208.543 197.692 203.036C200.348 199.725 202.804 199.53 205.571 202.753C209.246 207.021 212.427 211.707 215.804 216.22C216.029 216.524 216.113 216.92 216.263 217.276C216.495 217.401 216.729 217.536 216.953 217.675ZM193.428 219.32C198.538 223.523 199.98 223.401 204.223 218.377C203.03 216.472 201.825 214.559 200.622 212.657C198.162 214.935 195.789 217.124 193.428 219.32Z" fill="url(#paint36_linear_364_779)"/>
<path d="M1014.52 90.4008C1014.14 89.4345 1013.87 88.407 1013.35 87.5203C1011.11 83.6282 1011.33 79.8035 1014.06 76.2078C1018.48 70.4324 1026.84 68.6111 1033.99 71.8591C1041.16 75.1145 1044.63 81.4966 1043.06 89.0307C1041.88 94.7214 1039.38 99.7399 1033.67 102.118C1025.02 105.725 1016.3 100.374 1014.52 90.4008ZM1023.54 83.7671C1024.7 87.0012 1025.27 89.4713 1026.43 91.614C1027.83 94.2017 1030.74 94.2591 1032.37 92.0595C1034.36 89.3587 1033.3 85.4572 1030.12 84.5142C1028.35 83.9863 1026.4 84.0575 1023.54 83.7671Z" fill="url(#paint37_linear_364_779)"/>
<path d="M969.011 328.994C964.63 330.179 962.17 328.636 962.023 324.843C961.747 317.737 961.404 310.583 961.954 303.52C962.168 300.786 964.378 297.948 966.292 295.684C967.998 293.674 971.422 294.133 973.12 296.652C976.471 301.601 981.391 303.289 986.807 304.327C987.653 304.485 988.515 304.706 989.295 305.07C992.427 306.532 992.767 309.855 990.107 312.043C984.162 316.917 978.264 321.846 972.306 326.713C971.06 327.729 969.653 328.558 969.011 328.994Z" fill="url(#paint38_linear_364_779)"/>
<path d="M866.823 294.839C869.663 305.476 866.416 314.55 858.886 319.343C856.086 321.128 855.342 320.733 854.791 317.445C853.361 309.029 850.126 301.351 845.036 294.51C841.944 290.361 841.484 286.674 844.049 283.432C846.547 280.274 851.181 279.253 855.389 281.242C861.77 284.234 865.199 289.68 866.823 294.839Z" fill="url(#paint39_linear_364_779)"/>
<path d="M1226.45 358.109C1226.65 360.281 1227.21 362.431 1226.89 364.434C1226.71 365.538 1225.2 366.606 1224.05 367.352C1221.26 369.192 1218.21 370.646 1215.48 372.578C1210.07 376.406 1203.67 373.915 1203.02 367.295C1202.32 360.17 1203.38 353.168 1206.59 346.713C1209.68 340.514 1215.79 340.043 1220.02 345.528C1221.13 346.969 1222.1 348.561 1222.9 350.196C1224.19 352.801 1225.28 355.482 1226.45 358.109Z" fill="url(#paint40_linear_364_779)"/>
<path d="M121.934 243.41C125.25 242.808 128.57 242.183 131.887 241.624C132.928 241.444 134.002 241.388 135.055 241.414C138.609 241.497 141.261 243.264 142.047 245.994C142.817 248.661 141.812 251.684 138.926 253.481C131.64 258.033 123.555 260.628 115.195 262.241C112.026 262.859 109.285 261.335 107.735 258.381C106.197 255.435 106.469 252.344 108.722 250.034C110.544 248.169 112.956 246.741 115.337 245.607C117.386 244.629 119.771 244.331 121.999 243.734C121.989 243.616 121.962 243.513 121.934 243.41Z" fill="url(#paint41_linear_364_779)"/>
<path d="M317.581 435.533C321.308 434.534 325.032 433.525 328.764 432.547C329.599 432.335 330.467 432.168 331.33 432.102C335.038 431.813 337.845 433.297 338.694 435.932C339.543 438.568 338.224 441.774 334.991 443.345C326.422 447.502 317.372 450.235 307.874 451.172C303.735 451.576 300.498 448.898 300.029 445.423C299.531 441.801 301.709 438.718 305.865 437.637C309.69 436.634 313.591 435.919 317.46 435.081C317.499 435.225 317.54 435.379 317.581 435.533Z" fill="url(#paint42_linear_364_779)"/>
<path d="M838.704 234.451C838.007 242.567 837.423 250.696 836.486 258.777C836.361 259.911 834.672 261.41 833.455 261.714C832.381 261.98 830.419 261.184 829.776 260.222C826.69 255.686 822.651 252.562 817.692 250.278C813.464 248.339 813.294 243.473 817.015 240.648C820.617 237.91 824.14 235.083 827.8 232.439C829.007 231.565 830.479 230.896 831.924 230.542C834.99 229.786 837.218 231.325 837.907 234.389C838.165 234.408 838.436 234.435 838.704 234.451Z" fill="url(#paint43_linear_364_779)"/>
<path d="M519.169 464.946C511.934 465.045 508.427 459.719 503.779 455.844C501.88 457.994 500.041 460.083 498.209 462.16C497.635 462.809 497.121 463.519 496.518 464.143C494.478 466.221 492.027 466.602 490.006 465.217C487.971 463.824 487.311 461.28 488.715 458.757C491.49 453.796 494.285 448.829 497.391 444.077C500.553 439.243 506.727 438.756 510.137 443.348C514.785 449.569 517.468 456.79 519.169 464.946Z" fill="url(#paint44_linear_364_779)"/>
<path d="M675.367 212.111C674.924 206.228 674.393 199.4 673.916 192.568C673.738 189.973 673.544 187.36 673.639 184.758C673.776 180.834 676.223 178.306 679.623 178.221C682.806 178.15 685.618 180.557 685.772 184.293C686.138 193.544 686.265 202.804 686.25 212.069C686.246 215.462 684.019 217.501 681.113 217.663C678.519 217.797 676.406 216.028 675.367 212.111Z" fill="url(#paint45_linear_364_779)"/>
<path d="M886.706 222.393C886.652 220.425 886.454 218.21 886.546 216.005C886.759 210.805 886.969 205.595 887.441 200.414C887.631 198.249 888.175 196.011 889.075 194.03C890.317 191.274 893.191 190.173 895.839 190.94C898.368 191.672 900.223 193.994 900.001 196.861C899.401 204.642 898.667 212.415 897.819 220.175C897.641 221.852 896.904 223.536 896.123 225.056C894.127 228.939 890.703 229.097 888.292 225.481C887.711 224.623 887.333 223.623 886.706 222.393Z" fill="url(#paint46_linear_364_779)"/>
<path d="M1238.05 459.396C1233.04 460.738 1229.04 458.387 1228.54 453.96C1227.81 447.373 1229.63 441.137 1232.55 435.322C1234.03 432.382 1237.83 432.389 1240.73 435.246C1243.45 437.93 1245.92 440.879 1248.27 443.895C1248.92 444.733 1249.28 446.456 1248.87 447.378C1246.51 452.836 1242.56 456.901 1238.05 459.396Z" fill="url(#paint47_linear_364_779)"/>
<path d="M1100.59 610.744C1102.65 610.996 1104.77 611.012 1106.74 611.562C1109.51 612.339 1110.7 615.258 1109.49 618.127C1107.65 622.464 1105.75 626.783 1103.65 631C1101.77 634.799 1098.89 635.272 1095.74 632.461C1093.22 630.217 1090.79 627.884 1088.41 625.516C1084.93 622.065 1085.81 617.236 1090.27 615.105C1091.14 614.686 1092.03 614.305 1092.93 613.975C1095.46 613.056 1098 612.165 1100.54 611.263C1100.55 611.085 1100.57 610.914 1100.59 610.744Z" fill="url(#paint48_linear_364_779)"/>
<path d="M828.516 124.89C827.564 119.573 826.644 114.743 825.857 109.877C825.264 106.226 826.661 103.638 829.418 102.877C832.122 102.131 835.18 103.602 836.055 107.034C837.535 112.805 838.366 118.738 839.497 124.602C839.969 127.063 840.653 129.49 840.912 131.975C841.051 133.358 840.982 135.48 840.151 136.077C838.969 136.922 836.577 137.398 835.457 136.751C833.593 135.665 831.959 133.757 830.903 131.827C829.673 129.579 829.182 126.925 828.516 124.89Z" fill="url(#paint49_linear_364_779)"/>
<path d="M255.949 479.137C254.388 479.556 252.475 480.134 250.522 480.569C248.519 481.018 246.494 480.977 245.687 478.661C244.833 476.213 246.384 474.818 248.399 473.958C252.031 472.402 255.668 470.821 259.4 469.513C263.826 467.964 267.386 470.941 266.422 475.516C265.689 478.983 264.295 482.319 263.2 485.707C262.435 488.07 260.726 488.055 259.583 486.5C258.153 484.571 257.382 482.145 255.949 479.137Z" fill="url(#paint50_linear_364_779)"/>
<path d="M679.419 502.539C680.801 508.027 678.67 512.925 674.456 513.955C670.677 514.88 666.322 512.016 665.252 507.898C663.933 502.812 666.201 497.766 670.272 496.697C674.356 495.636 678.326 498.173 679.419 502.539Z" fill="url(#paint51_linear_364_779)"/>
<path d="M209.261 355.405C209.541 355.341 209.821 355.277 210.103 355.223C214.271 354.393 217.644 355.604 219.476 358.582C221.117 361.258 220.858 364.477 218.803 366.911C216.432 369.726 212.648 370.553 208.798 369.118C208.528 369.014 208.265 368.897 208.003 368.781C204.161 367.09 202.378 364.749 202.662 361.743C202.941 358.717 205.463 356.302 209.261 355.405Z" fill="url(#paint52_linear_364_779)"/>
<path d="M124.434 642.536C120.142 643.642 115.771 641.047 114.581 636.686C113.434 632.489 115.806 628.362 119.997 627.25C124.414 626.078 129.001 628.78 130.068 633.174C131.085 637.34 128.61 641.45 124.434 642.536Z" fill="url(#paint53_linear_364_779)"/>
<path d="M180.316 304.753C179.474 304.031 179.24 303.94 179.199 303.786C177.629 298.381 181.571 286.808 186.066 283.544C188.083 282.079 190.209 281.84 192.183 283.458C194.186 285.102 194.547 287.516 193.055 289.424C189.003 294.628 184.642 299.585 180.316 304.753Z" fill="url(#paint54_linear_364_779)"/>
<path d="M222.852 639.18C224.038 644.137 221.887 648.348 217.685 649.297C214.019 650.114 210.466 647.818 209.613 644.06C208.738 640.176 211.661 635.153 215.37 634.17C218.802 633.262 221.942 635.372 222.852 639.18Z" fill="url(#paint55_linear_364_779)"/>
<path d="M49.6111 366.006C45.9583 366.951 42.8874 365.429 42.0209 362.236C41.0093 358.543 44.785 352.84 48.8883 351.85C52.1675 351.071 55.4547 353.031 56.2465 356.233C57.183 360.056 53.8827 364.905 49.6111 366.006Z" fill="url(#paint56_linear_364_779)"/>
<path d="M1007.5 435.728C1007.74 437.272 1008.04 439.174 1008.31 441.084C1008.36 441.455 1008.32 441.853 1008.27 442.241C1007.87 445.209 1005.96 445.909 999.624 445.382C996.88 445.16 995.38 443.668 995.707 441.113C996.177 437.32 998.08 434.156 1000.99 431.791C1003.5 429.742 1006.36 431.454 1007.5 435.728Z" fill="url(#paint57_linear_364_779)"/>
<path d="M701.079 177.603C697.504 178.594 694.119 176.594 693.12 172.908C692.201 169.521 693.951 166.155 697.077 165.296C700.56 164.33 704.601 166.804 705.55 170.47C706.441 173.92 704.767 176.582 701.079 177.603Z" fill="url(#paint58_linear_364_779)"/>
<path d="M994.935 278.153C998.209 277.353 1001.44 278.953 1002.21 281.776C1003 284.691 1001.13 287.87 998.249 288.509C995.195 289.184 991.635 287.109 990.973 284.269C990.334 281.555 992.085 278.851 994.935 278.153Z" fill="url(#paint59_linear_364_779)"/>
<path d="M538.918 530.682C539.618 533.457 537.897 536.275 535.136 536.894C532.477 537.485 529.798 535.824 529.132 533.172C528.438 530.418 530.164 527.577 532.927 526.969C535.596 526.375 538.246 528.01 538.918 530.682Z" fill="url(#paint60_linear_364_779)"/>
<path d="M427.575 166.601C429.953 166.03 432.354 167.435 432.992 169.775C433.665 172.248 432.177 174.784 429.701 175.359C427.3 175.925 424.899 174.52 424.274 172.188C423.614 169.722 425.105 167.197 427.575 166.601Z" fill="url(#paint61_linear_364_779)"/>
<path d="M425.67 127.171C427.832 126.658 430.312 128.317 430.711 130.544C431.041 132.35 430.468 133.825 428.616 134.431C426.693 135.057 424.138 133.363 423.577 131.145C423.063 129.147 423.775 127.778 425.67 127.171Z" fill="url(#paint62_linear_364_779)"/>
<path d="M272.092 459.923C270.683 461.644 270.033 463.162 269.022 463.455C268.196 463.698 266.946 462.48 265.892 461.915C266.545 460.782 266.955 459.229 267.935 458.658C268.588 458.263 270.052 459.248 272.092 459.923Z" fill="url(#paint63_linear_364_779)"/>
<path d="M1022.75 551.167C1022.25 548.317 1021.37 545.47 1021.39 542.624C1021.4 540.869 1022.34 538.426 1023.69 537.56C1025.02 536.707 1027.69 536.828 1029.22 537.617C1031.92 538.999 1034.19 541.209 1036.64 543.064C1038.39 544.4 1040.29 545.576 1041.83 547.114C1043.12 548.408 1044.7 550.087 1044.8 551.69C1044.88 552.891 1042.95 554.399 1041.66 555.461C1040.28 556.603 1038.7 557.708 1037.01 558.226C1034.05 559.143 1030.95 559.917 1027.87 560.048C1026.79 560.097 1025.23 558.268 1024.57 556.947C1023.68 555.182 1023.42 553.081 1022.9 551.129C1022.86 551.15 1022.81 551.164 1022.75 551.167Z" fill="url(#paint64_linear_364_779)"/>
<path d="M1014.93 529.589C1015.96 533.826 1014.05 537.852 1010.57 538.761C1006.33 539.864 1003.18 538.484 1002.35 535.172C1001.24 530.789 1003.7 525.704 1007.39 524.714C1010.87 523.805 1014.01 525.827 1014.93 529.589Z" fill="url(#paint65_linear_364_779)"/>
<path d="M1070.85 580.401C1068.28 581.089 1064.74 578.955 1064.05 576.299C1063.41 573.817 1064.98 571.193 1067.54 570.451C1070.26 569.668 1073.33 571.423 1074.14 574.211C1074.92 576.92 1073.45 579.705 1070.85 580.401Z" fill="url(#paint66_linear_364_779)"/>
<path d="M584.341 357.26C583.635 356.106 583.12 355.209 582.566 354.333C578.859 348.422 576.624 341.973 575.79 335.083C575.515 332.822 575.574 330.416 576.011 328.185C577.042 322.876 581.213 319.347 586.242 319.101C591.25 318.86 595.564 322.065 597.162 327.33C597.918 329.825 598.37 332.413 599.185 334.882C602.592 345.212 608.514 353.272 618.951 357.644C622.436 359.111 625.622 361.517 628.6 363.924C631.844 366.545 631.55 367.869 628.035 369.945C623.864 372.406 619.319 373.062 614.627 372.513C607.494 371.682 600.544 370.219 594.225 366.472C593.363 365.965 591.62 366.234 590.634 366.785C562.03 382.862 526.802 375.817 505.508 356.756C491.716 344.418 483.602 329.127 482.913 310.414C482.027 286.535 496.251 265.413 519.087 256.145C527.314 252.806 535.776 250.219 544.698 251.198C549.8 251.758 554.798 253.492 559.77 254.923C561.941 255.553 563.498 257.217 563.123 259.718C562.741 262.276 560.674 262.896 558.425 263.212C552.024 264.124 545.608 264.984 539.232 266.075C515.692 270.126 499.957 288.36 500.529 310.947C500.818 322.498 505.133 332.564 512.374 341.437C529.232 362.094 558.013 369.513 580.814 359.087C581.942 358.575 583.009 357.959 584.341 357.26Z" fill="url(#paint67_linear_364_779)"/>
</g>
<defs>
<linearGradient id="paint0_linear_364_779" x1="1402.78" y1="564.5" x2="-116.072" y2="549.613" gradientUnits="userSpaceOnUse">
<stop offset="0.05" stop-color="white" stop-opacity="0"/>
<stop offset="0.514423" stop-color="white"/>
<stop offset="0.95" stop-color="white" stop-opacity="0.029703"/>
</linearGradient>
<linearGradient id="paint1_linear_364_779" x1="1402.78" y1="564.5" x2="-116.072" y2="549.613" gradientUnits="userSpaceOnUse">
<stop offset="0.05" stop-color="white" stop-opacity="0"/>
<stop offset="0.514423" stop-color="white"/>
<stop offset="0.95" stop-color="white" stop-opacity="0.029703"/>
</linearGradient>
<linearGradient id="paint2_linear_364_779" x1="1402.78" y1="564.5" x2="-116.072" y2="549.613" gradientUnits="userSpaceOnUse">
<stop offset="0.05" stop-color="white" stop-opacity="0"/>
<stop offset="0.514423" stop-color="white"/>
<stop offset="0.95" stop-color="white" stop-opacity="0.029703"/>
</linearGradient>
<linearGradient id="paint3_linear_364_779" x1="1402.78" y1="564.5" x2="-116.072" y2="549.613" gradientUnits="userSpaceOnUse">
<stop offset="0.05" stop-color="white" stop-opacity="0"/>
<stop offset="0.514423" stop-color="white"/>
<stop offset="0.95" stop-color="white" stop-opacity="0.029703"/>
</linearGradient>
<linearGradient id="paint4_linear_364_779" x1="1402.78" y1="564.5" x2="-116.072" y2="549.613" gradientUnits="userSpaceOnUse">
<stop offset="0.05" stop-color="white" stop-opacity="0"/>
<stop offset="0.514423" stop-color="white"/>
<stop offset="0.95" stop-color="white" stop-opacity="0.029703"/>
</linearGradient>
<linearGradient id="paint5_linear_364_779" x1="1402.78" y1="564.5" x2="-116.072" y2="549.613" gradientUnits="userSpaceOnUse">
<stop offset="0.05" stop-color="white" stop-opacity="0"/>
<stop offset="0.514423" stop-color="white"/>
<stop offset="0.95" stop-color="white" stop-opacity="0.029703"/>
</linearGradient>
<linearGradient id="paint6_linear_364_779" x1="1402.78" y1="564.5" x2="-116.072" y2="549.613" gradientUnits="userSpaceOnUse">
<stop offset="0.05" stop-color="white" stop-opacity="0"/>
<stop offset="0.514423" stop-color="white"/>
<stop offset="0.95" stop-color="white" stop-opacity="0.029703"/>
</linearGradient>
<linearGradient id="paint7_linear_364_779" x1="1402.78" y1="564.5" x2="-116.072" y2="549.613" gradientUnits="userSpaceOnUse">
<stop offset="0.05" stop-color="white" stop-opacity="0"/>
<stop offset="0.514423" stop-color="white"/>
<stop offset="0.95" stop-color="white" stop-opacity="0.029703"/>
</linearGradient>
<linearGradient id="paint8_linear_364_779" x1="1402.78" y1="564.5" x2="-116.072" y2="549.613" gradientUnits="userSpaceOnUse">
<stop offset="0.05" stop-color="white" stop-opacity="0"/>
<stop offset="0.514423" stop-color="white"/>
<stop offset="0.95" stop-color="white" stop-opacity="0.029703"/>
</linearGradient>
<linearGradient id="paint9_linear_364_779" x1="1402.78" y1="564.5" x2="-116.072" y2="549.613" gradientUnits="userSpaceOnUse">
<stop offset="0.05" stop-color="white" stop-opacity="0"/>
<stop offset="0.514423" stop-color="white"/>
<stop offset="0.95" stop-color="white" stop-opacity="0.029703"/>
</linearGradient>
<linearGradient id="paint10_linear_364_779" x1="1402.78" y1="564.5" x2="-116.072" y2="549.613" gradientUnits="userSpaceOnUse">
<stop offset="0.05" stop-color="white" stop-opacity="0"/>
<stop offset="0.514423" stop-color="white"/>
<stop offset="0.95" stop-color="white" stop-opacity="0.029703"/>
</linearGradient>
<linearGradient id="paint11_linear_364_779" x1="1402.78" y1="564.5" x2="-116.072" y2="549.613" gradientUnits="userSpaceOnUse">
<stop offset="0.05" stop-color="white" stop-opacity="0"/>
<stop offset="0.514423" stop-color="white"/>
<stop offset="0.95" stop-color="white" stop-opacity="0.029703"/>
</linearGradient>
<linearGradient id="paint12_linear_364_779" x1="1402.78" y1="564.5" x2="-116.072" y2="549.613" gradientUnits="userSpaceOnUse">
<stop offset="0.05" stop-color="white" stop-opacity="0"/>
<stop offset="0.514423" stop-color="white"/>
<stop offset="0.95" stop-color="white" stop-opacity="0.029703"/>
</linearGradient>
<linearGradient id="paint13_linear_364_779" x1="1402.78" y1="564.5" x2="-116.072" y2="549.613" gradientUnits="userSpaceOnUse">
<stop offset="0.05" stop-color="white" stop-opacity="0"/>
<stop offset="0.514423" stop-color="white"/>
<stop offset="0.95" stop-color="white" stop-opacity="0.029703"/>
</linearGradient>
<linearGradient id="paint14_linear_364_779" x1="1402.78" y1="564.5" x2="-116.072" y2="549.613" gradientUnits="userSpaceOnUse">
<stop offset="0.05" stop-color="white" stop-opacity="0"/>
<stop offset="0.514423" stop-color="white"/>
<stop offset="0.95" stop-color="white" stop-opacity="0.029703"/>
</linearGradient>
<linearGradient id="paint15_linear_364_779" x1="1402.78" y1="564.5" x2="-116.072" y2="549.613" gradientUnits="userSpaceOnUse">
<stop offset="0.05" stop-color="white" stop-opacity="0"/>
<stop offset="0.514423" stop-color="white"/>
<stop offset="0.95" stop-color="white" stop-opacity="0.029703"/>
</linearGradient>
<linearGradient id="paint16_linear_364_779" x1="1402.78" y1="564.5" x2="-116.072" y2="549.613" gradientUnits="userSpaceOnUse">
<stop offset="0.05" stop-color="white" stop-opacity="0"/>
<stop offset="0.514423" stop-color="white"/>
<stop offset="0.95" stop-color="white" stop-opacity="0.029703"/>
</linearGradient>
<linearGradient id="paint17_linear_364_779" x1="1402.78" y1="564.5" x2="-116.072" y2="549.613" gradientUnits="userSpaceOnUse">
<stop offset="0.05" stop-color="white" stop-opacity="0"/>
<stop offset="0.514423" stop-color="white"/>
<stop offset="0.95" stop-color="white" stop-opacity="0.029703"/>
</linearGradient>
<linearGradient id="paint18_linear_364_779" x1="1402.78" y1="564.5" x2="-116.072" y2="549.613" gradientUnits="userSpaceOnUse">
<stop offset="0.05" stop-color="white" stop-opacity="0"/>
<stop offset="0.514423" stop-color="white"/>
<stop offset="0.95" stop-color="white" stop-opacity="0.029703"/>
</linearGradient>
<linearGradient id="paint19_linear_364_779" x1="1402.78" y1="564.5" x2="-116.072" y2="549.613" gradientUnits="userSpaceOnUse">
<stop offset="0.05" stop-color="white" stop-opacity="0"/>
<stop offset="0.514423" stop-color="white"/>
<stop offset="0.95" stop-color="white" stop-opacity="0.029703"/>
</linearGradient>
<linearGradient id="paint20_linear_364_779" x1="1402.78" y1="564.5" x2="-116.072" y2="549.613" gradientUnits="userSpaceOnUse">
<stop offset="0.05" stop-color="white" stop-opacity="0"/>
<stop offset="0.514423" stop-color="white"/>
<stop offset="0.95" stop-color="white" stop-opacity="0.029703"/>
</linearGradient>
<linearGradient id="paint21_linear_364_779" x1="1402.78" y1="564.5" x2="-116.072" y2="549.613" gradientUnits="userSpaceOnUse">
<stop offset="0.05" stop-color="white" stop-opacity="0"/>
<stop offset="0.514423" stop-color="white"/>
<stop offset="0.95" stop-color="white" stop-opacity="0.029703"/>
</linearGradient>
<linearGradient id="paint22_linear_364_779" x1="1402.78" y1="564.5" x2="-116.072" y2="549.613" gradientUnits="userSpaceOnUse">
<stop offset="0.05" stop-color="white" stop-opacity="0"/>
<stop offset="0.514423" stop-color="white"/>
<stop offset="0.95" stop-color="white" stop-opacity="0.029703"/>
</linearGradient>
<linearGradient id="paint23_linear_364_779" x1="1402.78" y1="564.5" x2="-116.072" y2="549.613" gradientUnits="userSpaceOnUse">
<stop offset="0.05" stop-color="white" stop-opacity="0"/>
<stop offset="0.514423" stop-color="white"/>
<stop offset="0.95" stop-color="white" stop-opacity="0.029703"/>
</linearGradient>
<linearGradient id="paint24_linear_364_779" x1="1402.78" y1="564.5" x2="-116.072" y2="549.613" gradientUnits="userSpaceOnUse">
<stop offset="0.05" stop-color="white" stop-opacity="0"/>
<stop offset="0.514423" stop-color="white"/>
<stop offset="0.95" stop-color="white" stop-opacity="0.029703"/>
</linearGradient>
<linearGradient id="paint25_linear_364_779" x1="1402.78" y1="564.5" x2="-116.072" y2="549.613" gradientUnits="userSpaceOnUse">
<stop offset="0.05" stop-color="white" stop-opacity="0"/>
<stop offset="0.514423" stop-color="white"/>
<stop offset="0.95" stop-color="white" stop-opacity="0.029703"/>
</linearGradient>
<linearGradient id="paint26_linear_364_779" x1="1402.78" y1="564.5" x2="-116.072" y2="549.613" gradientUnits="userSpaceOnUse">
<stop offset="0.05" stop-color="white" stop-opacity="0"/>
<stop offset="0.514423" stop-color="white"/>
<stop offset="0.95" stop-color="white" stop-opacity="0.029703"/>
</linearGradient>
<linearGradient id="paint27_linear_364_779" x1="1402.78" y1="564.5" x2="-116.072" y2="549.613" gradientUnits="userSpaceOnUse">
<stop offset="0.05" stop-color="white" stop-opacity="0"/>
<stop offset="0.514423" stop-color="white"/>
<stop offset="0.95" stop-color="white" stop-opacity="0.029703"/>
</linearGradient>
<linearGradient id="paint28_linear_364_779" x1="1402.78" y1="564.5" x2="-116.072" y2="549.613" gradientUnits="userSpaceOnUse">
<stop offset="0.05" stop-color="white" stop-opacity="0"/>
<stop offset="0.514423" stop-color="white"/>
<stop offset="0.95" stop-color="white" stop-opacity="0.029703"/>
</linearGradient>
<linearGradient id="paint29_linear_364_779" x1="1402.78" y1="564.5" x2="-116.072" y2="549.613" gradientUnits="userSpaceOnUse">
<stop offset="0.05" stop-color="white" stop-opacity="0"/>
<stop offset="0.514423" stop-color="white"/>
<stop offset="0.95" stop-color="white" stop-opacity="0.029703"/>
</linearGradient>
<linearGradient id="paint30_linear_364_779" x1="1402.78" y1="564.5" x2="-116.072" y2="549.613" gradientUnits="userSpaceOnUse">
<stop offset="0.05" stop-color="white" stop-opacity="0"/>
<stop offset="0.514423" stop-color="white"/>
<stop offset="0.95" stop-color="white" stop-opacity="0.029703"/>
</linearGradient>
<linearGradient id="paint31_linear_364_779" x1="1402.78" y1="564.5" x2="-116.072" y2="549.613" gradientUnits="userSpaceOnUse">
<stop offset="0.05" stop-color="white" stop-opacity="0"/>
<stop offset="0.514423" stop-color="white"/>
<stop offset="0.95" stop-color="white" stop-opacity="0.029703"/>
</linearGradient>
<linearGradient id="paint32_linear_364_779" x1="1402.78" y1="564.5" x2="-116.072" y2="549.613" gradientUnits="userSpaceOnUse">
<stop offset="0.05" stop-color="white" stop-opacity="0"/>
<stop offset="0.514423" stop-color="white"/>
<stop offset="0.95" stop-color="white" stop-opacity="0.029703"/>
</linearGradient>
<linearGradient id="paint33_linear_364_779" x1="1402.78" y1="564.5" x2="-116.072" y2="549.613" gradientUnits="userSpaceOnUse">
<stop offset="0.05" stop-color="white" stop-opacity="0"/>
<stop offset="0.514423" stop-color="white"/>
<stop offset="0.95" stop-color="white" stop-opacity="0.029703"/>
</linearGradient>
<linearGradient id="paint34_linear_364_779" x1="1402.78" y1="564.5" x2="-116.072" y2="549.613" gradientUnits="userSpaceOnUse">
<stop offset="0.05" stop-color="white" stop-opacity="0"/>
<stop offset="0.514423" stop-color="white"/>
<stop offset="0.95" stop-color="white" stop-opacity="0.029703"/>
</linearGradient>
<linearGradient id="paint35_linear_364_779" x1="1402.78" y1="564.5" x2="-116.072" y2="549.613" gradientUnits="userSpaceOnUse">
<stop offset="0.05" stop-color="white" stop-opacity="0"/>
<stop offset="0.514423" stop-color="white"/>
<stop offset="0.95" stop-color="white" stop-opacity="0.029703"/>
</linearGradient>
<linearGradient id="paint36_linear_364_779" x1="1402.78" y1="564.5" x2="-116.072" y2="549.613" gradientUnits="userSpaceOnUse">
<stop offset="0.05" stop-color="white" stop-opacity="0"/>
<stop offset="0.514423" stop-color="white"/>
<stop offset="0.95" stop-color="white" stop-opacity="0.029703"/>
</linearGradient>
<linearGradient id="paint37_linear_364_779" x1="1402.78" y1="564.5" x2="-116.072" y2="549.613" gradientUnits="userSpaceOnUse">
<stop offset="0.05" stop-color="white" stop-opacity="0"/>
<stop offset="0.514423" stop-color="white"/>
<stop offset="0.95" stop-color="white" stop-opacity="0.029703"/>
</linearGradient>
<linearGradient id="paint38_linear_364_779" x1="1402.78" y1="564.5" x2="-116.072" y2="549.613" gradientUnits="userSpaceOnUse">
<stop offset="0.05" stop-color="white" stop-opacity="0"/>
<stop offset="0.514423" stop-color="white"/>
<stop offset="0.95" stop-color="white" stop-opacity="0.029703"/>
</linearGradient>
<linearGradient id="paint39_linear_364_779" x1="1402.78" y1="564.5" x2="-116.072" y2="549.613" gradientUnits="userSpaceOnUse">
<stop offset="0.05" stop-color="white" stop-opacity="0"/>
<stop offset="0.514423" stop-color="white"/>
<stop offset="0.95" stop-color="white" stop-opacity="0.029703"/>
</linearGradient>
<linearGradient id="paint40_linear_364_779" x1="1402.78" y1="564.5" x2="-116.072" y2="549.613" gradientUnits="userSpaceOnUse">
<stop offset="0.05" stop-color="white" stop-opacity="0"/>
<stop offset="0.514423" stop-color="white"/>
<stop offset="0.95" stop-color="white" stop-opacity="0.029703"/>
</linearGradient>
<linearGradient id="paint41_linear_364_779" x1="1402.78" y1="564.5" x2="-116.072" y2="549.613" gradientUnits="userSpaceOnUse">
<stop offset="0.05" stop-color="white" stop-opacity="0"/>
<stop offset="0.514423" stop-color="white"/>
<stop offset="0.95" stop-color="white" stop-opacity="0.029703"/>
</linearGradient>
<linearGradient id="paint42_linear_364_779" x1="1402.78" y1="564.5" x2="-116.072" y2="549.613" gradientUnits="userSpaceOnUse">
<stop offset="0.05" stop-color="white" stop-opacity="0"/>
<stop offset="0.514423" stop-color="white"/>
<stop offset="0.95" stop-color="white" stop-opacity="0.029703"/>
</linearGradient>
<linearGradient id="paint43_linear_364_779" x1="1402.78" y1="564.5" x2="-116.072" y2="549.613" gradientUnits="userSpaceOnUse">
<stop offset="0.05" stop-color="white" stop-opacity="0"/>
<stop offset="0.514423" stop-color="white"/>
<stop offset="0.95" stop-color="white" stop-opacity="0.029703"/>
</linearGradient>
<linearGradient id="paint44_linear_364_779" x1="1402.78" y1="564.5" x2="-116.072" y2="549.613" gradientUnits="userSpaceOnUse">
<stop offset="0.05" stop-color="white" stop-opacity="0"/>
<stop offset="0.514423" stop-color="white"/>
<stop offset="0.95" stop-color="white" stop-opacity="0.029703"/>
</linearGradient>
<linearGradient id="paint45_linear_364_779" x1="1402.78" y1="564.5" x2="-116.072" y2="549.613" gradientUnits="userSpaceOnUse">
<stop offset="0.05" stop-color="white" stop-opacity="0"/>
<stop offset="0.514423" stop-color="white"/>
<stop offset="0.95" stop-color="white" stop-opacity="0.029703"/>
</linearGradient>
<linearGradient id="paint46_linear_364_779" x1="1402.78" y1="564.5" x2="-116.072" y2="549.613" gradientUnits="userSpaceOnUse">
<stop offset="0.05" stop-color="white" stop-opacity="0"/>
<stop offset="0.514423" stop-color="white"/>
<stop offset="0.95" stop-color="white" stop-opacity="0.029703"/>
</linearGradient>
<linearGradient id="paint47_linear_364_779" x1="1402.78" y1="564.5" x2="-116.072" y2="549.613" gradientUnits="userSpaceOnUse">
<stop offset="0.05" stop-color="white" stop-opacity="0"/>
<stop offset="0.514423" stop-color="white"/>
<stop offset="0.95" stop-color="white" stop-opacity="0.029703"/>
</linearGradient>
<linearGradient id="paint48_linear_364_779" x1="1402.78" y1="564.5" x2="-116.072" y2="549.613" gradientUnits="userSpaceOnUse">
<stop offset="0.05" stop-color="white" stop-opacity="0"/>
<stop offset="0.514423" stop-color="white"/>
<stop offset="0.95" stop-color="white" stop-opacity="0.029703"/>
</linearGradient>
<linearGradient id="paint49_linear_364_779" x1="1402.78" y1="564.5" x2="-116.072" y2="549.613" gradientUnits="userSpaceOnUse">
<stop offset="0.05" stop-color="white" stop-opacity="0"/>
<stop offset="0.514423" stop-color="white"/>
<stop offset="0.95" stop-color="white" stop-opacity="0.029703"/>
</linearGradient>
<linearGradient id="paint50_linear_364_779" x1="1402.78" y1="564.5" x2="-116.072" y2="549.613" gradientUnits="userSpaceOnUse">
<stop offset="0.05" stop-color="white" stop-opacity="0"/>
<stop offset="0.514423" stop-color="white"/>
<stop offset="0.95" stop-color="white" stop-opacity="0.029703"/>
</linearGradient>
<linearGradient id="paint51_linear_364_779" x1="1402.78" y1="564.5" x2="-116.072" y2="549.613" gradientUnits="userSpaceOnUse">
<stop offset="0.05" stop-color="white" stop-opacity="0"/>
<stop offset="0.514423" stop-color="white"/>
<stop offset="0.95" stop-color="white" stop-opacity="0.029703"/>
</linearGradient>
<linearGradient id="paint52_linear_364_779" x1="1402.78" y1="564.5" x2="-116.072" y2="549.613" gradientUnits="userSpaceOnUse">
<stop offset="0.05" stop-color="white" stop-opacity="0"/>
<stop offset="0.514423" stop-color="white"/>
<stop offset="0.95" stop-color="white" stop-opacity="0.029703"/>
</linearGradient>
<linearGradient id="paint53_linear_364_779" x1="1402.78" y1="564.5" x2="-116.072" y2="549.613" gradientUnits="userSpaceOnUse">
<stop offset="0.05" stop-color="white" stop-opacity="0"/>
<stop offset="0.514423" stop-color="white"/>
<stop offset="0.95" stop-color="white" stop-opacity="0.029703"/>
</linearGradient>
<linearGradient id="paint54_linear_364_779" x1="1402.78" y1="564.5" x2="-116.072" y2="549.613" gradientUnits="userSpaceOnUse">
<stop offset="0.05" stop-color="white" stop-opacity="0"/>
<stop offset="0.514423" stop-color="white"/>
<stop offset="0.95" stop-color="white" stop-opacity="0.029703"/>
</linearGradient>
<linearGradient id="paint55_linear_364_779" x1="1402.78" y1="564.5" x2="-116.072" y2="549.613" gradientUnits="userSpaceOnUse">
<stop offset="0.05" stop-color="white" stop-opacity="0"/>
<stop offset="0.514423" stop-color="white"/>
<stop offset="0.95" stop-color="white" stop-opacity="0.029703"/>
</linearGradient>
<linearGradient id="paint56_linear_364_779" x1="1402.78" y1="564.5" x2="-116.072" y2="549.613" gradientUnits="userSpaceOnUse">
<stop offset="0.05" stop-color="white" stop-opacity="0"/>
<stop offset="0.514423" stop-color="white"/>
<stop offset="0.95" stop-color="white" stop-opacity="0.029703"/>
</linearGradient>
<linearGradient id="paint57_linear_364_779" x1="1402.78" y1="564.5" x2="-116.072" y2="549.613" gradientUnits="userSpaceOnUse">
<stop offset="0.05" stop-color="white" stop-opacity="0"/>
<stop offset="0.514423" stop-color="white"/>
<stop offset="0.95" stop-color="white" stop-opacity="0.029703"/>
</linearGradient>
<linearGradient id="paint58_linear_364_779" x1="1402.78" y1="564.5" x2="-116.072" y2="549.613" gradientUnits="userSpaceOnUse">
<stop offset="0.05" stop-color="white" stop-opacity="0"/>
<stop offset="0.514423" stop-color="white"/>
<stop offset="0.95" stop-color="white" stop-opacity="0.029703"/>
</linearGradient>
<linearGradient id="paint59_linear_364_779" x1="1402.78" y1="564.5" x2="-116.072" y2="549.613" gradientUnits="userSpaceOnUse">
<stop offset="0.05" stop-color="white" stop-opacity="0"/>
<stop offset="0.514423" stop-color="white"/>
<stop offset="0.95" stop-color="white" stop-opacity="0.029703"/>
</linearGradient>
<linearGradient id="paint60_linear_364_779" x1="1402.78" y1="564.5" x2="-116.072" y2="549.613" gradientUnits="userSpaceOnUse">
<stop offset="0.05" stop-color="white" stop-opacity="0"/>
<stop offset="0.514423" stop-color="white"/>
<stop offset="0.95" stop-color="white" stop-opacity="0.029703"/>
</linearGradient>
<linearGradient id="paint61_linear_364_779" x1="1402.78" y1="564.5" x2="-116.072" y2="549.613" gradientUnits="userSpaceOnUse">
<stop offset="0.05" stop-color="white" stop-opacity="0"/>
<stop offset="0.514423" stop-color="white"/>
<stop offset="0.95" stop-color="white" stop-opacity="0.029703"/>
</linearGradient>
<linearGradient id="paint62_linear_364_779" x1="1402.78" y1="564.5" x2="-116.072" y2="549.613" gradientUnits="userSpaceOnUse">
<stop offset="0.05" stop-color="white" stop-opacity="0"/>
<stop offset="0.514423" stop-color="white"/>
<stop offset="0.95" stop-color="white" stop-opacity="0.029703"/>
</linearGradient>
<linearGradient id="paint63_linear_364_779" x1="1402.78" y1="564.5" x2="-116.072" y2="549.613" gradientUnits="userSpaceOnUse">
<stop offset="0.05" stop-color="white" stop-opacity="0"/>
<stop offset="0.514423" stop-color="white"/>
<stop offset="0.95" stop-color="white" stop-opacity="0.029703"/>
</linearGradient>
<linearGradient id="paint64_linear_364_779" x1="1402.78" y1="564.5" x2="-116.072" y2="549.613" gradientUnits="userSpaceOnUse">
<stop offset="0.05" stop-color="white" stop-opacity="0"/>
<stop offset="0.514423" stop-color="white"/>
<stop offset="0.95" stop-color="white" stop-opacity="0.029703"/>
</linearGradient>
<linearGradient id="paint65_linear_364_779" x1="1402.78" y1="564.5" x2="-116.072" y2="549.613" gradientUnits="userSpaceOnUse">
<stop offset="0.05" stop-color="white" stop-opacity="0"/>
<stop offset="0.514423" stop-color="white"/>
<stop offset="0.95" stop-color="white" stop-opacity="0.029703"/>
</linearGradient>
<linearGradient id="paint66_linear_364_779" x1="1402.78" y1="564.5" x2="-116.072" y2="549.613" gradientUnits="userSpaceOnUse">
<stop offset="0.05" stop-color="white" stop-opacity="0"/>
<stop offset="0.514423" stop-color="white"/>
<stop offset="0.95" stop-color="white" stop-opacity="0.029703"/>
</linearGradient>
<linearGradient id="paint67_linear_364_779" x1="1402.78" y1="564.5" x2="-116.072" y2="549.613" gradientUnits="userSpaceOnUse">
<stop offset="0.05" stop-color="white" stop-opacity="0"/>
<stop offset="0.514423" stop-color="white"/>
<stop offset="0.95" stop-color="white" stop-opacity="0.029703"/>
</linearGradient>
</defs>
</svg>
