<svg width="20" height="21" viewBox="0 0 20 21" fill="none" xmlns="http://www.w3.org/2000/svg">
<path d="M7.646 13.1085C7.46921 13.1085 7.29243 13.0434 7.15286 12.9038C6.38989 12.1409 5.97119 11.1267 5.97119 10.0567C5.97119 7.8329 7.77626 6.02783 10 6.02783C11.0701 6.02783 12.0842 6.44653 12.8472 7.2095C12.9775 7.33976 13.0519 7.51655 13.0519 7.70264C13.0519 7.88873 12.9775 8.06551 12.8472 8.19578L8.13914 12.9038C7.99957 13.0434 7.82278 13.1085 7.646 13.1085ZM10 7.42351C8.54853 7.42351 7.36686 8.60518 7.36686 10.0567C7.36686 10.5219 7.48782 10.9685 7.71113 11.3593L11.3027 7.76777C10.9119 7.54446 10.4653 7.42351 10 7.42351Z" fill="#B700FF"/>
<path d="M4.04516 16.1139C3.88698 16.1139 3.7195 16.0581 3.58924 15.9465C2.59366 15.0997 1.70043 14.0576 0.937461 12.8481C-0.048815 11.3128 -0.048815 8.80991 0.937461 7.26536C3.20776 3.71105 6.51085 1.66406 10 1.66406C12.047 1.66406 14.0661 2.3712 15.8339 3.70175C16.141 3.93436 16.2061 4.37167 15.9735 4.67872C15.7409 4.98576 15.3036 5.0509 14.9965 4.81828C13.4706 3.66453 11.74 3.05974 10 3.05974C6.99468 3.05974 4.1196 4.86481 2.10983 8.01903C1.41199 9.10765 1.41199 11.0058 2.10983 12.0944C2.80766 13.183 3.60785 14.1228 4.49178 14.8857C4.78021 15.137 4.81743 15.5743 4.56621 15.872C4.43595 16.0302 4.24055 16.1139 4.04516 16.1139Z" fill="#B700FF"/>
<path d="M10.0001 18.4493C8.76258 18.4493 7.553 18.198 6.38994 17.7049C6.03636 17.556 5.86888 17.1466 6.01776 16.7931C6.16663 16.4395 6.57602 16.272 6.9296 16.4209C7.91587 16.8396 8.94867 17.0536 9.99077 17.0536C12.9961 17.0536 15.8712 15.2485 17.881 12.0943C18.5788 11.0057 18.5788 9.10756 17.881 8.01894C17.5925 7.56302 17.2762 7.12571 16.9412 6.71631C16.6993 6.41856 16.7458 5.98125 17.0436 5.73003C17.3413 5.48812 17.7786 5.52533 18.0298 5.83238C18.3927 6.279 18.7463 6.76283 19.0626 7.26527C20.0489 8.80051 20.0489 11.3034 19.0626 12.848C16.7924 16.4023 13.4893 18.4493 10.0001 18.4493Z" fill="#B700FF"/>
<path d="M10.642 14.0296C10.3164 14.0296 10.0186 13.797 9.9535 13.462C9.87906 13.0805 10.1303 12.7176 10.5118 12.6525C11.5353 12.4664 12.3913 11.6104 12.5774 10.5869C12.6518 10.2054 13.0147 9.96351 13.3962 10.0286C13.7776 10.1031 14.0289 10.4659 13.9544 10.8474C13.6567 12.4571 12.3727 13.7318 10.7723 14.0296C10.7258 14.0203 10.6886 14.0296 10.642 14.0296Z" fill="#B700FF"/>
<path d="M0.69551 20.0589C0.518725 20.0589 0.34194 19.9938 0.202373 19.8542C-0.0674575 19.5844 -0.0674575 19.1377 0.202373 18.8679L7.15282 11.9175C7.42265 11.6476 7.86927 11.6476 8.1391 11.9175C8.40893 12.1873 8.40893 12.6339 8.1391 12.9037L1.18865 19.8542C1.04908 19.9938 0.872296 20.0589 0.69551 20.0589Z" fill="#B700FF"/>
<path d="M12.3537 8.40044C12.1769 8.40044 12.0001 8.33531 11.8606 8.19574C11.5907 7.92591 11.5907 7.4793 11.8606 7.20947L18.811 0.259013C19.0809 -0.0108169 19.5275 -0.0108169 19.7973 0.259013C20.0671 0.528843 20.0671 0.975459 19.7973 1.24529L12.8469 8.19574C12.7073 8.33531 12.5305 8.40044 12.3537 8.40044Z" fill="#B700FF"/>
</svg>
