<svg width="20" height="19" viewBox="0 0 20 19" fill="none" xmlns="http://www.w3.org/2000/svg">
<path d="M10.0046 13.6082C7.73709 13.6082 5.89648 11.7676 5.89648 9.50001C5.89648 7.23245 7.73709 5.39185 10.0046 5.39185C12.2722 5.39185 14.1128 7.23245 14.1128 9.50001C14.1128 11.7676 12.2722 13.6082 10.0046 13.6082ZM10.0046 6.815C8.52457 6.815 7.31963 8.01993 7.31963 9.50001C7.31963 10.9801 8.52457 12.185 10.0046 12.185C11.4847 12.185 12.6897 10.9801 12.6897 9.50001C12.6897 8.01993 11.4847 6.815 10.0046 6.815Z" fill="#B700FF"/>
<path d="M10.0047 18.0579C6.43738 18.0579 3.06926 15.9706 0.754269 12.3463C-0.251423 10.7808 -0.251423 8.22867 0.754269 6.65371C3.07875 3.02943 6.44687 0.942139 10.0047 0.942139C13.5626 0.942139 16.9307 3.02943 19.2457 6.65371C20.2514 8.21918 20.2514 10.7714 19.2457 12.3463C16.9307 15.9706 13.5626 18.0579 10.0047 18.0579ZM10.0047 2.36529C6.94023 2.36529 4.00854 4.2059 1.9592 7.42222C1.24763 8.53227 1.24763 10.4678 1.9592 11.5778C4.00854 14.7941 6.94023 16.6347 10.0047 16.6347C13.0693 16.6347 16.0009 14.7941 18.0503 11.5778C18.7619 10.4678 18.7619 8.53227 18.0503 7.42222C16.0009 4.2059 13.0693 2.36529 10.0047 2.36529Z" fill="#B700FF"/>
</svg>
