<svg width="126" height="85" viewBox="0 0 126 85" fill="none" xmlns="http://www.w3.org/2000/svg">
<mask id="path-1-inside-1_195_727" fill="white">
<path d="M0.5 6.25C0.5 2.79822 3.29822 0 6.75 0H119.25C122.702 0 125.5 2.79822 125.5 6.25V85H0.5V6.25Z"/>
</mask>
<path d="M0.5 6.25C0.5 2.79822 3.29822 0 6.75 0H119.25C122.702 0 125.5 2.79822 125.5 6.25V85H0.5V6.25Z" fill="#FAF7F0"/>
<path d="M-0.75 6.25C-0.75 2.10786 2.60786 -1.25 6.75 -1.25H119.25C123.392 -1.25 126.75 2.10786 126.75 6.25H124.25C124.25 3.48858 122.011 1.25 119.25 1.25H6.75C3.98858 1.25 1.75 3.48858 1.75 6.25H-0.75ZM125.5 85H0.5H125.5ZM-0.75 85V6.25C-0.75 2.10786 2.60786 -1.25 6.75 -1.25V1.25C3.98858 1.25 1.75 3.48858 1.75 6.25V85H-0.75ZM119.25 -1.25C123.392 -1.25 126.75 2.10786 126.75 6.25V85H124.25V6.25C124.25 3.48858 122.011 1.25 119.25 1.25V-1.25Z" fill="#111111" fill-opacity="0.2" mask="url(#path-1-inside-1_195_727)"/>
<rect opacity="0.05" x="11.75" y="16.25" width="12.5" height="12.5" rx="1.25" fill="#111111"/>
<rect opacity="0.1" x="11.75" y="32.5" width="12.5" height="12.5" rx="1.25" fill="#111111"/>
<rect opacity="0.1" x="11.75" y="47.5" width="12.5" height="12.5" rx="1.25" fill="#111111"/>
<rect opacity="0.1" x="11.75" y="65" width="12.5" height="12.5" rx="1.25" fill="#111111"/>
<rect opacity="0.05" x="26.75" y="16.25" width="12.5" height="12.5" rx="1.25" fill="#111111"/>
<rect opacity="0.1" x="26.75" y="32.5" width="12.5" height="12.5" rx="1.25" fill="#111111"/>
<rect opacity="0.1" x="26.75" y="47.5" width="12.5" height="12.5" rx="1.25" fill="#111111"/>
<rect opacity="0.1" x="26.75" y="65" width="12.5" height="12.5" rx="1.25" fill="#111111"/>
<rect opacity="0.05" x="41.75" y="16.25" width="12.5" height="12.5" rx="1.25" fill="#111111"/>
<rect opacity="0.1" x="41.75" y="32.5" width="12.5" height="12.5" rx="1.25" fill="#111111"/>
<rect opacity="0.1" x="41.75" y="47.5" width="12.5" height="12.5" rx="1.25" fill="#111111"/>
<rect opacity="0.1" x="41.75" y="65" width="12.5" height="12.5" rx="1.25" fill="#111111"/>
<rect opacity="0.05" x="56.75" y="16.25" width="12.5" height="12.5" rx="1.25" fill="#111111"/>
<rect opacity="0.1" x="56.75" y="32.5" width="12.5" height="12.5" rx="1.25" fill="#111111"/>
<rect opacity="0.1" x="56.75" y="47.5" width="12.5" height="12.5" rx="1.25" fill="#111111"/>
<rect opacity="0.04" x="56.75" y="65" width="12.5" height="12.5" rx="1.25" fill="#111111"/>
<rect opacity="0.05" x="71.75" y="16.25" width="12.5" height="12.5" rx="1.25" fill="#111111"/>
<rect opacity="0.1" x="71.75" y="32.5" width="12.5" height="12.5" rx="1.25" fill="#111111"/>
<rect opacity="0.1" x="71.75" y="47.5" width="12.5" height="12.5" rx="1.25" fill="#111111"/>
<rect opacity="0.04" x="71.75" y="65" width="12.5" height="12.5" rx="1.25" fill="#111111"/>
<rect opacity="0.1" x="86.75" y="16.25" width="12.5" height="12.5" rx="1.25" fill="#111111"/>
<rect opacity="0.1" x="86.75" y="32.5" width="12.5" height="12.5" rx="1.25" fill="#111111"/>
<rect opacity="0.1" x="86.75" y="47.5" width="12.5" height="12.5" rx="1.25" fill="#111111"/>
<rect opacity="0.04" x="86.75" y="65" width="12.5" height="12.5" rx="1.25" fill="#111111"/>
<rect opacity="0.1" x="101.75" y="16.25" width="12.5" height="12.5" rx="1.25" fill="#111111"/>
<rect opacity="0.1" x="101.75" y="32.5" width="12.5" height="12.5" rx="1.25" fill="#111111"/>
<rect opacity="0.1" x="101.75" y="47.5" width="12.5" height="12.5" rx="1.25" fill="#111111"/>
<rect opacity="0.04" x="101.75" y="65" width="12.5" height="12.5" rx="1.25" fill="#111111"/>
<rect opacity="0.1" x="9.25" y="7.5" width="107.5" height="5" rx="1.25" fill="#111111"/>
</svg>
