<svg width="49" height="25" viewBox="0 0 49 25" fill="none" xmlns="http://www.w3.org/2000/svg">
<path d="M0.5 13.3083C0.5 12.6215 1.07155 12.0648 1.7766 12.0648H10.9681C11.6731 12.0648 12.2447 11.508 12.2447 10.8212V1.74352C12.2447 1.05674 12.8162 0.5 13.5213 0.5H23.734C24.4391 0.5 25.0106 1.05674 25.0106 1.74352V11.6917C25.0106 12.3785 24.4391 12.9352 23.734 12.9352H14.5426C13.8375 12.9352 13.266 13.492 13.266 14.1788V23.2565C13.266 23.9433 12.6944 24.5 11.9894 24.5H1.7766C1.07155 24.5 0.5 23.9433 0.5 23.2565V13.3083Z" fill="#111111"/>
<path d="M36.7553 13.3083C36.7553 12.6215 36.1838 12.0648 35.4787 12.0648H26.2872C25.5822 12.0648 25.0106 11.508 25.0106 10.8212V1.74352C25.0106 1.05674 24.4391 0.5 23.734 0.5H13.5213C12.8162 0.5 12.2447 1.05674 12.2447 1.74352V11.6917C12.2447 12.3785 12.8162 12.9352 13.5213 12.9352H22.7128C23.4178 12.9352 23.9894 13.492 23.9894 14.1788V23.2565C23.9894 23.9433 24.5609 24.5 25.266 24.5H35.4787C36.1838 24.5 36.7553 23.9433 36.7553 23.2565V13.3083Z" fill="#111111"/>
<path d="M23.9894 13.3083C23.9894 12.6215 24.5609 12.0648 25.266 12.0648H34.4574C35.1625 12.0648 35.734 11.508 35.734 10.8212V1.74352C35.734 1.05674 36.3056 0.5 37.0106 0.5H47.2234C47.9284 0.5 48.5 1.05674 48.5 1.74352V11.6917C48.5 12.3785 47.9284 12.9352 47.2234 12.9352H38.0319C37.3269 12.9352 36.7553 13.492 36.7553 14.1788V23.2565C36.7553 23.9433 36.1838 24.5 35.4787 24.5H25.266C24.5609 24.5 23.9894 23.9433 23.9894 23.2565V13.3083Z" fill="currentColor"/>
</svg>
