<svg width="20" height="20" viewBox="0 0 20 20" fill="none" xmlns="http://www.w3.org/2000/svg" class="logout-icon">
<path d="M13.2764 20H13.1518C8.89319 20 6.84063 18.296 6.48575 14.4791C6.44739 14.0798 6.73513 13.7196 7.13797 13.6806C7.53121 13.6417 7.88609 13.9435 7.92446 14.3427C8.20261 17.4002 9.62213 18.5394 13.1613 18.5394H13.286C17.1897 18.5394 18.5709 17.1373 18.5709 13.1743V6.82571C18.5709 2.86271 17.1897 1.46056 13.286 1.46056H13.1613C9.60295 1.46056 8.18342 2.61928 7.92446 5.73515C7.8765 6.13437 7.55039 6.43622 7.13797 6.39727C6.73513 6.36806 6.44739 6.00779 6.47616 5.60857C6.80227 1.7332 8.86441 0 13.1518 0H13.2764C17.9858 0 20 2.04479 20 6.82571V13.1743C20 17.9552 17.9858 20 13.2764 20Z" class="logout-path"/>
<path d="M13.073 10.4674H0.719353C0.326107 10.4674 0 10.1363 0 9.7371C0 9.33788 0.326107 9.00681 0.719353 9.00681H13.073C13.4663 9.00681 13.7924 9.33788 13.7924 9.7371C13.7924 10.1363 13.4759 10.4674 13.073 10.4674Z" class="logout-path"/>
<path d="M10.9342 13.7293C10.7519 13.7293 10.5697 13.6611 10.4258 13.5151C10.1477 13.2327 10.1477 12.7653 10.4258 12.483L13.1306 9.7371L10.4258 6.99124C10.1477 6.70886 10.1477 6.24148 10.4258 5.9591C10.704 5.67673 11.1644 5.67673 11.4425 5.9591L14.6556 9.22103C14.9338 9.50341 14.9338 9.97079 14.6556 10.2532L11.4425 13.5151C11.2986 13.6611 11.1164 13.7293 10.9342 13.7293Z" class="logout-path"/>
</svg>
