<svg width="25" height="24" viewBox="0 0 30 29" fill="none" xmlns="http://www.w3.org/2000/svg">
<path d="M12.5 2.5C12.5 1.11929 13.6193 0 15 0C16.3807 0 17.5 1.11929 17.5 2.5C17.5 3.88071 16.3807 5 15 5C13.6193 5 12.5 3.88071 12.5 2.5Z" fill="#222222"/>
<path d="M12.5 8.5C12.5 7.11929 13.6193 6 15 6C16.3807 6 17.5 7.11929 17.5 8.5C17.5 9.88071 16.3807 11 15 11C13.6193 11 12.5 9.88071 12.5 8.5Z" fill="#222222"/>
<path d="M12.5 14.5C12.5 13.1193 13.6193 12 15 12C16.3807 12 17.5 13.1193 17.5 14.5C17.5 15.8807 16.3807 17 15 17C13.6193 17 12.5 15.8807 12.5 14.5Z" fill="#222222"/>
<path d="M12.5 20.5C12.5 19.1193 13.6193 18 15 18C16.3807 18 17.5 19.1193 17.5 20.5C17.5 21.8807 16.3807 23 15 23C13.6193 23 12.5 21.8807 12.5 20.5Z" fill="#222222"/>
<path d="M12.5 26.5C12.5 25.1193 13.6193 24 15 24C16.3807 24 17.5 25.1193 17.5 26.5C17.5 27.8807 16.3807 29 15 29C13.6193 29 12.5 27.8807 12.5 26.5Z" fill="#222222"/>
<path d="M27 12C28.3807 12 29.5 13.1193 29.5 14.5C29.5 15.8807 28.3807 17 27 17C25.6193 17 24.5 15.8807 24.5 14.5C24.5 13.1193 25.6193 12 27 12Z" fill="#222222"/>
<path d="M21 12C22.3807 12 23.5 13.1193 23.5 14.5C23.5 15.8807 22.3807 17 21 17C19.6193 17 18.5 15.8807 18.5 14.5C18.5 13.1193 19.6193 12 21 12Z" fill="#222222"/>
<path d="M9 12C10.3807 12 11.5 13.1193 11.5 14.5C11.5 15.8807 10.3807 17 9 17C7.61929 17 6.5 15.8807 6.5 14.5C6.5 13.1193 7.61929 12 9 12Z" fill="#222222"/>
<path d="M3 12C4.38071 12 5.5 13.1193 5.5 14.5C5.5 15.8807 4.38071 17 3 17C1.61929 17 0.5 15.8807 0.5 14.5C0.5 13.1193 1.61929 12 3 12Z" fill="#222222"/>
</svg>
