<svg width="20" height="20" viewBox="0 0 20 20" fill="currentColor" fill="none" xmlns="http://www.w3.org/2000/svg">
<path fill="#B700FF" fill-rule="evenodd" clip-rule="evenodd" d="M13.8585 2.03155C13.7647 2.00746 13.6512 2.00012 13.075 2.00012H4.2002C3.62365 2.00012 3.25126 2.00089 2.9678 2.02405C2.69595 2.04625 2.59517 2.08395 2.54579 2.10911C2.35763 2.20498 2.20487 2.35774 2.109 2.5459C2.08383 2.59529 2.04614 2.69607 2.02393 2.96791C2.00078 3.25137 2 3.62377 2 4.20031V15.8003C2 16.3769 2.00078 16.7489 2.02393 17.032C2.04611 17.3034 2.08375 17.404 2.109 17.4535C2.20542 17.6428 2.35871 17.796 2.54579 17.8913C2.595 17.9164 2.69554 17.954 2.96686 17.9762C3.21614 17.9966 3.53429 17.9996 4 18L4 15.1618C3.99998 14.6346 3.99997 14.1798 4.03057 13.8051C4.06286 13.4097 4.13416 13.0164 4.32698 12.6379C4.6146 12.0734 5.07332 11.6147 5.63781 11.3271C6.01625 11.1343 6.40962 11.063 6.80499 11.0307C7.17965 11.0001 7.6345 11.0001 8.16167 11.0001H11.8388C12.3659 11.0001 12.8205 11.0001 13.1949 11.0307C13.5902 11.063 13.9831 11.1344 14.3614 11.3271C14.9248 11.6142 15.3851 12.0724 15.6732 12.6379C15.8659 13.0161 15.9372 13.4092 15.9695 13.8041C16 14.1783 16 14.6324 16 15.1585V18C16.4657 17.9996 16.7836 17.9966 17.0327 17.9762C17.3036 17.9541 17.4041 17.9165 17.4534 17.8913C17.6422 17.7951 17.7957 17.6416 17.8912 17.4541C17.9163 17.4049 17.9539 17.3044 17.9761 17.0331C17.9992 16.7503 18 16.3787 18 15.8032V7.21966C18 6.72713 17.9944 6.63078 17.9762 6.54925C17.9547 6.45307 17.9196 6.36154 17.8719 6.27684C17.832 6.20597 17.7728 6.13191 17.4496 5.77288L14.6944 2.71149C14.3197 2.29516 14.241 2.21857 14.1633 2.16694C14.0708 2.10545 13.9679 2.05964 13.8585 2.03155ZM15.8031 20.0001H4.15839C3.6323 20.0001 3.17815 20.0002 2.80397 19.9696C2.40906 19.9373 2.016 19.866 1.63781 19.6734C1.07224 19.3852 0.614051 18.9249 0.326982 18.3615C0.134244 17.9832 0.0628916 17.5903 0.0305751 17.195C-3.25181e-05 16.8206 -1.70213e-05 16.366 8.60056e-07 15.8389V4.16179C-1.70213e-05 3.63462 -3.23988e-05 3.17976 0.0305692 2.8051C0.0628619 2.40973 0.134158 2.01636 0.326982 1.63792C0.614602 1.07344 1.07332 0.614717 1.63781 0.327097C2.01625 0.134273 2.40962 0.062977 2.80499 0.0306843C3.17965 8.26959e-05 3.63451 9.80735e-05 4.16168 0.000115955L13.075 0.000116909C13.1051 0.000116909 13.135 8.72255e-05 13.1646 5.77808e-05C13.6008 -0.000376022 13.9855 -0.000758685 14.3561 0.0944175C14.6806 0.177766 14.9897 0.31479 15.2703 0.501266C15.5859 0.710998 15.8398 0.993729 16.1228 1.30878C16.142 1.33023 16.1614 1.35183 16.181 1.37356M16.181 1.37356L18.9362 4.43491C18.953 4.45358 18.9697 4.47213 18.9863 4.49053C19.2314 4.76239 19.4522 5.00724 19.6145 5.2953C19.7589 5.55173 19.8642 5.82716 19.9281 6.1131C20.0007 6.43793 20.0004 6.76971 20 7.14338C20 7.16862 20 7.19404 20 7.21967V15.8417C20 16.3678 20 16.8219 19.9695 17.1961C19.9372 17.591 19.8659 17.984 19.6732 18.3621C19.3853 18.9272 18.9252 19.3861 18.3614 19.6733C17.9833 19.866 17.5905 19.9373 17.1957 19.9696C16.8217 20.0002 16.3677 20.0001 15.8416 20.0001H15.8031M14 18.0003V15.197C14 14.6216 13.9992 14.2499 13.9761 13.967C13.9539 13.6957 13.9163 13.5951 13.8912 13.5459C13.7959 13.3588 13.6427 13.2055 13.4534 13.1091C13.4039 13.0839 13.3032 13.0462 13.0319 13.024C12.7488 13.0009 12.3768 13.0001 11.8002 13.0001H8.2002C7.62365 13.0001 7.25126 13.0009 6.9678 13.024C6.69595 13.0463 6.59517 13.0839 6.54579 13.1091C6.35763 13.205 6.20487 13.3577 6.109 13.5459C6.08383 13.5953 6.04614 13.6961 6.02393 13.9679C6.00078 14.2514 6 14.6238 6 15.2003V18.0001L14 18.0003ZM6 5.00012C6 4.44783 6.44772 4.00012 7 4.00012H13C13.5523 4.00012 14 4.44783 14 5.00012C14 5.5524 13.5523 6.00012 13 6.00012H7C6.44772 6.00012 6 5.5524 6 5.00012Z" />
</svg>
