<svg width="26" height="24" viewBox="0 0 21 19" fill="none" xmlns="http://www.w3.org/2000/svg">
<path fill-rule="evenodd" clip-rule="evenodd" d="M14.2195 5.56079C13.9783 5.63398 13.743 5.72739 13.5152 5.84016C13.0212 6.08472 12.821 6.67948 13.068 7.16859C13.315 7.6577 13.9157 7.85595 14.4097 7.6114C14.7347 7.45045 15.0783 7.36237 15.4333 7.349C18.392 7.82225 19.5906 11.8319 17.3044 13.8117L17.2901 13.8244C16.5757 14.4674 15.6477 14.8223 14.6869 14.8152C14.1346 14.8111 13.6836 15.2511 13.6795 15.7979C13.6754 16.3447 14.1197 16.7913 14.672 16.7954C16.1387 16.8063 17.5478 16.2655 18.6284 15.296C22.0442 12.3279 20.5061 6.59632 16.2782 5.50331C15.7873 3.5123 14.6901 2.09758 13.2688 1.26802C11.7133 0.360107 9.86592 0.209165 8.20956 0.639116C6.55318 1.06907 5.0169 2.09825 4.10603 3.64332C3.33606 4.94939 3.05222 6.55791 3.4481 8.35425C-0.848269 9.67848 -0.435628 16.4486 4.59527 16.8021C5.14617 16.8408 5.62446 16.43 5.66355 15.8845C5.70265 15.3391 5.28775 14.8655 4.73685 14.8268C1.75297 14.6171 1.76372 10.3555 4.70923 10.1226C5.06766 10.1209 5.43186 10.2073 5.7631 10.3744C6.2552 10.6226 6.85736 10.4288 7.10806 9.94156C7.35876 9.4543 7.16305 8.85807 6.67095 8.60984C6.29287 8.41913 5.88737 8.28339 5.46953 8.2089C5.07304 6.73027 5.30475 5.5382 5.8333 4.64163C6.44306 3.60731 7.50589 2.86899 8.71674 2.55468C9.92762 2.24037 11.2156 2.36839 12.2532 2.97399C13.0792 3.45609 13.8109 4.2781 14.2195 5.56079ZM8.8564 10.763C9.24692 10.3763 9.88009 10.3763 10.2706 10.763L12.3203 12.7926C12.7109 13.1792 12.7109 13.8062 12.3203 14.1928C11.9298 14.5795 11.2967 14.5795 10.9061 14.1928L10.5635 13.8536V17.6015C10.5635 18.1483 10.1158 18.5916 9.5635 18.5916C9.01122 18.5916 8.5635 18.1483 8.5635 17.6015V13.8536L8.22087 14.1928C7.83035 14.5795 7.19718 14.5795 6.80666 14.1928C6.41613 13.8062 6.41613 13.1792 6.80666 12.7926L8.8564 10.763Z" fill="#B700FF"/>
</svg>
